<svg width="82" height="101" viewBox="0 0 82 101" fill="none" xmlns="http://www.w3.org/2000/svg">
<path d="M52.3013 97.3903L43.6124 64.1952C43.0947 62.203 44.2901 60.1684 46.2823 59.6507C48.2743 59.133 50.3091 60.3283 50.8268 62.3204L59.5159 95.5155C60.0336 97.5077 58.8382 99.5423 56.846 100.06C54.8577 100.577 52.8201 99.3864 52.3013 97.3903Z" fill="#414B82"/>
<path d="M30.5387 100.155C28.4939 99.9196 27.0274 98.0708 27.2632 96.026L29.1541 79.6276C29.1908 79.309 29.2685 78.9965 29.3853 78.6977L35.0393 64.2336C35.7887 62.3166 37.95 61.3697 39.8673 62.1193C41.7845 62.8687 42.731 65.0302 41.9817 66.9473L36.5038 80.9614L34.6682 96.8797C34.4323 98.9247 32.5838 100.391 30.5387 100.155Z" fill="#5F6E9B"/>
<path d="M49.0095 36.3417C50.3711 33.0569 48.812 29.2903 45.5272 27.9287C42.2423 26.5671 38.4757 28.1263 37.1141 31.4111C35.7526 34.6959 37.3117 38.4625 40.5965 39.8241C43.8813 41.1857 47.648 39.6266 49.0095 36.3417Z" fill="#FFB69E"/>
<path d="M33.0231 37.2362L30.2234 35.2554L26.7333 23.0702C26.261 21.4212 24.5417 20.4671 22.8923 20.9396C21.2434 21.4119 20.2894 23.1315 20.7617 24.7804L24.5525 38.0157C24.7472 38.6953 25.1677 39.2882 25.7449 39.6962L29.0089 42.0047L33.3445 41.2503L33.0231 37.2362Z" fill="#FFB69E"/>
<path d="M46.2364 43.232L46.1239 42.2431L40.1017 42.241L39.9686 43.1118C39.676 45.0263 41.1577 46.7516 43.0944 46.7516C44.9825 46.7516 46.4498 45.1079 46.2364 43.232Z" fill="#FFB69E"/>
<path d="M72.8342 34.1486C71.485 33.0893 69.5327 33.3241 68.4734 34.6733L61.8387 43.123L58.5386 42.8642L58.0145 46.2678L58.5386 49.0926L63.0074 49.447C64.0443 49.529 65.0532 49.087 65.6956 48.2689L73.3588 38.5095C73.5791 38.229 73.7432 37.9224 73.8532 37.603C74.2722 36.3872 73.9028 34.9877 72.8342 34.1486Z" fill="#FFB69E"/>
<path d="M50.6403 42.2446L46.1237 42.243C46.1866 43.8744 44.6715 45.2611 43.0897 45.2611C41.389 45.2611 40.1743 43.9484 40.1008 42.3046L40.1017 42.2411L33.0243 37.236C33.0238 37.236 33.0235 37.2361 33.023 37.2361L29.0092 42.0044L34.8779 46.1548C34.8394 46.543 34.8609 45.3995 34.8573 64.678C34.8569 67.0087 36.7463 68.899 39.0769 68.899H47.0877C49.418 68.899 51.3072 67.0098 51.3072 64.6794V48.5187L58.5385 49.0923V42.864L50.6403 42.2446Z" fill="#64AFFF"/>
<path d="M61.411 30.4567L59.6538 29.882L61.8585 23.1403C62.0474 22.5625 62.5809 22.1672 63.1887 22.1547L69.363 22.0274C70.3484 22.0071 71.0586 22.9657 70.7523 23.9024L68.521 30.7252L66.7638 30.1505L68.6567 24.3623C68.7325 24.1305 68.5568 23.8933 68.3129 23.8982L64.0082 23.987C63.7178 23.993 63.463 24.1818 63.3728 24.4578L61.411 30.4567Z" fill="#0073AA"/>
<path d="M59.8158 28.6241C58.7123 28.2632 57.6442 28.5008 57.4303 29.1551C57.2163 29.8092 57.9375 30.632 59.0412 30.9929C60.1448 31.3538 61.2128 31.1162 61.4267 30.462C61.6405 29.8078 60.9194 28.9849 59.8158 28.6241Z" fill="#41B4E6"/>
<path d="M66.8795 28.8777C65.7759 28.5168 64.7078 28.7544 64.4939 29.4086C64.28 30.0627 65.0011 30.8856 66.1048 31.2465C67.2084 31.6075 68.2764 31.3698 68.4904 30.7155C68.7042 30.0615 67.9831 29.2386 66.8795 28.8777Z" fill="#41B4E6"/>
<path d="M77.9221 80.96C77.9221 84.1873 75.3057 86.8037 72.0784 86.8037C68.8511 86.8037 66.2347 84.1873 66.2347 80.96C66.2347 77.7327 68.8511 75.1163 72.0784 75.1163C75.3057 75.1163 77.9221 77.7327 77.9221 80.96Z" fill="white"/>
<path d="M76.5112 79.7513L76.9142 77.7362L77.7203 79.5498L77.9218 81.3633L76.5112 79.7513Z" fill="#333333"/>
<path d="M67.6448 79.7513L67.2418 77.7362L66.4358 79.5498L66.2343 81.3633L67.6448 79.7513Z" fill="#333333"/>
<path d="M67.2418 84.184L69.4584 84.587L70.6674 86.602L68.6524 85.796L67.2418 84.184Z" fill="#333333"/>
<path d="M76.9142 84.184L74.6977 84.587L73.4886 86.602L75.5037 85.796L76.9142 84.184Z" fill="#333333"/>
<path d="M69.8611 75.5194L72.0776 76.527L74.2942 75.5194L72.0776 74.9149L69.8611 75.5194Z" fill="#333333"/>
<path d="M70.0627 80.5571L72.0778 78.9451L74.0929 80.5571L73.4883 82.9752H70.6673L70.0627 80.5571Z" fill="#333333"/>
<path d="M72.0783 74.9152C68.7396 74.9152 66.0331 77.6218 66.0331 80.9604C66.0331 84.299 68.7396 87.0056 72.0783 87.0056C75.4169 87.0056 78.1234 84.299 78.1234 80.9604C78.1197 77.6233 75.4153 74.919 72.0783 74.9152ZM76.7598 77.8149L76.3409 79.5958L74.1337 80.3315L72.2798 78.8486V76.6636L74.3956 75.8174C75.3535 76.2514 76.1719 76.9429 76.7598 77.8149ZM76.7935 84.0525L74.7951 84.3681L73.707 82.9307L74.2614 80.7141L76.4441 79.9867L77.6944 81.4871C77.6092 82.4032 77.2998 83.2843 76.7935 84.0525ZM69.3702 84.3695L67.363 84.0525C66.8567 83.2841 66.5474 82.4028 66.4623 81.4865L67.7116 79.9861L69.8944 80.7135L70.4487 82.9313L69.3702 84.3695ZM66.4379 80.8852C66.4486 79.9863 66.6754 79.1031 67.0991 78.3102L67.4259 79.7006L66.4379 80.8852ZM70.825 82.7739L70.2905 80.6335L72.0783 79.2034L73.8664 80.6341L73.3315 82.7739H70.825ZM76.7306 79.6998L77.0575 78.3094C77.4811 79.1023 77.7079 79.9854 77.7186 80.8844L76.7306 79.6998ZM73.8461 75.6034L72.0783 76.3104L70.301 75.6066C71.4514 75.2232 72.695 75.2221 73.8461 75.6034ZM69.7513 75.822L71.8767 76.6643V78.8486L70.0229 80.3315L67.8156 79.5958L67.3967 77.8149C67.9826 76.946 68.7975 76.2563 69.7513 75.822ZM67.6997 84.5137L69.3378 84.7725L70.3284 86.3241C69.2966 85.9852 68.3841 85.3568 67.6997 84.5137ZM70.9061 86.4793L69.7037 84.5967L70.7685 83.177H73.388L74.4681 84.6036L73.4203 86.4399C72.5961 86.6429 71.7366 86.6567 70.9063 86.4803L70.9061 86.4793ZM73.9801 86.2719L74.8389 84.7688L76.4576 84.5135C75.8073 85.3143 74.9506 85.9223 73.9801 86.2719Z" fill="black"/>
<path d="M19.3957 28.178C19.1032 28.2831 18.8349 27.9445 18.8357 27.642C18.8365 27.3395 18.9959 27.0614 19.0617 26.7638C19.2491 25.9401 18.7141 25.1519 18.328 24.4009C17.7463 23.2686 17.4701 22.0068 17.2001 20.7626C17.0639 20.1342 16.9271 19.4891 17.0253 18.8495C17.0816 18.4748 17.2153 18.1159 17.4177 17.7956C17.6202 17.4753 17.887 17.2006 18.2013 16.9889C18.1245 16.7225 18.1237 16.4398 18.1989 16.1729C18.2741 15.906 18.4225 15.6654 18.6271 15.4783C19.0727 15.114 19.6201 14.8964 20.1942 14.8554C20.2755 14.8543 20.3549 14.8312 20.424 14.7885C20.4902 14.7231 20.5368 14.6406 20.5587 14.5502C20.6911 14.2223 20.9331 13.9505 21.2435 13.7811C21.5538 13.6116 21.9133 13.555 22.2607 13.6209C21.445 10.5341 20.6785 7.46617 19.9302 4.36291C19.8059 3.84468 19.7408 3.27284 19.8938 2.75986C20.0156 2.34056 20.2555 1.91951 20.659 1.75129C20.8251 1.69132 20.9989 1.6555 21.1751 1.64491C21.5696 1.60466 21.9953 1.58104 22.3348 1.78261C22.538 1.91684 22.7102 2.09283 22.8401 2.29885C23.1977 2.8033 23.4829 3.35535 23.6874 3.93892C24.0129 4.86983 24.338 5.77712 24.7318 6.68259C25.4181 8.27742 25.7063 10.0074 26.1642 11.6838C26.7086 13.6644 27.5159 15.599 27.6368 17.6464C27.7544 19.534 27.2881 21.4599 27.7045 23.3058C27.9065 24.2035 28.421 25.1434 29.3086 25.3788C29.3963 25.6248 29.071 25.7785 28.8326 25.8832L27.5586 26.4517C26.9816 26.7185 26.3892 26.9506 25.7844 27.1467C23.6917 27.7784 21.4445 27.4403 19.3957 28.178Z" fill="#164690"/>
<path d="M20.2903 27.5954C20.0523 27.6897 19.8179 27.37 19.8145 27.0846C19.8111 26.7993 19.9426 26.5386 19.9951 26.2606C20.1407 25.4878 19.683 24.7398 19.3521 24.0286C18.8511 22.9554 18.605 21.765 18.3645 20.5908C18.2428 19.9984 18.1203 19.3894 18.1896 18.7916C18.2256 18.4524 18.3291 18.1239 18.4942 17.8255C18.6593 17.527 18.8825 17.2647 19.1507 17.054C19.0815 16.8087 19.0763 16.5498 19.1357 16.3019C19.195 16.054 19.3169 15.8255 19.4898 15.6382C19.8472 15.3056 20.3074 15.1051 20.7942 15.0696C20.8625 15.0702 20.9292 15.0494 20.9849 15.01C21.0409 14.9482 21.0792 14.8724 21.0958 14.7907C21.2951 14.1722 21.933 13.7874 22.5105 13.9405C21.7921 11.0259 21.1138 8.12899 20.4515 5.19951C20.3199 4.70849 20.3022 4.19391 20.3997 3.695C20.4968 3.3003 20.6931 2.90717 21.0273 2.75464C21.1654 2.70103 21.311 2.66928 21.4589 2.6605C21.7849 2.63042 22.1417 2.6121 22.431 2.80383C22.6049 2.936 22.7501 3.10221 22.8577 3.29233C23.1658 3.77711 23.4108 4.29923 23.5867 4.84603C23.8693 5.72647 24.1557 6.58142 24.4927 7.43928C25.0863 8.94817 25.344 10.5831 25.752 12.163C26.2333 14.0326 26.9285 15.8644 27.0595 17.7936C27.1755 19.575 26.8145 21.3792 27.1842 23.1204C27.3641 23.9685 27.8058 24.8595 28.5526 25.0914C28.6291 25.3238 28.3578 25.4652 28.1594 25.5605L27.0953 26.0744C26.6171 26.3165 26.1229 26.5257 25.6162 26.7005C23.8808 27.2696 21.9961 26.9258 20.2903 27.5954Z" stroke="white" stroke-width="0.155004" stroke-miterlimit="10"/>
<path d="M22.4829 5.69346L22.9707 5.64551C23.474 7.65579 24.0384 9.65072 24.6638 11.6303C24.8537 11.5959 25.0489 11.6026 25.236 11.6499C25.2591 12.1042 25.3452 12.553 25.4917 12.9836C24.8227 13.0254 24.1581 13.121 23.5044 13.2696L23.3753 12.4667C23.3584 12.4113 23.364 12.3514 23.3909 12.3001C23.432 12.2598 23.482 12.2299 23.537 12.2129C23.8144 12.0738 23.734 11.6616 23.6212 11.3708C23.2108 10.3029 23.0067 9.16848 22.8058 8.04113C22.6957 8.01137 22.5784 8.02549 22.4785 8.08051C22.3787 8.13553 22.304 8.22715 22.2703 8.33609C22.3071 8.19407 21.9741 7.67222 21.9142 7.51902C21.8238 7.28607 21.6951 7.0889 21.8276 6.86852C21.9361 6.68942 22.2125 6.58985 22.3293 6.39515C22.4587 6.18548 22.5129 5.93801 22.4829 5.69346V5.69346Z" stroke="white" stroke-width="0.155004" stroke-miterlimit="10"/>
<path d="M13.1585 46.5725C13.0485 46.4 12.8665 46.2863 12.6631 46.2634C12.4712 46.233 12.2762 46.2943 12.1361 46.429C12.1306 46.4158 12.1293 46.4016 12.1238 46.3882C11.986 46.0488 11.5993 45.8853 11.2598 46.023C11.1843 46.0537 11.1151 46.098 11.0556 46.1538C11.0501 46.1406 11.0488 46.1264 11.0433 46.113C10.9014 45.7719 10.5098 45.6103 10.1686 45.7522C10.0268 45.4111 9.63519 45.2495 9.29404 45.3914C9.28065 45.397 9.26938 45.4053 9.25654 45.4116C9.25317 45.2474 9.18407 45.0913 9.06477 44.9784C8.88757 44.8022 8.6289 44.7356 8.38868 44.8045C8.19218 44.8671 8.03588 45.0174 7.96567 45.2114C7.71685 44.9392 7.29454 44.9203 7.0224 45.1691C6.8138 45.3598 6.74789 45.6612 6.85784 45.9216C6.71676 45.5808 6.32611 45.4189 5.9853 45.5599C5.77282 45.6478 5.62053 45.8389 5.58218 46.0657C5.41483 46.0429 5.2452 46.0862 5.10922 46.1863C4.89717 46.343 4.7952 46.6084 4.84782 46.8667C4.89212 47.0718 5.03087 47.2439 5.22189 47.3306C5.03149 47.4249 4.89749 47.6043 4.86126 47.8137C4.6718 47.7878 4.48054 47.8466 4.33832 47.9744C4.1862 48.1096 4.10351 48.3064 4.11341 48.5097C4.12071 48.6731 4.18858 48.8281 4.30379 48.9442C4.06459 49.128 3.97844 49.4494 4.09365 49.7281C4.09922 49.7415 4.10753 49.7528 4.11384 49.7656C3.92015 49.77 3.73964 49.8647 3.62586 50.0215C3.49824 50.182 3.45013 50.3917 3.49498 50.5918C3.55984 50.8539 3.77645 51.0509 4.04348 51.0906L4.19574 51.135L4.9164 50.8353L5.25166 51.6414L12.4583 48.6442L12.1228 47.8377L13.0494 47.4524L13.0086 47.4355C13.2672 47.2257 13.3312 46.8572 13.1585 46.5725Z" fill="#FDB62F"/>
<path d="M8.78124 58.3849L4.05664 52.0672C3.72282 51.6007 3.83041 50.9518 4.29696 50.618C4.36097 50.5722 4.42994 50.5338 4.5026 50.5036L4.51166 50.4999C4.99427 50.2991 5.5509 50.4881 5.81133 50.9414L10.0167 57.8711L8.78124 58.3849Z" fill="#DE0418"/>
<path d="M10.0164 57.8712L5.9439 51.1725C5.65796 50.6752 5.82933 50.0402 6.32668 49.7543C6.36508 49.7322 6.40483 49.7126 6.44571 49.6956L6.47989 49.6814C7.00006 49.465 7.59791 49.7027 7.82748 50.2172L11.2519 57.3574L10.0164 57.8712Z" fill="#FCE9CC"/>
<path d="M7.84905 50.2658L11.2517 57.3573L12.4872 56.8435L9.84151 49.4666C9.64902 48.9262 9.05491 48.6441 8.51446 48.8366C8.49769 48.8426 8.48109 48.8489 8.46466 48.8558L8.39939 48.8829C7.86954 49.1028 7.61824 49.7106 7.83816 50.2405C7.84166 50.249 7.84532 50.2574 7.84905 50.2658Z" fill="#DE0418"/>
<path d="M9.80534 49.3658L12.4871 56.8436L13.7226 56.3298L11.8221 48.7557C11.685 48.1987 11.1223 47.8583 10.5652 47.9954C10.5138 48.008 10.4634 48.0246 10.4145 48.0449L10.3847 48.0573C9.87403 48.2697 9.61933 48.845 9.80534 49.3658Z" fill="#FCE9CC"/>
<path d="M12.3559 47.2375C12.8856 47.0172 13.4936 47.268 13.7139 47.7977C13.7473 47.878 13.7705 47.9623 13.7829 48.0484L14.9577 55.8161L13.7222 56.3299L11.7454 48.4454C11.6226 47.9472 11.882 47.4341 12.3559 47.2375Z" fill="#DE0418"/>
<path d="M7.05151 53.0662L12.405 50.8397L13.4326 53.3106L8.07912 55.5371L7.05151 53.0662Z" fill="#FDB62F"/>
<path d="M3.04144 47.4904C2.90138 47.1499 2.51171 46.9873 2.17117 47.1274C1.94276 47.2213 1.78501 47.4339 1.76114 47.6797C1.734 47.6861 1.70729 47.6942 1.68117 47.704C1.34002 47.8459 1.17848 48.2375 1.32037 48.5786C1.46225 48.9198 1.85382 49.0813 2.19498 48.9394C2.22334 48.9266 2.25076 48.9118 2.27704 48.8951C2.56735 49.1213 2.98602 49.0692 3.21216 48.7789C3.4383 48.4886 3.38626 48.0699 3.09595 47.8438C3.09207 47.8408 3.08818 47.8378 3.08425 47.8349C3.10084 47.7183 3.08608 47.5994 3.04144 47.4904Z" fill="#FDB62F"/>
<path d="M13.3019 43.7044C13.1619 43.3638 12.7722 43.2013 12.4317 43.3414C12.2033 43.4353 12.0455 43.6478 12.0216 43.8937C11.9945 43.9001 11.9678 43.9082 11.9417 43.918C11.6005 44.0599 11.439 44.4514 11.5809 44.7926C11.7227 45.1338 12.1143 45.2953 12.4555 45.1534C12.4838 45.1406 12.5113 45.1258 12.5375 45.1091C12.8278 45.3353 13.2465 45.2832 13.4727 44.9929C13.6988 44.7026 13.6468 44.2839 13.3564 44.0578C13.3526 44.0548 13.3487 44.0518 13.3447 44.0489C13.3613 43.9323 13.3466 43.8134 13.3019 43.7044Z" fill="#FDB62F"/>
<path d="M12.7576 84.3178C16.04 82.6932 17.3839 78.7154 15.7593 75.433C14.1348 72.1506 10.1569 70.8067 6.87453 72.4313C3.59216 74.0558 2.24824 78.0337 3.87281 81.3161C5.49737 84.5984 9.47522 85.9423 12.7576 84.3178Z" fill="#D42428"/>
<path d="M11.9379 72.0915C15.4077 73.264 17.2705 77.0271 16.0981 80.4971C14.9259 83.9668 11.1625 85.8296 7.69257 84.6573L11.9379 72.0915Z" fill="#CC202D"/>
<path d="M16.2288 76.6825L11.8315 75.1969L8.55776 77.309L8.06721 81.5963L13.929 83.5766C15.9931 81.9479 16.903 79.2273 16.2288 76.6825Z" fill="#BA202E"/>
<path d="M12.3586 75.6883C12.112 75.19 11.5085 74.986 11.0106 75.2324L6.78067 77.326C6.28282 77.5724 6.07919 78.176 6.32573 78.6741L7.52292 81.093C7.76951 81.5912 8.373 81.7953 8.87077 81.5489L13.1006 79.4554C13.5986 79.2089 13.8023 78.6053 13.5557 78.1072L12.3585 75.6883L12.3586 75.6883ZM9.84233 79.7098L8.71788 77.4378L11.003 77.7211L9.84233 79.7098Z" fill="white"/>
<path d="M79.1843 52.0533L76.9987 51.1786L72.3339 62.8353L74.5195 63.7099L79.1843 52.0533Z" fill="#D32F2F"/>
<path d="M74.8133 50.3041L72.6277 49.4294L67.9629 61.0861L70.1485 61.9607L74.8133 50.3041Z" fill="#D32F2F"/>
<path d="M74.5196 63.7103L72.334 62.8356L72.6276 49.4297L74.8132 50.3043L74.5196 63.7103Z" fill="#F44336"/>
</svg>
