<svg width="124" height="91" viewBox="0 0 124 91" fill="none" xmlns="http://www.w3.org/2000/svg">
<rect x="4.99976" y="34.5752" width="113.946" height="51.1083" fill="white"/>
<path d="M31.0011 62.0007H18.6011V43.4009H12.4009V66.1341H31.0011V62.0007Z" fill="#164690"/>
<path d="M41.4776 67.6592C44.5495 67.6592 46.8392 66.7264 48.3455 64.866C49.8542 63.0051 50.6078 60.7611 50.6078 58.1435C50.6078 55.5661 49.8542 53.3336 48.3455 51.4449C46.8372 49.5558 44.5471 48.6115 41.4776 48.6115C38.4069 48.6115 36.1172 49.5558 34.6109 51.4449C33.1022 53.3384 32.3474 55.5704 32.3474 58.1435C32.3474 60.7651 33.1022 63.0051 34.6109 64.866C36.1192 66.7264 38.4069 67.6592 41.4776 67.6592ZM38.308 54.0077C39.0456 53.0431 40.0969 52.5586 41.4633 52.5586C42.8297 52.5586 43.879 53.0431 44.6107 54.0077C45.3424 54.9767 45.7084 56.3526 45.7084 58.1407C45.7084 59.9312 45.3424 61.3096 44.6107 62.2822C43.879 63.2511 42.8297 63.7396 41.4633 63.7396C40.0969 63.7396 39.0456 63.2551 38.308 62.2822C37.5703 61.3116 37.1999 59.9312 37.1999 58.1431C37.1999 56.353 37.5703 54.9767 38.308 54.0077Z" fill="#164690"/>
<path d="M57.8682 64.8059C59.9349 65.6818 59.3395 66.2935 59.8793 66.6425C60.7807 67.2315 62.1026 67.5268 63.5879 67.5268C65.9471 67.5268 67.8541 66.6143 69.1704 64.79C70.49 62.9653 71.1807 60.6645 71.1807 57.8895C71.1807 55.2134 70.5285 53.0279 69.1947 51.3324C67.8588 49.6368 66.0179 48.7935 63.6507 48.7935C62.3431 48.7935 60.9707 49.0661 60.1249 49.613C59.4103 50.049 59.9349 50.6825 57.8686 51.512V43.4009H53.7351V66.1341H57.8686V64.8059H57.8682ZM58.8268 55.1852C59.4655 53.6451 60.6392 52.8745 62.3466 52.8745C64.0318 52.8745 65.188 53.6614 65.816 55.2357C66.147 56.0652 66.3148 57.1125 66.3148 58.3819C66.3148 59.9661 65.9773 61.2435 65.3076 62.2185C64.6339 63.191 63.6932 63.6755 62.4782 63.6755C61.0788 63.6755 60.0382 63.1751 59.355 62.168C58.671 61.1633 58.33 59.8934 58.33 58.366C58.3312 57.0644 58.4965 56.0024 58.8268 55.1852Z" fill="#164690"/>
<path d="M78.5339 64.8059C78.5339 65.6818 79.9246 66.2935 80.4632 66.6425C81.3654 67.2315 82.6487 67.5268 84.132 67.5268C86.4933 67.5268 88.3787 66.6143 89.6987 64.79C91.0182 62.9653 91.6986 60.6645 91.6986 57.8895C91.6986 55.2134 91.0409 53.0279 89.7027 51.3324C88.3668 49.6368 86.5239 48.7935 84.1606 48.7935C82.8506 48.7935 81.5593 49.0661 80.7136 49.613C79.997 50.049 78.5339 50.6825 78.5339 51.512V43.4009H74.4009V66.1341H78.5339V64.8059ZM79.3332 55.1852C79.9707 53.6451 81.146 52.8745 82.853 52.8745C84.5402 52.8745 85.6964 53.6614 86.3239 55.2357C86.655 56.0652 86.8207 57.1125 86.8207 58.3819C86.8207 59.9661 86.4853 61.2435 85.8116 62.2185C85.1411 63.191 84.1988 63.6755 82.9862 63.6755C81.5856 63.6755 80.5438 63.1751 79.8622 62.168C79.1798 61.1633 78.8368 59.8934 78.8368 58.366C78.8368 57.0644 79.0021 56.0024 79.3332 55.1852Z" fill="#164690"/>
<path d="M99.3853 68.9234C99.1488 69.5108 98.8949 69.9003 98.6242 70.0859C98.3396 70.2819 97.9883 70.4087 97.5725 70.4611C97.1588 70.516 96.4164 70.5319 95.9601 70.5116L95.0678 70.4774V74.215C97.1346 74.2472 96.2506 74.2675 96.5006 74.2719C96.755 74.2798 97.2391 74.2798 97.6548 74.2798C99.7235 74.2798 101.177 73.874 101.867 73.0612C102.555 72.2457 103.532 70.353 104.713 66.966L110.874 49.6014H105.91L102.22 62.7804L98.3194 49.6014H93.1223L99.6898 68.0478C99.7223 68.1786 99.6214 68.33 99.3853 68.9234Z" fill="#164690"/>
<path d="M85.7652 72.3341H17.5654C15.8533 72.3341 14.4653 73.7221 14.4653 75.4342C14.4653 77.1463 15.8533 78.5343 17.5654 78.5343H85.7652C87.4774 78.5343 88.8653 77.1463 88.8653 75.4342C88.8653 73.7221 87.4774 72.3341 85.7652 72.3341Z" fill="#164690"/>
<path d="M14.8857 8.26693V7.84801H14.4667H4.13347C2.08308 7.84801 0.41892 6.18386 0.41892 4.13347C0.41892 2.08308 2.08308 0.41892 4.13347 0.41892H119.867C121.916 0.41892 123.581 2.0831 123.581 4.13347C123.581 6.18383 121.916 7.84801 119.867 7.84801H107.467H107.048V8.26693V28.9339V29.3528H107.467H114.7C119.595 29.3528 123.581 33.3381 123.581 38.2338V81.634C123.581 86.5285 119.595 90.5149 114.7 90.5149H9.2999C4.40421 90.5149 0.41892 86.5285 0.41892 81.634V38.2338C0.41892 33.338 4.4042 29.3524 9.2999 29.3524H14.4667H14.8857V28.9335V8.26693ZM20.248 28.9335V29.3524H20.6669H101.267H101.267H101.686V28.9335V8.26693V7.84801H101.267H20.6669H20.248V8.26693V28.9335ZM118.219 81.634V38.2338C118.219 36.293 116.641 34.7147 114.7 34.7147H9.2999C7.35911 34.7147 5.78088 36.293 5.78088 38.2338V81.634C5.78088 83.5748 7.35911 85.153 9.2999 85.153H114.7C116.641 85.153 118.219 83.5747 118.219 81.634Z" fill="#164690" stroke="#164690" stroke-width="0.837841"/>
</svg>
