<svg width="112" height="197" viewBox="0 0 112 197" fill="none" xmlns="http://www.w3.org/2000/svg">
<g clip-path="url(#clip0)">
<path d="M25.3672 195.825C33.2913 189.962 40.252 182.691 47.4349 176.086C48.3976 175.27 47.8038 173.492 46.9144 173.048C41.6523 170.608 36.2417 167.723 30.5359 166.913L30.4616 166.69C19.4054 140.241 33.759 106.28 44.4131 81.9577C56.5472 53.928 73.5719 26.4863 99.1977 9.26426C102.605 7.63013 106.235 5.92164 110.013 4.65772C111.79 4.06294 110.974 1.61784 109.122 1.99034C108.455 2.21339 107.788 2.43643 107.122 2.65948C106.825 1.77035 105.935 1.32655 104.824 1.69829C102.454 2.7384 100.232 4.22308 97.9358 5.48547C38.3038 27.4121 0.342719 106.833 16.1616 166.779C11.9378 165.968 7.56642 165.454 3.26798 164.421C1.34143 163.83 0.379742 166.129 1.12159 167.61C6.38841 178.204 15.0628 186.422 22.4773 195.309C22.9963 196.124 24.1822 196.715 25.3672 195.825ZM6.53082 169.013C9.86538 169.38 13.0512 169.303 16.4599 169.892C17.72 169.965 18.3858 169.001 18.3853 168.259C19.052 168.036 19.3484 167.443 19.3476 166.702C10.4959 110.603 32.3195 55.3613 76.0892 22.9259C60.2436 39.8414 48.6983 61.4962 39.7457 82.0365C33.1602 97.0896 27.9094 112.438 24.585 128.377C22.0735 140.831 20.8972 155.805 28.6833 166.544C26.6827 166.472 26.6846 169.437 28.3149 169.88C33.0579 171.506 37.5787 173.206 41.9514 175.202C36.1012 180.619 30.3259 186.258 24.0308 191.082C18.1727 183.899 11.4259 177.013 6.53082 169.013Z" fill="#698EC5"/>
</g>
<defs>
<clipPath id="clip0">
<rect width="112" height="197" fill="white"/>
</clipPath>
</defs>
</svg>
