<svg width="112" height="197" viewBox="0 0 112 197" fill="none" xmlns="http://www.w3.org/2000/svg">
<g clip-path="url(#clip0)">
<path d="M86.6328 195.825C78.7087 189.962 71.748 182.691 64.5651 176.086C63.6024 175.27 64.1962 173.492 65.0856 173.048C70.3477 170.608 75.7583 167.723 81.4641 166.913L81.5384 166.69C92.5946 140.241 78.241 106.28 67.5869 81.9577C55.4528 53.928 38.4281 26.4863 12.8023 9.26426C9.39502 7.63013 5.76548 5.92164 1.98748 4.65772C0.209599 4.06294 1.02614 1.61784 2.87825 1.99034C3.54496 2.21339 4.21166 2.43643 4.87837 2.65948C5.17529 1.77035 6.06469 1.32655 7.17586 1.69829C9.54622 2.7384 11.7681 4.22308 14.0642 5.48547C73.6962 27.4121 111.657 106.833 95.8384 166.779C100.062 165.968 104.434 165.454 108.732 164.421C110.659 163.83 111.62 166.129 110.878 167.61C105.612 178.204 96.9372 186.422 89.5227 195.309C89.0037 196.124 87.8178 196.715 86.6328 195.825ZM105.469 169.013C102.135 169.38 98.9488 169.303 95.5401 169.892C94.28 169.965 93.6142 169.001 93.6147 168.259C92.948 168.036 92.6516 167.443 92.6524 166.702C101.504 110.603 79.6805 55.3613 35.9108 22.9259C51.7564 39.8414 63.3017 61.4962 72.2543 82.0365C78.8398 97.0896 84.0906 112.438 87.415 128.377C89.9265 140.831 91.1028 155.805 83.3167 166.544C85.3173 166.472 85.3154 169.437 83.6851 169.88C78.9421 171.506 74.4213 173.206 70.0486 175.202C75.8988 180.619 81.6741 186.258 87.9692 191.082C93.8273 183.899 100.574 177.013 105.469 169.013Z" fill="#164690"/>
</g>
<defs>
<clipPath id="clip0">
<rect width="112" height="197" fill="white" transform="matrix(-1 0 0 1 112 0)"/>
</clipPath>
</defs>
</svg>
