<svg width="48" height="48" viewBox="0 0 48 48" fill="none" xmlns="http://www.w3.org/2000/svg">
<path d="M13.9204 11.7971L9.84786 7.72468C9.55025 7.42707 9.14215 7.26661 8.72153 7.28174C8.30091 7.29687 7.90565 7.48661 7.62992 7.80469C4.32832 11.6126 2.43086 16.3613 2.20117 21.4129C2.45208 27.0107 4.75025 32.2375 8.73818 36.2254C12.9691 40.4562 18.5942 42.7863 24.5775 42.7863C30.0567 42.7863 35.2352 40.8317 39.318 37.2534C39.6048 37.002 39.9615 36.8773 40.3173 36.8773C40.7058 36.8773 41.0932 37.0258 41.3877 37.3203L44.4442 40.3769L45.6889 27.5858C45.6143 27.419 45.5111 27.2645 45.3788 27.1323C45.0584 26.8118 44.6114 26.6516 44.1603 26.6954L31.9509 27.8835L33.0085 28.941C33.3175 29.2502 33.4782 29.6776 33.449 30.1137C33.4256 30.4651 33.279 30.793 33.042 31.0466C33.3281 31.3524 33.477 31.7626 33.449 32.182C33.4199 32.6182 33.2037 33.0202 32.8565 33.2859C27.5159 37.374 19.8204 36.9773 14.9374 32.0943C12.0172 29.1742 10.7022 25.2481 10.9905 21.4211C10.7362 18.0523 11.7252 14.6068 13.9573 11.8378C13.9449 11.8244 13.9334 11.8101 13.9204 11.7971Z" fill="#68CCE9"/>
<path d="M8.77596 5.21276C9.1772 5.21276 9.56288 5.37191 9.84765 5.65668L13.9201 9.72908C14.4702 10.2792 14.5127 11.1574 14.0199 11.7595C9.6418 17.1093 9.94758 25.0365 14.9373 30.0264C17.5951 32.6842 21.0853 34.0125 24.5764 34.0125C27.4991 34.0125 30.4227 33.0807 32.8564 31.2178C33.2035 30.9521 33.4197 30.5501 33.4489 30.1139C33.478 29.6777 33.3174 29.2502 33.0084 28.9412L30.066 25.9988L44.1603 24.6274C44.2094 24.6226 44.2584 24.6202 44.3072 24.6202C44.7071 24.6202 45.0932 24.7786 45.3789 25.0642C45.6993 25.3846 45.8596 25.8316 45.8157 26.2827L44.4443 40.377L41.3878 37.3205C41.0933 37.026 40.7059 36.8774 40.3174 36.8774C39.9615 36.8774 39.6048 37.0021 39.3181 37.2535C35.2353 40.8319 30.0568 42.7864 24.5776 42.7864C18.5943 42.7864 12.9691 40.4565 8.7383 36.2256C4.50707 31.9948 2.17712 26.3697 2.17712 20.3863C2.17712 14.9479 4.10212 9.80528 7.62971 5.73669C7.90544 5.41861 8.30059 5.22898 8.72131 5.21374C8.7396 5.21309 8.75778 5.21276 8.77596 5.21276ZM8.77596 3.03564H8.77509C8.73122 3.03564 8.68735 3.03641 8.64348 3.03804C7.62285 3.07483 6.65403 3.53867 5.98479 4.31046C4.05586 6.53514 2.56062 9.0508 1.54053 11.7873C0.518263 14.5297 0 17.4229 0 20.3863C0 26.9512 2.55648 33.1231 7.19853 37.7651C11.8406 42.4072 18.0125 44.9636 24.5773 44.9636C27.5632 44.9636 30.4768 44.4375 33.2373 43.3997C35.8 42.4365 38.1669 41.0564 40.2817 39.2935L42.9047 41.9165C43.3201 42.3319 43.8768 42.5541 44.4444 42.5541C44.6907 42.5541 44.9389 42.5123 45.1788 42.4263C45.9717 42.1421 46.5295 41.4261 46.611 40.5878L47.9824 26.4934C48.0897 25.3904 47.7018 24.3083 46.9181 23.5246C46.2206 22.8272 45.2933 22.443 44.307 22.443C44.1879 22.443 44.0675 22.4489 43.9491 22.4604L29.855 23.8318C29.0167 23.9133 28.3007 24.4712 28.0165 25.264C27.7322 26.0569 27.9309 26.9426 28.5264 27.5381L30.9166 29.9283C29.0546 31.1625 26.8312 31.8352 24.5764 31.8352C21.5126 31.8352 18.6361 30.646 16.4769 28.4867C12.2968 24.3065 11.9649 17.7081 15.705 13.1381C16.9117 11.6635 16.8064 9.53597 15.4597 8.18943L11.3873 4.11702C10.6898 3.4198 9.76241 3.03564 8.77596 3.03564Z" fill="#164690"/>
</svg>
