<svg width="48" height="48" viewBox="0 0 48 48" fill="none" xmlns="http://www.w3.org/2000/svg">
<path d="M34.0796 36.2029L38.1521 40.2753C38.4498 40.5729 38.8579 40.7334 39.2785 40.7183C39.6991 40.7031 40.0943 40.5134 40.3701 40.1953C43.6717 36.3874 45.5691 31.6387 45.7988 26.5871C45.5479 20.9893 43.2497 15.7625 39.2618 11.7746C35.0309 7.54378 29.4058 5.21372 23.4225 5.21372C17.9433 5.21372 12.7648 7.16833 8.68203 10.7466C8.39519 10.998 8.03847 11.1227 7.68273 11.1227C7.29422 11.1227 6.9068 10.9742 6.61235 10.6797L3.55579 7.62313L2.31113 20.4142C2.38569 20.581 2.48889 20.7355 2.62115 20.8677C2.94162 21.1882 3.38858 21.3484 3.83968 21.3046L16.0491 20.1165L14.9915 19.059C14.6825 18.7498 14.5218 18.3224 14.551 17.8863C14.5744 17.5349 14.721 17.207 14.958 16.9534C14.6719 16.6476 14.523 16.2374 14.551 15.818C14.5801 15.3818 14.7963 14.9798 15.1435 14.7141C20.4841 10.626 28.1796 11.0227 33.0626 15.9057C35.9828 18.8258 37.2978 22.7519 37.0095 26.5789C37.2638 29.9477 36.2748 33.3932 34.0427 36.1622C34.0551 36.1756 34.0666 36.1899 34.0796 36.2029Z" fill="#68CCE9"/>
<path d="M39.224 42.7872C38.8228 42.7872 38.4371 42.6281 38.1524 42.3433L34.0799 38.2709C33.5298 37.7208 33.4873 36.8426 33.9801 36.2405C38.3582 30.8907 38.0524 22.9635 33.0627 17.9736C30.4049 15.3158 26.9147 13.9875 23.4236 13.9875C20.5009 13.9875 17.5773 14.9193 15.1436 16.7822C14.7965 17.0479 14.5803 17.4499 14.5511 17.8861C14.522 18.3223 14.6826 18.7498 14.9916 19.0588L17.934 22.0012L3.83968 23.3726C3.79058 23.3774 3.7416 23.3798 3.69283 23.3798C3.29289 23.3798 2.90678 23.2214 2.62114 22.9358C2.30067 22.6154 2.14043 22.1684 2.1843 21.7173L3.55567 7.62298L6.61224 10.6795C6.90669 10.974 7.29411 11.1226 7.68262 11.1226C8.03846 11.1226 8.39518 10.9979 8.68191 10.7465C12.7647 7.16807 17.9432 5.21356 23.4224 5.21356C29.4057 5.21356 35.0309 7.54351 39.2617 11.7744C43.4929 16.0052 45.8229 21.6303 45.8229 27.6137C45.8229 33.0521 43.8979 38.1947 40.3703 42.2633C40.0946 42.5814 39.6994 42.771 39.2787 42.7863C39.2604 42.7869 39.2422 42.7872 39.224 42.7872ZM39.224 44.9644H39.2249C39.2688 44.9644 39.3126 44.9636 39.3565 44.962C40.3771 44.9252 41.346 44.4613 42.0152 43.6895C43.9441 41.4649 45.4394 38.9492 46.4595 36.2127C47.4817 33.4703 48 30.5771 48 27.6137C48 21.0488 45.4435 14.8769 40.8015 10.2349C36.1594 5.59281 29.9875 3.03644 23.4227 3.03644C20.4368 3.03644 17.5232 3.56255 14.7627 4.60027C12.2 5.56353 9.83307 6.94361 7.71832 8.70653L5.09533 6.08353C4.67994 5.66814 4.12325 5.44586 3.55556 5.44586C3.30933 5.44586 3.06114 5.48766 2.82122 5.57365C2.02832 5.85788 1.47054 6.57393 1.389 7.41223L0.0176392 21.5066C-0.089695 22.6096 0.298161 23.6917 1.08192 24.4754C1.77936 25.1728 2.70671 25.557 3.69305 25.557C3.81214 25.557 3.93253 25.5511 4.05086 25.5396L18.145 24.1682C18.9833 24.0867 19.6993 23.5288 19.9835 22.736C20.2678 21.9431 20.0691 21.0574 19.4736 20.4619L17.0834 18.0717C18.9454 16.8375 21.1688 16.1648 23.4236 16.1648C26.4874 16.1648 29.3639 17.354 31.5231 19.5133C35.7032 23.6935 36.0351 30.2919 32.295 34.8619C31.0883 36.3365 31.1936 38.464 32.5403 39.8106L36.6127 43.883C37.3102 44.5802 38.2376 44.9644 39.224 44.9644Z" fill="#164690"/>
</svg>
