<svg width="247" height="77" viewBox="0 0 247 77" fill="none" xmlns="http://www.w3.org/2000/svg">
<path d="M242.226 76.4727L3.46423 76.4727C1.53966 76.4727 1.48255e-08 74.1884 9.53066e-09 71.333C4.23585e-09 68.4776 1.53966 66.1932 3.46423 66.1932L242.226 66.1932C244.151 66.1932 245.691 68.4776 245.691 71.333C245.691 74.1884 244.151 76.4727 242.226 76.4727Z" fill="#9F8B76"/>
<path d="M69.1529 21.0235C64.4183 21.0235 60.6208 17.1767 60.6208 12.4915C60.6208 7.80628 64.4677 3.95947 69.1529 3.95947L117.485 3.95947L117.485 21.0728L69.1529 21.0728L69.1529 21.0235Z" fill="#CECECE"/>
<path d="M120.296 23.9822L69.153 23.9822C62.791 23.9822 57.6619 18.8038 57.6619 12.4911C57.6619 6.12907 62.8403 1 69.153 1L120.296 1L120.296 23.9822Z" fill="white"/>
<path d="M65.9959 9.82812L117.484 9.82812" stroke="#1F3969" stroke-width="1.97272" stroke-miterlimit="10" stroke-linecap="round" stroke-linejoin="round"/>
<path d="M65.9959 15.056L117.484 15.056" stroke="#1F3969" stroke-width="1.97272" stroke-miterlimit="10" stroke-linecap="round" stroke-linejoin="round"/>
<path d="M69.1529 21.0235C64.4183 21.0235 60.6208 17.1767 60.6208 12.4915C60.6208 7.80628 64.4677 3.95947 69.1529 3.95947L117.485 3.95947L117.485 21.0728L69.1529 21.0728L69.1529 21.0235Z" stroke="#1F3969" stroke-width="1.97272" stroke-miterlimit="10" stroke-linecap="round" stroke-linejoin="round"/>
<path d="M69.153 21.0231C64.4185 21.0231 60.621 17.1763 60.621 12.4911C60.621 7.80589 64.4678 3.95908 69.153 3.95908L118.323 3.95908L120.296 1L69.153 1C62.791 1 57.6619 6.17839 57.6619 12.4911C57.6619 18.8531 62.8403 23.9822 69.153 23.9822L120.296 23.9822L118.323 21.0231L69.153 21.0231Z" fill="#FF3E3E"/>
<path d="M69.153 21.0231C64.4185 21.0231 60.621 17.1763 60.621 12.4911C60.621 7.80589 64.4678 3.95908 69.153 3.95908L118.323 3.95908L120.296 1L69.153 1C62.791 1 57.6619 6.17839 57.6619 12.4911C57.6619 18.8531 62.8403 23.9822 69.153 23.9822L120.296 23.9822L118.323 21.0231L69.153 21.0231Z" stroke="#1F3969" stroke-width="1.97272" stroke-miterlimit="10" stroke-linecap="round" stroke-linejoin="round"/>
<path d="M126.548 46.9187L18.0996 46.9187C15.9866 46.9187 14.2162 45.2055 14.2162 43.0354L14.2162 28.7583C14.2162 26.6453 15.9295 24.875 18.0996 24.875L126.548 24.875C128.661 24.875 130.431 26.5882 130.431 28.7583L130.431 43.0354C130.431 45.2055 128.718 46.9187 126.548 46.9187Z" fill="#50B56F"/>
<path d="M126.548 46.9187L18.0996 46.9187C15.9866 46.9187 14.2162 45.2055 14.2162 43.0354L14.2162 28.7583C14.2162 26.6453 15.9295 24.875 18.0996 24.875L126.548 24.875C128.661 24.875 130.431 26.5882 130.431 28.7583L130.431 43.0354C130.431 45.2055 128.718 46.9187 126.548 46.9187Z" stroke="#1F3969" stroke-width="2.28433" stroke-miterlimit="10" stroke-linecap="round" stroke-linejoin="round"/>
<path d="M27.7056 37.3576C27.589 38.5923 27.1333 39.5568 26.3384 40.2511C25.5434 40.94 24.4862 41.2845 23.1666 41.2845C22.2445 41.2845 21.431 41.0672 20.7262 40.6326C20.0267 40.1928 19.4861 39.5701 19.1046 38.7646C18.723 37.959 18.5243 37.0237 18.5084 35.9585L18.5084 34.8774C18.5084 33.7857 18.7018 32.8239 19.0887 31.9918C19.4755 31.1598 20.0293 30.5186 20.7501 30.0681C21.4761 29.6177 22.3134 29.3924 23.262 29.3924C24.5392 29.3924 25.5673 29.7396 26.3463 30.4338C27.1253 31.128 27.5784 32.1084 27.7056 33.375L25.7024 33.375C25.607 32.543 25.3633 31.9441 24.9711 31.5785C24.5842 31.2075 24.0145 31.022 23.262 31.022C22.3876 31.022 21.7146 31.3426 21.2429 31.9839C20.7766 32.6198 20.5381 33.5552 20.5275 34.79L20.5275 35.8154C20.5275 37.0661 20.7501 38.02 21.1952 38.6771C21.6457 39.3343 22.3028 39.6628 23.1666 39.6628C23.9562 39.6628 24.5498 39.4853 24.9473 39.1302C25.3447 38.7752 25.5964 38.1843 25.7024 37.3576L27.7056 37.3576ZM33.9251 41.2845C32.7009 41.2845 31.7073 40.9003 30.9441 40.1318C30.1863 39.3581 29.8074 38.33 29.8074 37.0475L29.8074 36.8091C29.8074 35.9505 29.9717 35.1848 30.3003 34.5117C30.6341 33.8334 31.1005 33.3061 31.6993 32.9298C32.2982 32.5536 32.9659 32.3654 33.7025 32.3654C34.8737 32.3654 35.7773 32.7391 36.4132 33.4863C37.0544 34.2335 37.3751 35.2908 37.3751 36.658L37.3751 37.4371L31.755 37.4371C31.8133 38.1472 32.0491 38.7089 32.4624 39.1223C32.8811 39.5356 33.4058 39.7423 34.0364 39.7423C34.9214 39.7423 35.6421 39.3846 36.1986 38.6692L37.2399 39.6628C36.8955 40.1769 36.4344 40.577 35.8568 40.8632C35.2844 41.144 34.6405 41.2845 33.9251 41.2845ZM33.6946 33.9155C33.1646 33.9155 32.7354 34.101 32.4068 34.472C32.0835 34.843 31.8769 35.3597 31.7868 36.0221L35.4672 36.0221L35.4672 35.879C35.4249 35.2325 35.2526 34.7449 34.9505 34.4163C34.6485 34.0825 34.2298 33.9155 33.6946 33.9155ZM44.1987 34.2892C43.9443 34.2468 43.682 34.2256 43.4117 34.2256C42.5267 34.2256 41.9305 34.5647 41.6231 35.2431L41.6231 41.1255L39.6915 41.1255L39.6915 32.5244L41.5357 32.5244L41.5834 33.4863C42.0497 32.7391 42.6963 32.3654 43.523 32.3654C43.7986 32.3654 44.0264 32.4025 44.2066 32.4767L44.1987 34.2892ZM49.0509 30.4338L49.0509 32.5244L50.5692 32.5244L50.5692 33.9553L49.0509 33.9553L49.0509 38.7566C49.0509 39.0852 49.1145 39.3237 49.2417 39.4721C49.3741 39.6151 49.6073 39.6867 49.9412 39.6867C50.1638 39.6867 50.389 39.6602 50.6169 39.6072L50.6169 41.1016C50.177 41.2235 49.7531 41.2845 49.345 41.2845C47.8611 41.2845 47.1192 40.4657 47.1192 38.8282L47.1192 33.9553L45.7043 33.9553L45.7043 32.5244L47.1192 32.5244L47.1192 30.4338L49.0509 30.4338ZM54.9206 41.1255L52.9889 41.1255L52.9889 32.5244L54.9206 32.5244L54.9206 41.1255ZM52.8697 30.2907C52.8697 29.9939 52.9624 29.7475 53.1479 29.5514C53.3387 29.3553 53.609 29.2573 53.9587 29.2573C54.3085 29.2573 54.5788 29.3553 54.7695 29.5514C54.9603 29.7475 55.0557 29.9939 55.0557 30.2907C55.0557 30.5822 54.9603 30.8259 54.7695 31.022C54.5788 31.2128 54.3085 31.3082 53.9587 31.3082C53.609 31.3082 53.3387 31.2128 53.1479 31.022C52.9624 30.8259 52.8697 30.5822 52.8697 30.2907ZM58.5248 41.1255L58.5248 33.9553L57.2131 33.9553L57.2131 32.5244L58.5248 32.5244L58.5248 31.7375C58.5248 30.7836 58.7897 30.0469 59.3197 29.5276C59.8496 29.0082 60.5915 28.7486 61.5455 28.7486C61.8846 28.7486 62.245 28.7962 62.6265 28.8916L62.5789 30.402C62.3669 30.3596 62.1204 30.3384 61.8396 30.3384C60.9175 30.3384 60.4564 30.8127 60.4564 31.7613L60.4564 32.5244L62.2052 32.5244L62.2052 33.9553L60.4564 33.9553L60.4564 41.1255L58.5248 41.1255ZM66.6479 41.1255L64.7162 41.1255L64.7162 32.5244L66.6479 32.5244L66.6479 41.1255ZM64.597 30.2907C64.597 29.9939 64.6897 29.7475 64.8752 29.5514C65.066 29.3553 65.3363 29.2573 65.686 29.2573C66.0358 29.2573 66.3061 29.3553 66.4969 29.5514C66.6876 29.7475 66.783 29.9939 66.783 30.2907C66.783 30.5822 66.6876 30.8259 66.4969 31.022C66.3061 31.2128 66.0358 31.3082 65.686 31.3082C65.3363 31.3082 65.066 31.2128 64.8752 31.022C64.6897 30.8259 64.597 30.5822 64.597 30.2907ZM73.1058 39.7423C73.5881 39.7423 73.9882 39.6019 74.3062 39.321C74.6241 39.0401 74.7937 38.693 74.8149 38.2797L76.6353 38.2797C76.6141 38.8149 76.4472 39.3157 76.1345 39.7821C75.8218 40.2431 75.3979 40.6088 74.8626 40.8791C74.3274 41.1493 73.7497 41.2845 73.1297 41.2845C71.9267 41.2845 70.9728 40.895 70.268 40.1159C69.5631 39.3369 69.2107 38.2611 69.2107 36.8886L69.2107 36.6898C69.2107 35.3809 69.5605 34.3342 70.26 33.5499C70.9596 32.7603 71.9135 32.3654 73.1217 32.3654C74.1445 32.3654 74.9766 32.6649 75.6178 33.2637C76.2643 33.8573 76.6035 34.6389 76.6353 35.6087L74.8149 35.6087C74.7937 35.1159 74.6241 34.7105 74.3062 34.3925C73.9935 34.0745 73.5934 33.9155 73.1058 33.9155C72.4805 33.9155 71.9983 34.1434 71.6591 34.5992C71.3199 35.0496 71.1477 35.7359 71.1424 36.658L71.1424 36.968C71.1424 37.9008 71.3093 38.5976 71.6432 39.0587C71.9824 39.5144 72.4699 39.7423 73.1058 39.7423ZM84.0472 41.1255C83.9624 40.9612 83.8882 40.6936 83.8246 40.3226C83.2098 40.9639 82.4573 41.2845 81.567 41.2845C80.7032 41.2845 79.9984 41.038 79.4525 40.5452C78.9067 40.0523 78.6337 39.4429 78.6337 38.7169C78.6337 37.8001 78.9729 37.0979 79.6512 36.6103C80.3349 36.1175 81.31 35.8711 82.5765 35.8711L83.761 35.8711L83.761 35.3067C83.761 34.8615 83.6364 34.5064 83.3874 34.2415C83.1383 33.9712 82.7594 33.8361 82.2506 33.8361C81.8108 33.8361 81.4504 33.9473 81.1695 34.1699C80.8887 34.3872 80.7482 34.6654 80.7482 35.0046L78.8166 35.0046C78.8166 34.5329 78.9729 34.0931 79.2856 33.685C79.5982 33.2717 80.0222 32.9484 80.5574 32.7152C81.098 32.482 81.6995 32.3654 82.3619 32.3654C83.3688 32.3654 84.1717 32.6198 84.7705 33.1286C85.3694 33.632 85.6767 34.3422 85.6926 35.259L85.6926 39.1382C85.6926 39.9119 85.8013 40.5293 86.0186 40.9904L86.0186 41.1255L84.0472 41.1255ZM81.9247 39.7344C82.3063 39.7344 82.664 39.6416 82.9979 39.4562C83.337 39.2707 83.5914 39.0216 83.761 38.7089L83.761 37.0873L82.7196 37.0873C82.0042 37.0873 81.4663 37.2118 81.1059 37.4609C80.7456 37.71 80.5654 38.0624 80.5654 38.5181C80.5654 38.8891 80.6873 39.1859 80.9311 39.4085C81.1801 39.6257 81.5114 39.7344 81.9247 39.7344ZM90.9503 30.4338L90.9503 32.5244L92.4686 32.5244L92.4686 33.9553L90.9503 33.9553L90.9503 38.7566C90.9503 39.0852 91.0138 39.3237 91.141 39.4721C91.2735 39.6151 91.5067 39.6867 91.8406 39.6867C92.0631 39.6867 92.2884 39.6602 92.5163 39.6072L92.5163 41.1016C92.0764 41.2235 91.6524 41.2845 91.2444 41.2845C89.7605 41.2845 89.0186 40.4657 89.0186 38.8282L89.0186 33.9553L87.6036 33.9553L87.6036 32.5244L89.0186 32.5244L89.0186 30.4338L90.9503 30.4338ZM96.82 41.1255L94.8883 41.1255L94.8883 32.5244L96.82 32.5244L96.82 41.1255ZM94.7691 30.2907C94.7691 29.9939 94.8618 29.7475 95.0473 29.5514C95.2381 29.3553 95.5083 29.2573 95.8581 29.2573C96.2079 29.2573 96.4781 29.3553 96.6689 29.5514C96.8597 29.7475 96.9551 29.9939 96.9551 30.2907C96.9551 30.5822 96.8597 30.8259 96.6689 31.022C96.4781 31.2128 96.2079 31.3082 95.8581 31.3082C95.5083 31.3082 95.2381 31.2128 95.0473 31.022C94.8618 30.8259 94.7691 30.5822 94.7691 30.2907ZM99.3828 36.7455C99.3828 35.9029 99.5497 35.145 99.8836 34.472C100.217 33.7937 100.686 33.2743 101.291 32.9139C101.895 32.5483 102.589 32.3654 103.373 32.3654C104.534 32.3654 105.475 32.7391 106.195 33.4863C106.921 34.2335 107.313 35.2245 107.372 36.4593L107.38 36.9124C107.38 37.7603 107.215 38.5181 106.887 39.1859C106.564 39.8536 106.097 40.3703 105.488 40.736C104.884 41.1016 104.184 41.2845 103.389 41.2845C102.176 41.2845 101.203 40.8817 100.472 40.0762C99.7458 39.2654 99.3828 38.1869 99.3828 36.8409L99.3828 36.7455ZM101.314 36.9124C101.314 37.7974 101.497 38.4916 101.863 38.9951C102.229 39.4932 102.737 39.7423 103.389 39.7423C104.041 39.7423 104.547 39.4879 104.907 38.9792C105.273 38.4704 105.456 37.7259 105.456 36.7455C105.456 35.8764 105.268 35.1874 104.892 34.6787C104.521 34.1699 104.015 33.9155 103.373 33.9155C102.743 33.9155 102.242 34.1673 101.871 34.6707C101.5 35.1689 101.314 35.9161 101.314 36.9124ZM111.62 32.5244L111.675 33.5181C112.311 32.7497 113.146 32.3654 114.179 32.3654C115.971 32.3654 116.882 33.3909 116.914 35.4418L116.914 41.1255L114.982 41.1255L114.982 35.5531C114.982 35.0072 114.863 34.6045 114.625 34.3448C114.391 34.0798 114.007 33.9473 113.472 33.9473C112.693 33.9473 112.113 34.2998 111.731 35.0046L111.731 41.1255L109.799 41.1255L109.799 32.5244L111.62 32.5244ZM124.525 38.7884C124.525 38.444 124.381 38.1816 124.095 38.0014C123.814 37.8213 123.345 37.6623 122.688 37.5245C122.031 37.3867 121.483 37.2118 121.043 36.9998C120.078 36.5335 119.596 35.8578 119.596 34.9728C119.596 34.2309 119.909 33.6108 120.534 33.1127C121.159 32.6145 121.954 32.3654 122.919 32.3654C123.947 32.3654 124.776 32.6198 125.407 33.1286C126.043 33.6373 126.361 34.2971 126.361 35.1079L124.429 35.1079C124.429 34.737 124.291 34.4296 124.016 34.1858C123.74 33.9367 123.375 33.8122 122.919 33.8122C122.495 33.8122 122.148 33.9102 121.877 34.1063C121.613 34.3024 121.48 34.5647 121.48 34.8933C121.48 35.1901 121.605 35.4206 121.854 35.5849C122.103 35.7492 122.606 35.9161 123.364 36.0857C124.122 36.25 124.715 36.4487 125.145 36.6819C125.579 36.9098 125.9 37.1853 126.106 37.5086C126.318 37.8319 126.424 38.224 126.424 38.6851C126.424 39.4588 126.104 40.0868 125.463 40.569C124.821 41.046 123.981 41.2845 122.943 41.2845C122.238 41.2845 121.61 41.1573 121.059 40.9029C120.508 40.6485 120.078 40.2988 119.771 39.8536C119.464 39.4085 119.31 38.9289 119.31 38.4148L121.186 38.4148C121.212 38.8706 121.385 39.223 121.703 39.4721C122.021 39.7158 122.442 39.8377 122.967 39.8377C123.475 39.8377 123.862 39.7423 124.127 39.5515C124.392 39.3555 124.525 39.1011 124.525 38.7884Z" fill="white"/>
<path d="M157.1 51.3728L31.4625 51.3728C32.2049 53.2003 32.6046 55.4846 32.6046 57.8831C32.6046 60.2817 32.2049 62.5089 31.4625 64.3935L157.043 64.3935C156.301 62.566 155.901 60.2817 155.901 57.8831C155.958 55.4275 156.358 53.2003 157.1 51.3728Z" fill="#CECECE"/>
<path d="M160.528 47.8894L28.0939 47.8894L28.0939 51.3159L160.528 51.3159L160.528 47.8894Z" fill="#5F5AFF"/>
<path d="M160.528 47.8894L28.0939 47.8894L28.0939 51.3159L160.528 51.3159L160.528 47.8894Z" stroke="#1F3969" stroke-width="2.28433" stroke-miterlimit="10" stroke-linecap="round" stroke-linejoin="round"/>
<path d="M160.528 64.3365L28.0939 64.3365L28.0939 67.763L160.528 67.763L160.528 64.3365Z" fill="#F6F9FD"/>
<path d="M160.528 64.3365L28.0939 64.3365L28.0939 67.763L160.528 67.763L160.528 64.3365Z" fill="#5F5AFF"/>
<path d="M160.528 64.3365L28.0939 64.3365L28.0939 67.763L160.528 67.763L160.528 64.3365Z" stroke="#1F3969" stroke-width="2.28433" stroke-miterlimit="10" stroke-linecap="round" stroke-linejoin="round"/>
<path d="M32.8901 55.3135L155.958 55.3135" stroke="#1F3969" stroke-width="2.28433" stroke-miterlimit="10" stroke-linecap="round" stroke-linejoin="round"/>
<path d="M32.8901 59.8822L155.958 59.8822" stroke="#1F3969" stroke-width="2.28433" stroke-miterlimit="10" stroke-linecap="round" stroke-linejoin="round"/>
<path d="M157.1 51.3728L31.4625 51.3728C32.2049 53.2003 32.6046 55.4846 32.6046 57.8831C32.6046 60.2817 32.2049 62.5089 31.4625 64.3935L157.043 64.3935C156.301 62.566 155.901 60.2817 155.901 57.8831C155.958 55.4275 156.358 53.2003 157.1 51.3728Z" stroke="#1F3969" stroke-width="2.28433" stroke-miterlimit="10" stroke-linecap="round" stroke-linejoin="round"/>
<path d="M228.265 45.7201C233.115 45.7201 237.005 49.6606 237.005 54.46C237.005 59.2594 233.064 63.2 228.265 63.2L178.755 63.2L178.755 45.6695L228.265 45.6695L228.265 45.7201Z" fill="#CECECE"/>
<path d="M175.875 42.6887L228.264 42.6887C234.781 42.6887 240.035 47.9933 240.035 54.4598C240.035 60.9769 234.731 66.231 228.264 66.231L175.875 66.231L175.875 42.6887Z" fill="white"/>
<path d="M231.498 57.188L178.755 57.188" stroke="#1F3969" stroke-width="2.0208" stroke-miterlimit="10" stroke-linecap="round" stroke-linejoin="round"/>
<path d="M231.498 51.8329L178.755 51.8329" stroke="#1F3969" stroke-width="2.0208" stroke-miterlimit="10" stroke-linecap="round" stroke-linejoin="round"/>
<path d="M228.265 45.7201C233.115 45.7201 237.005 49.6606 237.005 54.46C237.005 59.2594 233.064 63.2 228.265 63.2L178.755 63.2L178.755 45.6695L228.265 45.6695L228.265 45.7201Z" stroke="#1F3969" stroke-width="2.0208" stroke-miterlimit="10" stroke-linecap="round" stroke-linejoin="round"/>
<path d="M228.264 45.7199C233.114 45.7199 237.004 49.6604 237.004 54.4598C237.004 59.2592 233.064 63.1998 228.264 63.1998L177.896 63.1998L175.875 66.231L228.264 66.231C234.781 66.231 240.035 60.9264 240.035 54.4598C240.035 47.9428 234.731 42.6887 228.264 42.6887L175.875 42.6887L177.896 45.7199L228.264 45.7199Z" fill="#FFEB33"/>
<path d="M228.264 45.7199C233.114 45.7199 237.004 49.6604 237.004 54.4598C237.004 59.2592 233.064 63.1998 228.264 63.1998L177.896 63.1998L175.875 66.231L228.264 66.231C234.781 66.231 240.035 60.9264 240.035 54.4598C240.035 47.9428 234.731 42.6887 228.264 42.6887L175.875 42.6887L177.896 45.7199L228.264 45.7199Z" stroke="#1F3969" stroke-width="2.0208" stroke-miterlimit="10" stroke-linecap="round" stroke-linejoin="round"/>
<path d="M242.287 41.0913L146.194 41.0913C144.322 41.0913 142.753 39.5733 142.753 37.6504L142.753 24.9999C142.753 23.1276 144.271 21.559 146.194 21.559L242.287 21.559C244.16 21.559 245.728 23.077 245.728 24.9999L245.728 37.6504C245.728 39.5733 244.21 41.0913 242.287 41.0913Z" fill="#C9B368"/>
<path d="M242.287 41.0913L146.194 41.0913C144.322 41.0913 142.753 39.5733 142.753 37.6504L142.753 24.9999C142.753 23.1276 144.271 21.559 146.194 21.559L242.287 21.559C244.16 21.559 245.728 23.077 245.728 24.9999L245.728 37.6504C245.728 39.5733 244.21 41.0913 242.287 41.0913Z" stroke="#1F3969" stroke-width="2.02408" stroke-miterlimit="10" stroke-linecap="round" stroke-linejoin="round"/>
<path d="M166.713 35.2694L166.713 24.6053L169.994 24.6053C170.931 24.6053 171.769 24.8177 172.506 25.2426C173.248 25.6625 173.827 26.2631 174.242 27.0443C174.657 27.8207 174.865 28.7045 174.865 29.6957L174.865 30.1864C174.865 31.1776 174.659 32.059 174.249 32.8304C173.844 33.6019 173.27 34.2001 172.528 34.6249C171.786 35.0497 170.949 35.2645 170.016 35.2694L166.713 35.2694ZM168.91 26.3851L168.91 33.5043L169.972 33.5043C170.831 33.5043 171.488 33.2235 171.942 32.662C172.396 32.1005 172.628 31.2972 172.638 30.2523L172.638 29.6884C172.638 28.6044 172.413 27.7841 171.964 27.2274C171.515 26.6659 170.858 26.3851 169.994 26.3851L168.91 26.3851ZM179.977 35.4159C178.815 35.4159 177.867 35.0594 177.135 34.3466C176.408 33.6337 176.044 32.684 176.044 31.4974L176.044 31.2924C176.044 30.4965 176.198 29.786 176.505 29.161C176.813 28.5311 177.247 28.0477 177.809 27.7108C178.375 27.369 179.02 27.1981 179.742 27.1981C180.826 27.1981 181.679 27.5399 182.299 28.2235C182.924 28.9071 183.236 29.8763 183.236 31.1312L183.236 31.9955L178.19 31.9955C178.258 32.5131 178.463 32.9281 178.805 33.2406C179.152 33.5531 179.589 33.7094 180.116 33.7094C180.931 33.7094 181.569 33.4139 182.028 32.8231L183.068 33.9877C182.75 34.4369 182.321 34.7885 181.779 35.0424C181.237 35.2914 180.636 35.4159 179.977 35.4159ZM179.735 28.912C179.315 28.912 178.973 29.0536 178.71 29.3368C178.451 29.62 178.285 30.0253 178.212 30.5526L181.156 30.5526L181.156 30.3842C181.146 29.9154 181.019 29.5541 180.775 29.3002C180.531 29.0414 180.184 28.912 179.735 28.912ZM184.137 31.2484C184.137 30.0326 184.425 29.0536 185.001 28.3114C185.582 27.5692 186.364 27.1981 187.345 27.1981C188.214 27.1981 188.89 27.496 189.374 28.0917L189.462 27.3446L191.381 27.3446L191.381 35.0057C191.381 35.6991 191.222 36.3021 190.905 36.8148C190.592 37.3275 190.15 37.7181 189.579 37.9867C189.008 38.2552 188.339 38.3895 187.572 38.3895C186.991 38.3895 186.425 38.2723 185.873 38.038C185.321 37.8085 184.904 37.5106 184.62 37.1444L185.558 35.8553C186.085 36.4462 186.725 36.7416 187.477 36.7416C188.038 36.7416 188.475 36.5902 188.788 36.2875C189.1 35.9896 189.257 35.5648 189.257 35.0131L189.257 34.5883C188.768 35.14 188.126 35.4159 187.33 35.4159C186.378 35.4159 185.607 35.0448 185.016 34.3026C184.43 33.5555 184.137 32.5668 184.137 31.3363L184.137 31.2484ZM186.254 31.4022C186.254 32.12 186.398 32.684 186.686 33.0941C186.974 33.4994 187.369 33.702 187.872 33.702C188.517 33.702 188.978 33.4603 189.257 32.9769L189.257 29.6444C188.973 29.161 188.517 28.9193 187.887 28.9193C187.379 28.9193 186.979 29.1268 186.686 29.5419C186.398 29.9569 186.254 30.577 186.254 31.4022ZM197.467 29.3295C197.179 29.2904 196.925 29.2709 196.705 29.2709C195.905 29.2709 195.38 29.5419 195.131 30.0839L195.131 35.2694L193.014 35.2694L193.014 27.3446L195.013 27.3446L195.072 28.2894C195.497 27.5619 196.085 27.1981 196.837 27.1981C197.072 27.1981 197.291 27.2299 197.496 27.2933L197.467 29.3295ZM201.993 35.4159C200.831 35.4159 199.884 35.0594 199.152 34.3466C198.424 33.6337 198.06 32.684 198.06 31.4974L198.06 31.2924C198.06 30.4965 198.214 29.786 198.522 29.161C198.829 28.5311 199.264 28.0477 199.826 27.7108C200.392 27.369 201.036 27.1981 201.759 27.1981C202.843 27.1981 203.695 27.5399 204.315 28.2235C204.94 28.9071 205.253 29.8763 205.253 31.1312L205.253 31.9955L200.206 31.9955C200.275 32.5131 200.48 32.9281 200.822 33.2406C201.168 33.5531 201.605 33.7094 202.133 33.7094C202.948 33.7094 203.585 33.4139 204.044 32.8231L205.084 33.9877C204.767 34.4369 204.337 34.7885 203.795 35.0424C203.253 35.2914 202.653 35.4159 201.993 35.4159ZM201.752 28.912C201.332 28.912 200.99 29.0536 200.726 29.3368C200.468 29.62 200.302 30.0253 200.228 30.5526L203.173 30.5526L203.173 30.3842C203.163 29.9154 203.036 29.5541 202.792 29.3002C202.548 29.0414 202.201 28.912 201.752 28.912ZM210.109 35.4159C208.947 35.4159 207.999 35.0594 207.267 34.3466C206.539 33.6337 206.176 32.684 206.176 31.4974L206.176 31.2924C206.176 30.4965 206.329 29.786 206.637 29.161C206.945 28.5311 207.379 28.0477 207.941 27.7108C208.507 27.369 209.152 27.1981 209.874 27.1981C210.958 27.1981 211.81 27.5399 212.43 28.2235C213.055 28.9071 213.368 29.8763 213.368 31.1312L213.368 31.9955L208.322 31.9955C208.39 32.5131 208.595 32.9281 208.937 33.2406C209.284 33.5531 209.721 33.7094 210.248 33.7094C211.063 33.7094 211.701 33.4139 212.159 32.8231L213.2 33.9877C212.882 34.4369 212.452 34.7885 211.91 35.0424C211.368 35.2914 210.768 35.4159 210.109 35.4159ZM209.867 28.912C209.447 28.912 209.105 29.0536 208.842 29.3368C208.583 29.62 208.417 30.0253 208.344 30.5526L211.288 30.5526L211.288 30.3842C211.278 29.9154 211.151 29.5541 210.907 29.3002C210.663 29.0414 210.316 28.912 209.867 28.912ZM218.868 33.0795C218.868 32.8207 218.739 32.618 218.48 32.4716C218.226 32.3202 217.816 32.1859 217.25 32.0687C215.365 31.6732 214.423 30.8724 214.423 29.6664C214.423 28.9633 214.713 28.3773 215.294 27.9086C215.88 27.4349 216.644 27.1981 217.587 27.1981C218.593 27.1981 219.396 27.4349 219.996 27.9086C220.602 28.3822 220.905 28.9974 220.905 29.7543L218.788 29.7543C218.788 29.4515 218.69 29.2025 218.495 29.0072C218.3 28.807 217.994 28.7069 217.579 28.7069C217.223 28.7069 216.947 28.7875 216.752 28.9486C216.556 29.1097 216.459 29.3148 216.459 29.5638C216.459 29.7982 216.569 29.9886 216.788 30.1351C217.013 30.2767 217.389 30.4012 217.916 30.5087C218.444 30.6112 218.888 30.7284 219.249 30.8602C220.367 31.2704 220.927 31.9808 220.927 32.9916C220.927 33.7142 220.617 34.3002 219.996 34.7494C219.376 35.1937 218.576 35.4159 217.594 35.4159C216.93 35.4159 216.339 35.2987 215.822 35.0643C215.309 34.8251 214.906 34.5004 214.613 34.0902C214.32 33.6752 214.174 33.2284 214.174 32.7499L216.18 32.7499C216.2 33.1259 216.339 33.4139 216.598 33.6141C216.857 33.8143 217.203 33.9144 217.638 33.9144C218.043 33.9144 218.348 33.8387 218.554 33.6874C218.763 33.5311 218.868 33.3285 218.868 33.0795Z" fill="#1F3969"/>
</svg>
