<svg width="620" height="434" viewBox="0 0 620 434" fill="none" xmlns="http://www.w3.org/2000/svg">
<path d="M615 15.4945L615 15.5134V15.5324V425H5.00044V15.5324V15.5149L5.00031 15.4974C4.99008 14.0371 5.2307 12.6011 5.69675 11.277C6.16279 9.95295 6.83685 8.78922 7.65123 7.83815C8.46455 6.88832 9.39398 6.17731 10.3639 5.70646C11.3265 5.2392 12.3279 5.00809 13.318 5H606.684C607.674 5.00707 608.676 5.23751 609.639 5.70451C610.609 6.17481 611.538 6.88544 612.351 7.83513C613.166 8.78611 613.84 9.94986 614.305 11.274C614.771 12.5981 615.011 14.0342 615 15.4945Z" stroke="#3F3D56" stroke-width="10"/>
<path d="M0 410V428.242C0 429.769 1.40126 431.234 3.89551 432.314C6.38976 433.393 9.77269 434 13.3001 434H606.7C610.227 434 613.61 433.393 616.105 432.314C618.599 431.234 620 429.769 620 428.242V410H0Z" fill="#3F3D56"/>
<path fill-rule="evenodd" clip-rule="evenodd" d="M313.45 422.147C313.45 422.147 312.857 421.78 312.49 421.638C312.49 421.638 311.354 421.112 311.128 420.861C311.128 420.861 310.686 420.444 310.945 419.96C310.945 419.96 311.053 419.643 311.521 419.643C311.521 419.643 312.13 419.676 312.13 420.177V420.883H314.313L314.309 419.843C314.309 419.843 314.477 418.14 311.738 418.065C311.738 418.065 309.584 417.923 308.966 419.083C308.966 419.083 308.724 419.342 308.724 420.244V420.895C308.724 420.895 308.699 421.646 309.083 422.131C309.083 422.131 309.3 422.448 309.834 422.798C309.834 422.798 310.919 423.383 311.571 423.717C311.571 423.717 312.228 424.093 312.142 424.69C312.142 424.69 312.088 425.303 311.453 425.278C311.453 425.278 310.873 425.252 310.873 424.651V423.945H308.547V424.97C308.547 424.97 308.482 426.931 311.47 426.931C311.47 426.931 314.326 426.989 314.459 424.919V424.084C314.459 424.084 314.56 422.815 313.45 422.147ZM302.275 418.309L301.544 422.889H301.373L300.675 418.35H297.029L296.846 426.644H299.005L299.031 420.395H299.201L300.345 426.643H302.616L303.746 420.397H303.897L303.949 426.644H306.119L305.885 418.309H302.275ZM289.424 418.343L287.988 426.635H290.312L291.162 420.206H291.354L292.204 426.635H294.528L293.092 418.343H289.424ZM338.19 422.033V423.256H338.786V424.569C338.786 425.211 338.237 425.223 338.237 425.223C337.57 425.223 337.596 424.613 337.596 424.613V420.072C337.596 419.604 338.188 419.579 338.188 419.579C338.756 419.579 338.759 420.137 338.759 420.137V420.827H340.947C341.019 419.479 340.75 419.153 340.75 419.153C340.207 417.934 338.154 418.001 338.154 418.001C334.999 418.001 335.349 420.422 335.349 420.422V424.813C335.417 427.084 338.526 426.853 338.578 426.851C339.962 426.698 340.379 426.258 340.379 426.258C340.764 425.973 340.863 425.577 340.863 425.577C340.973 425.347 341 424.613 341 424.613V422.033H338.19ZM330.937 423.383H330.842L328.621 418.311H325.964V426.645H328.127L327.997 421.574H328.094L330.394 426.645H332.97V418.31H330.781L330.937 423.383ZM320.686 424.569C320.686 424.569 320.717 425.253 320.083 425.253C320.083 425.253 319.416 425.288 319.416 424.586L319.409 418.316H317.038V424.536C317.038 424.536 316.794 426.89 320.117 426.89C320.117 426.89 323.004 426.924 323.004 424.644V418.316H320.686V424.569ZM284.903 422.147C284.903 422.147 284.31 421.78 283.942 421.639C283.942 421.639 282.807 421.113 282.582 420.862C282.582 420.862 282.139 420.444 282.399 419.96C282.399 419.96 282.507 419.643 282.974 419.643C282.974 419.643 283.584 419.676 283.584 420.177V420.883H285.767L285.763 419.843C285.763 419.843 285.93 418.14 283.192 418.065C283.192 418.065 282.986 418.052 282.683 418.067C282.683 418.067 281.025 418.156 280.431 419.066C280.428 419.073 280.423 419.078 280.42 419.084C280.42 419.084 280.178 419.342 280.178 420.244V420.895C280.178 420.895 280.152 421.647 280.536 422.131C280.536 422.131 280.753 422.449 281.288 422.799C281.288 422.799 282.373 423.383 283.024 423.718C283.024 423.718 283.682 424.092 283.595 424.69C283.595 424.69 283.542 425.304 282.907 425.279C282.907 425.279 282.326 425.253 282.326 424.651V423.945H280V424.971C280 424.971 279.935 426.931 282.924 426.931C282.924 426.931 285.779 426.989 285.913 424.92V424.085C285.913 424.085 286.013 422.815 284.903 422.147Z" fill="#D0D2D5"/>
</svg>
