<svg viewBox="0 0 29 30" fill="none" xmlns="http://www.w3.org/2000/svg">
<mask id="path-1-outside-1" maskUnits="userSpaceOnUse" x="0.462891" y="0.450195" width="24" height="29" fill="black">
<rect fill="white" x="0.462891" y="0.450195" width="24" height="29"/>
<path d="M23.4966 23.3927L19.11 26.4866L16.4733 28.3394C15.9886 28.6788 15.3206 28.5617 14.9799 28.0779L14.0279 26.734C13.8607 26.4902 13.5977 26.329 13.3046 26.2907C10.8593 25.9588 9.20733 23.6115 9.20733 23.6115L1.78777 13.0788C1.27166 12.3766 1.38125 11.3959 2.03985 10.8248C2.38699 10.5463 2.83389 10.4232 3.27459 10.4852C3.71551 10.5469 4.11135 10.7881 4.36834 11.1515L3.90179 10.4888L2.46902 8.45427L1.9465 7.71684C1.54232 7.14198 1.55749 6.37123 1.98431 5.81282C2.08599 5.68315 2.20519 5.56865 2.33892 5.47209C2.68713 5.22621 3.11907 5.12901 3.53906 5.20164C3.95925 5.27427 4.33331 5.51097 4.57897 5.8596L3.3468 4.1049C3.005 3.63493 2.94283 3.01735 3.18423 2.48884C3.42584 1.96034 3.9334 1.60295 4.51254 1.55381C5.09146 1.50489 5.652 1.77171 5.97885 2.25215L7.21551 4.00685C6.8735 3.53709 6.81133 2.91929 7.05294 2.39079C7.29434 1.86229 7.80212 1.50489 8.38104 1.45597C8.96017 1.40684 9.52072 1.67366 9.84756 2.15409L11.7982 4.92607L15.7181 10.4892C16.105 11.0632 16.5807 11.5721 17.1276 11.9966C17.4073 12.2044 17.7706 12.2636 18.102 12.1551C18.4331 12.0466 18.6911 11.7838 18.7935 11.4505V11.4461C18.7655 10.5687 18.607 9.81269 18.5882 9.12654C18.5373 7.19004 18.3226 5.20655 19.2 4.58598C20.0773 3.9654 21.1741 5.08992 21.314 6.60194C21.533 8.93534 22.5782 10.9092 23.2503 13.7186C23.6797 15.5386 23.3763 17.8721 23.1101 19.2952C22.9512 20.1474 23.143 21.0275 23.6423 21.7361L23.7542 21.8993C23.9196 22.1311 23.9853 22.4192 23.9371 22.6997C23.8886 22.9802 23.7301 23.2297 23.4966 23.3927V23.3927Z"/>
</mask>
<path d="M23.4966 23.3927L19.11 26.4866L16.4733 28.3394C15.9886 28.6788 15.3206 28.5617 14.9799 28.0779L14.0279 26.734C13.8607 26.4902 13.5977 26.329 13.3046 26.2907C10.8593 25.9588 9.20733 23.6115 9.20733 23.6115L1.78777 13.0788C1.27166 12.3766 1.38125 11.3959 2.03985 10.8248C2.38699 10.5463 2.83389 10.4232 3.27459 10.4852C3.71551 10.5469 4.11135 10.7881 4.36834 11.1515L3.90179 10.4888L2.46902 8.45427L1.9465 7.71684C1.54232 7.14198 1.55749 6.37123 1.98431 5.81282C2.08599 5.68315 2.20519 5.56865 2.33892 5.47209C2.68713 5.22621 3.11907 5.12901 3.53906 5.20164C3.95925 5.27427 4.33331 5.51097 4.57897 5.8596L3.3468 4.1049C3.005 3.63493 2.94283 3.01735 3.18423 2.48884C3.42584 1.96034 3.9334 1.60295 4.51254 1.55381C5.09146 1.50489 5.652 1.77171 5.97885 2.25215L7.21551 4.00685C6.8735 3.53709 6.81133 2.91929 7.05294 2.39079C7.29434 1.86229 7.80212 1.50489 8.38104 1.45597C8.96017 1.40684 9.52072 1.67366 9.84756 2.15409L11.7982 4.92607L15.7181 10.4892C16.105 11.0632 16.5807 11.5721 17.1276 11.9966C17.4073 12.2044 17.7706 12.2636 18.102 12.1551C18.4331 12.0466 18.6911 11.7838 18.7935 11.4505V11.4461C18.7655 10.5687 18.607 9.81269 18.5882 9.12654C18.5373 7.19004 18.3226 5.20655 19.2 4.58598C20.0773 3.9654 21.1741 5.08992 21.314 6.60194C21.533 8.93534 22.5782 10.9092 23.2503 13.7186C23.6797 15.5386 23.3763 17.8721 23.1101 19.2952C22.9512 20.1474 23.143 21.0275 23.6423 21.7361L23.7542 21.8993C23.9196 22.1311 23.9853 22.4192 23.9371 22.6997C23.8886 22.9802 23.7301 23.2297 23.4966 23.3927V23.3927Z" fill="#FDD7AD"/>
<path d="M23.4966 23.3927L19.11 26.4866L16.4733 28.3394C15.9886 28.6788 15.3206 28.5617 14.9799 28.0779L14.0279 26.734C13.8607 26.4902 13.5977 26.329 13.3046 26.2907C10.8593 25.9588 9.20733 23.6115 9.20733 23.6115L1.78777 13.0788C1.27166 12.3766 1.38125 11.3959 2.03985 10.8248C2.38699 10.5463 2.83389 10.4232 3.27459 10.4852C3.71551 10.5469 4.11135 10.7881 4.36834 11.1515L3.90179 10.4888L2.46902 8.45427L1.9465 7.71684C1.54232 7.14198 1.55749 6.37123 1.98431 5.81282C2.08599 5.68315 2.20519 5.56865 2.33892 5.47209C2.68713 5.22621 3.11907 5.12901 3.53906 5.20164C3.95925 5.27427 4.33331 5.51097 4.57897 5.8596L3.3468 4.1049C3.005 3.63493 2.94283 3.01735 3.18423 2.48884C3.42584 1.96034 3.9334 1.60295 4.51254 1.55381C5.09146 1.50489 5.652 1.77171 5.97885 2.25215L7.21551 4.00685C6.8735 3.53709 6.81133 2.91929 7.05294 2.39079C7.29434 1.86229 7.80212 1.50489 8.38104 1.45597C8.96017 1.40684 9.52072 1.67366 9.84756 2.15409L11.7982 4.92607L15.7181 10.4892C16.105 11.0632 16.5807 11.5721 17.1276 11.9966C17.4073 12.2044 17.7706 12.2636 18.102 12.1551C18.4331 12.0466 18.6911 11.7838 18.7935 11.4505V11.4461C18.7655 10.5687 18.607 9.81269 18.5882 9.12654C18.5373 7.19004 18.3226 5.20655 19.2 4.58598C20.0773 3.9654 21.1741 5.08992 21.314 6.60194C21.533 8.93534 22.5782 10.9092 23.2503 13.7186C23.6797 15.5386 23.3763 17.8721 23.1101 19.2952C22.9512 20.1474 23.143 21.0275 23.6423 21.7361L23.7542 21.8993C23.9196 22.1311 23.9853 22.4192 23.9371 22.6997C23.8886 22.9802 23.7301 23.2297 23.4966 23.3927V23.3927Z" stroke="#B2824D" mask="url(#path-1-outside-1)"/>
<path d="M18.1767 16.8766C18.1297 16.9097 18.0772 16.9338 18.0212 16.9475C17.7713 17.0101 17.5179 16.8582 17.4553 16.6082C17.2084 15.638 17.3353 14.6102 17.8104 13.729C17.9635 13.4383 18.3423 12.7741 18.4282 12.609C18.6347 12.0636 18.7473 11.4873 18.7614 10.9043C18.9872 11.4018 19.125 11.9346 19.1692 12.4791C19.0786 13.0672 18.8979 13.638 18.633 14.1708C18.2679 14.8482 18.1707 15.638 18.3607 16.3837C18.4066 16.5702 18.3335 16.7659 18.1767 16.8766Z" fill="#CF9F6A"/>
<path d="M10.6125 21.8797C10.5113 21.9521 10.385 21.9807 10.2624 21.9595C10.1398 21.9382 10.0306 21.869 9.95926 21.7669L8.1048 19.134C8.00867 18.9977 7.99265 18.8204 8.06271 18.6691C8.13278 18.5179 8.27805 18.4153 8.44425 18.4004C8.61023 18.3852 8.77173 18.46 8.86765 18.5963L10.7223 21.2292C10.8714 21.4392 10.8225 21.7303 10.6125 21.8797Z" fill="#FEE7CE"/>
<path d="M12.9052 24.2033C12.8039 24.2744 12.6787 24.3024 12.5569 24.2813C12.0235 24.2112 11.5373 23.9395 11.1981 23.5221C11.0648 23.3127 11.1186 23.0359 11.3205 22.8917C11.5222 22.7475 11.8016 22.7863 11.9565 22.9803C12.1566 23.1937 12.4256 23.3296 12.7161 23.3642C12.9013 23.3971 13.0489 23.5379 13.0901 23.7214C13.1314 23.9049 13.0585 24.0954 12.9052 24.2044V24.2033ZM11.9611 22.9848L11.9663 22.9803L11.9611 22.9848Z" fill="#FEE7CE"/>
<path d="M21.652 22.6377L21.2134 22.9469C21.0036 23.0759 20.7297 23.0199 20.5875 22.8187C20.4454 22.6177 20.4841 22.3406 20.6757 22.1861L21.1145 21.8772C21.3251 21.7288 21.6163 21.7792 21.7647 21.9898C21.9132 22.2007 21.8626 22.4916 21.652 22.6401V22.6377Z" fill="#FEE7CE"/>
<path d="M19.458 24.184L16.3859 26.348C16.1753 26.4965 15.8841 26.4461 15.7356 26.2355C15.5872 26.0246 15.6376 25.7334 15.8482 25.585L18.9203 23.4212C19.131 23.2727 19.4221 23.3231 19.5706 23.5338C19.7191 23.7446 19.6687 24.0356 19.458 24.184Z" fill="#FEE7CE"/>
<path d="M7.51416 15.6137C7.61008 15.7502 7.6261 15.9273 7.55603 16.0786C7.48618 16.23 7.3407 16.3323 7.17471 16.3475C7.00851 16.3625 6.84702 16.2877 6.7511 16.1514L3.60294 11.6901C3.35684 11.3412 2.98236 11.1041 2.56174 11.0306C2.30368 10.9864 2.03857 11.0048 1.78906 11.0843C1.86127 10.9875 1.94522 10.8997 2.03879 10.823C2.24857 10.6553 2.49744 10.5429 2.76212 10.4964C2.94797 10.4618 3.13852 10.4609 3.3248 10.4936C3.74564 10.5671 4.1199 10.8042 4.366 11.1535L7.51416 15.6137Z" fill="#CF9F6A"/>
<path d="M4.57678 5.85992L9.83341 13.3224C9.93488 13.4585 9.95453 13.6388 9.88467 13.7935C9.81482 13.9483 9.66657 14.0528 9.49738 14.0667C9.32819 14.0803 9.16498 14.0013 9.07077 13.8599L3.81393 6.3974C3.56891 6.04642 3.19293 5.80887 2.77081 5.73816C2.50977 5.69415 2.24167 5.71423 1.99023 5.7969C2.09213 5.67407 2.20898 5.56448 2.3378 5.47027C2.68579 5.22546 3.11624 5.12826 3.5358 5.19961C3.95728 5.27096 4.33261 5.50894 4.57678 5.85992Z" fill="#CF9F6A"/>
<path d="M5.97977 2.25159L7.216 4.00672L9.16425 6.77912L12.4711 11.4656C12.567 11.6019 12.5831 11.779 12.5132 11.9302C12.4431 12.0817 12.2977 12.184 12.1317 12.1992C11.9657 12.2141 11.8042 12.1393 11.7081 12.0031L8.3999 7.31681L6.45294 4.54612L5.21671 2.78928C4.80719 2.20929 4.06741 1.96427 3.39258 2.18494C3.48892 2.05933 3.60406 1.9491 3.73373 1.85831C4.46326 1.34946 5.46664 1.52527 5.97977 2.25159Z" fill="#CF9F6A"/>
<path d="M17.9385 12.1929C17.7892 12.4638 17.5301 12.6569 17.2276 12.7221C16.9253 12.7872 16.6096 12.7182 16.362 12.5326C15.8159 12.1073 15.3402 11.5987 14.9523 11.0253L9.08255 2.69292C8.67795 2.11315 7.94266 1.86492 7.26953 2.08068C7.3631 1.95699 7.47568 1.84868 7.60321 1.76024C7.95227 1.51457 8.38486 1.41802 8.80527 1.49214C9.22568 1.56648 9.5993 1.8051 9.84305 2.15544L15.7143 10.4882C16.1024 11.0612 16.5782 11.5696 17.1242 11.9951C17.3589 12.1654 17.6516 12.2365 17.9385 12.1929Z" fill="#CF9F6A"/>
<path d="M7.53323 29C3.92664 28.9962 1.00385 26.0734 1 22.4668C1 22.2089 1.20892 22 1.46677 22C1.7244 22 1.93332 22.2089 1.93332 22.4668C1.93674 25.5581 4.44189 28.0633 7.53323 28.0667C7.79108 28.0667 8 28.2756 8 28.5332C8 28.7911 7.79108 29 7.53323 29Z" fill="#68CCE9"/>
<path d="M7.9986 27.1333C5.16489 27.1299 2.86865 24.8337 2.86523 22C2.86523 21.7423 3.07416 21.5332 3.332 21.5332C3.58963 21.5332 3.79855 21.7423 3.79855 22C3.80112 24.3184 5.68015 26.1974 7.9986 26.2C8.25623 26.2 8.46536 26.4089 8.46536 26.6666C8.46536 26.9244 8.25623 27.1333 7.9986 27.1333V27.1333Z" fill="#68CCE9"/>
<path d="M28.5332 8C28.2756 8 28.0667 7.79108 28.0667 7.53323C28.0633 4.44189 25.5581 1.93674 22.4668 1.93332C22.2089 1.93332 22 1.7244 22 1.46677C22 1.20892 22.2089 1 22.4668 1C26.0734 1.00385 28.9962 3.92664 29 7.53323C29 7.79108 28.7911 8 28.5332 8V8Z" fill="#68CCE9"/>
<path d="M26.6666 8.46634C26.4089 8.46634 26.2 8.2572 26.2 7.99957C26.1974 5.68112 24.3184 3.80209 22 3.79953C21.7423 3.79953 21.5332 3.59061 21.5332 3.33298C21.5332 3.07513 21.7423 2.86621 22 2.86621C24.8337 2.86963 27.1299 5.16586 27.1333 7.99957C27.1333 8.2572 26.9244 8.46634 26.6666 8.46634Z" fill="#68CCE9"/>
</svg>
