<svg width="320" height="90" viewBox="0 0 320 90" fill="none" xmlns="http://www.w3.org/2000/svg">
<g clip-path="url(#clip0)">
<mask id="path-1-outside-1" maskUnits="userSpaceOnUse" x="-1" y="39" width="323" height="52" fill="black">
<rect fill="white" x="-1" y="39" width="323" height="52"/>
<path d="M320.001 87.7806C320.001 87.2111 319.783 86.6415 319.348 86.2046L279.063 45.9149C278.202 45.0467 276.777 45.0467 275.916 45.9149L238.806 83.0273L200.067 44.2897C199.206 43.427 197.789 43.427 196.92 44.2897L159.965 81.2559L121.041 42.3316C120.171 41.4642 118.76 41.4642 117.894 42.3316L80.7822 79.4392L42.0454 40.7017C41.178 39.835 39.7649 39.835 38.8983 40.7017L0.652352 78.9491C-0.217451 79.8166 -0.217451 81.2297 0.652352 82.0955C1.51818 82.9629 2.92973 82.9629 3.79873 82.0955L40.4695 45.4232L79.1824 84.1386C80.0514 85.0044 81.4622 85.0044 82.3288 84.1386C82.3923 84.075 82.4138 83.9996 82.4638 83.9344C82.5703 83.8582 82.6902 83.8129 82.7832 83.7191L119.459 47.0476L158.172 85.7614C158.724 86.3143 159.485 86.4747 160.194 86.3294C160.78 86.3421 161.371 86.1308 161.815 85.6875L198.5 49.0152L237.203 87.7306C238.074 88.5924 239.49 88.5924 240.351 87.7306C240.42 87.667 240.441 87.5955 240.481 87.5288C240.585 87.4541 240.707 87.4136 240.803 87.312L277.47 50.6404L316.177 89.3494C317.047 90.2169 318.468 90.2169 319.324 89.3494C319.79 88.9261 320.001 88.3502 320.001 87.7806Z"/>
</mask>
<path d="M320.001 87.7806C320.001 87.2111 319.783 86.6415 319.348 86.2046L279.063 45.9149C278.202 45.0467 276.777 45.0467 275.916 45.9149L238.806 83.0273L200.067 44.2897C199.206 43.427 197.789 43.427 196.92 44.2897L159.965 81.2559L121.041 42.3316C120.171 41.4642 118.76 41.4642 117.894 42.3316L80.7822 79.4392L42.0454 40.7017C41.178 39.835 39.7649 39.835 38.8983 40.7017L0.652352 78.9491C-0.217451 79.8166 -0.217451 81.2297 0.652352 82.0955C1.51818 82.9629 2.92973 82.9629 3.79873 82.0955L40.4695 45.4232L79.1824 84.1386C80.0514 85.0044 81.4622 85.0044 82.3288 84.1386C82.3923 84.075 82.4138 83.9996 82.4638 83.9344C82.5703 83.8582 82.6902 83.8129 82.7832 83.7191L119.459 47.0476L158.172 85.7614C158.724 86.3143 159.485 86.4747 160.194 86.3294C160.78 86.3421 161.371 86.1308 161.815 85.6875L198.5 49.0152L237.203 87.7306C238.074 88.5924 239.49 88.5924 240.351 87.7306C240.42 87.667 240.441 87.5955 240.481 87.5288C240.585 87.4541 240.707 87.4136 240.803 87.312L277.47 50.6404L316.177 89.3494C317.047 90.2169 318.468 90.2169 319.324 89.3494C319.79 88.9261 320.001 88.3502 320.001 87.7806Z" fill="white"/>
<path d="M320.001 87.7806C320.001 87.2111 319.783 86.6415 319.348 86.2046L279.063 45.9149C278.202 45.0467 276.777 45.0467 275.916 45.9149L238.806 83.0273L200.067 44.2897C199.206 43.427 197.789 43.427 196.92 44.2897L159.965 81.2559L121.041 42.3316C120.171 41.4642 118.76 41.4642 117.894 42.3316L80.7822 79.4392L42.0454 40.7017C41.178 39.835 39.7649 39.835 38.8983 40.7017L0.652352 78.9491C-0.217451 79.8166 -0.217451 81.2297 0.652352 82.0955C1.51818 82.9629 2.92973 82.9629 3.79873 82.0955L40.4695 45.4232L79.1824 84.1386C80.0514 85.0044 81.4622 85.0044 82.3288 84.1386C82.3923 84.075 82.4138 83.9996 82.4638 83.9344C82.5703 83.8582 82.6902 83.8129 82.7832 83.7191L119.459 47.0476L158.172 85.7614C158.724 86.3143 159.485 86.4747 160.194 86.3294C160.78 86.3421 161.371 86.1308 161.815 85.6875L198.5 49.0152L237.203 87.7306C238.074 88.5924 239.49 88.5924 240.351 87.7306C240.42 87.667 240.441 87.5955 240.481 87.5288C240.585 87.4541 240.707 87.4136 240.803 87.312L277.47 50.6404L316.177 89.3494C317.047 90.2169 318.468 90.2169 319.324 89.3494C319.79 88.9261 320.001 88.3502 320.001 87.7806Z" stroke="white" stroke-width="2" mask="url(#path-1-outside-1)"/>
<mask id="path-2-outside-2" maskUnits="userSpaceOnUse" x="-0.990234" y="-0.94873" width="322" height="52" fill="black">
<rect fill="white" x="-0.990234" y="-0.94873" width="322" height="52"/>
<path d="M320.001 47.8293C320.001 47.2598 319.783 46.691 319.348 46.2549L279.063 5.96758C278.202 5.1073 276.777 5.1073 275.916 5.96758L238.806 43.0728L200.067 4.33202C199.206 3.47572 197.79 3.47572 196.921 4.33202L159.966 41.3014L121.041 2.37318C120.172 1.50893 118.761 1.50893 117.894 2.37318L80.7874 39.4808L42.0498 0.7416C41.1832 -0.126614 39.7701 -0.126614 38.9034 0.7416L0.661522 38.9915C-0.207486 39.8573 -0.207486 41.2752 0.661522 42.1378C1.52815 43.0045 2.9389 43.0045 3.8079 42.1378L40.4786 5.46714L79.1924 44.1761C80.0614 45.0436 81.4721 45.0436 82.3388 44.1761C82.3975 44.1174 82.419 44.0482 82.469 43.9807C82.5755 43.9045 82.6994 43.8647 82.7931 43.7631L119.47 7.08759L158.183 45.7998C158.731 46.3471 159.488 46.5083 160.196 46.3661C160.782 46.3804 161.383 46.1747 161.832 45.7259L198.513 9.04008L237.214 47.7769C238.076 48.6387 239.501 48.6387 240.362 47.7769C240.422 47.7133 240.453 47.6418 240.483 47.5799C240.587 47.4997 240.717 47.4591 240.805 47.3575L277.483 10.6875L316.189 49.3989C317.058 50.2687 318.47 50.2687 319.335 49.3989C319.79 48.9755 320.001 48.406 320.001 47.8293Z"/>
</mask>
<path d="M320.001 47.8293C320.001 47.2598 319.783 46.691 319.348 46.2549L279.063 5.96758C278.202 5.1073 276.777 5.1073 275.916 5.96758L238.806 43.0728L200.067 4.33202C199.206 3.47572 197.79 3.47572 196.921 4.33202L159.966 41.3014L121.041 2.37318C120.172 1.50893 118.761 1.50893 117.894 2.37318L80.7874 39.4808L42.0498 0.7416C41.1832 -0.126614 39.7701 -0.126614 38.9034 0.7416L0.661522 38.9915C-0.207486 39.8573 -0.207486 41.2752 0.661522 42.1378C1.52815 43.0045 2.9389 43.0045 3.8079 42.1378L40.4786 5.46714L79.1924 44.1761C80.0614 45.0436 81.4721 45.0436 82.3388 44.1761C82.3975 44.1174 82.419 44.0482 82.469 43.9807C82.5755 43.9045 82.6994 43.8647 82.7931 43.7631L119.47 7.08759L158.183 45.7998C158.731 46.3471 159.488 46.5083 160.196 46.3661C160.782 46.3804 161.383 46.1747 161.832 45.7259L198.513 9.04008L237.214 47.7769C238.076 48.6387 239.501 48.6387 240.362 47.7769C240.422 47.7133 240.453 47.6418 240.483 47.5799C240.587 47.4997 240.717 47.4591 240.805 47.3575L277.483 10.6875L316.189 49.3989C317.058 50.2687 318.47 50.2687 319.335 49.3989C319.79 48.9755 320.001 48.406 320.001 47.8293Z" fill="white"/>
<path d="M320.001 47.8293C320.001 47.2598 319.783 46.691 319.348 46.2549L279.063 5.96758C278.202 5.1073 276.777 5.1073 275.916 5.96758L238.806 43.0728L200.067 4.33202C199.206 3.47572 197.79 3.47572 196.921 4.33202L159.966 41.3014L121.041 2.37318C120.172 1.50893 118.761 1.50893 117.894 2.37318L80.7874 39.4808L42.0498 0.7416C41.1832 -0.126614 39.7701 -0.126614 38.9034 0.7416L0.661522 38.9915C-0.207486 39.8573 -0.207486 41.2752 0.661522 42.1378C1.52815 43.0045 2.9389 43.0045 3.8079 42.1378L40.4786 5.46714L79.1924 44.1761C80.0614 45.0436 81.4721 45.0436 82.3388 44.1761C82.3975 44.1174 82.419 44.0482 82.469 43.9807C82.5755 43.9045 82.6994 43.8647 82.7931 43.7631L119.47 7.08759L158.183 45.7998C158.731 46.3471 159.488 46.5083 160.196 46.3661C160.782 46.3804 161.383 46.1747 161.832 45.7259L198.513 9.04008L237.214 47.7769C238.076 48.6387 239.501 48.6387 240.362 47.7769C240.422 47.7133 240.453 47.6418 240.483 47.5799C240.587 47.4997 240.717 47.4591 240.805 47.3575L277.483 10.6875L316.189 49.3989C317.058 50.2687 318.47 50.2687 319.335 49.3989C319.79 48.9755 320.001 48.406 320.001 47.8293Z" stroke="white" stroke-width="2" mask="url(#path-2-outside-2)"/>
</g>
<defs>
<clipPath id="clip0">
<rect width="89.9096" height="320.001" fill="white" transform="translate(0 90) rotate(-90)"/>
</clipPath>
</defs>
</svg>
