<svg width="200" height="200" viewBox="0 0 200 200" fill="none" xmlns="http://www.w3.org/2000/svg">
<path fill-rule="evenodd" clip-rule="evenodd" d="M177.639 77.0005C169.877 77.0005 165.492 78.4991 162.975 82.0111C160.344 85.6793 159.815 91.4695 159.815 99.6246C159.815 115.634 162.292 122.326 177.639 122.326C179.483 122.326 185.784 122.291 189.462 121.842C190.893 121.604 191.534 120.508 191.534 119.528V117.759C191.534 116.384 190.495 115.345 189.115 115.345H177.639C168.98 115.345 167.418 113.304 167.196 101.7V97.9436C167.27 86.0688 168.832 83.9808 177.639 83.9808C185.761 83.9808 187.319 85.8338 187.589 96.2881H174.683V103.346H191.657C195 103.346 195 101.008 195 100.24V97.9866C194.758 81.7076 190.863 77.0005 177.639 77.0005V77.0005ZM155.289 77.6227L155.105 77.574C153.524 77.2417 149.204 77.0005 147.062 77.0005C139.483 77.0005 135.477 80.1739 135.477 86.1775V119.604C135.477 120.98 136.44 121.941 137.82 121.941H140.516C141.896 121.941 142.859 120.98 142.859 119.604V86.7912C142.859 85.3096 143.233 83.9808 147.756 83.9808L154.453 83.9751C155.108 84.0532 155.734 83.8721 156.216 83.4639C156.742 83.0206 157.031 82.3734 157.031 81.6436V79.9525C157.031 78.8428 156.396 77.9935 155.289 77.6227V77.6227ZM122.92 77.5389H120.224C118.845 77.5389 117.882 78.4997 117.882 79.8761V115.346H106.669C99.7336 115.346 96.9198 114.905 96.9198 103.851V79.8761C96.9198 78.5003 95.9562 77.5389 94.577 77.5389H91.9573C90.5781 77.5389 89.5381 78.5433 89.5381 79.8761V103.851C89.5381 119.561 95.236 122.326 107.208 122.326C111.515 122.326 117.413 122.326 123.038 121.534L123.168 121.508C124.558 121.16 125.263 120.365 125.263 119.143V79.8761C125.263 78.5003 124.299 77.5389 122.92 77.5389" fill="#272727"/>
<path fill-rule="evenodd" clip-rule="evenodd" d="M81.2217 78.6367C80.8758 77.9007 80.1335 77.4619 79.2367 77.4619H75.7712C74.7645 77.4619 74.0121 77.8673 73.6158 78.5971L68.4795 86.1016L72.976 92.2508L80.8265 80.9897C81.6882 79.9429 81.3898 78.9951 81.2217 78.6367" fill="#74BB11"/>
<path fill-rule="evenodd" clip-rule="evenodd" d="M54.144 78.5117L54.1395 78.5049C53.3565 77.4614 52.3147 77.4614 51.9722 77.4614H48.5825C47.714 77.4614 47.0029 77.8606 46.6315 78.5553C46.2494 79.2669 46.3303 80.1219 46.8591 80.9139L59.4162 98.3213L44.9766 118.461C44.4722 119.219 44.4014 120.06 44.7824 120.772C45.1561 121.466 45.8678 121.864 46.7346 121.864H50.1995C51.0907 121.864 51.8742 121.402 52.266 120.673L68.4284 98.4017L54.144 78.5117Z" fill="#009CD9"/>
<path fill-rule="evenodd" clip-rule="evenodd" d="M82.9453 118.637L72.8709 104.812L68.4395 110.92L76.4066 121.554L76.6138 121.644C76.9299 121.786 77.2722 121.861 77.6188 121.864H81.0073C81.826 121.864 82.5207 121.501 82.9141 120.865C83.3173 120.214 83.3286 119.403 82.9453 118.637" fill="#EB2084"/>
<path fill-rule="evenodd" clip-rule="evenodd" d="M31.649 103.038V114.779C28.218 115.306 22.9883 115.422 21.206 115.422C13.3215 115.422 12.4576 113.268 12.4576 108.693C12.4576 104.412 14.0598 103.038 19.0495 103.038L31.649 103.038ZM20.821 77C18.3848 77 15.0625 77.0634 10.9289 77.5605L10.7421 77.6018C9.53784 77.9444 8.92807 78.7353 8.92807 79.9526V81.6431C8.92807 83.0846 9.82545 83.9803 11.2703 83.9803H20.8216C28.5118 83.9803 31.649 86.0638 31.649 91.1712V96.1348H19.0495C9.2021 96.1348 5 99.8902 5 108.692C5 118.503 9.3493 122.326 20.513 122.326C25.035 122.326 33.3588 121.974 36.4354 121.036C39.0295 120.316 39.0295 118.334 39.0295 117.683V90.7109C39.0295 81.4852 33.0734 77 20.8216 77H20.821Z" fill="#272727"/>
</svg>
