<svg width="200" height="200" viewBox="0 0 200 200" fill="none" xmlns="http://www.w3.org/2000/svg">
<path fill-rule="evenodd" clip-rule="evenodd" d="M5 124.361C5 127.859 7.83575 130.694 11.3333 130.694H188.667C192.164 130.694 195 127.859 195 124.361V76.3333C195 72.8358 192.164 70 188.667 70H11.3333C7.83575 70 5 72.8358 5 76.3333V124.361Z" fill="#CC0000"/>
<path d="M35.3027 110.341C35.3703 109.227 35.4378 107.572 35.4378 106.119V86.3613H38.376V96.6292H38.4435C39.4907 94.8052 41.3822 93.623 44.0163 93.623C48.0697 93.623 50.9403 97.0003 50.9065 101.966C50.9065 107.809 47.2247 110.714 43.5772 110.714C41.2128 110.714 39.3218 109.802 38.1058 107.64H38.0044L37.8693 110.342H35.3027V110.341ZM38.376 103.789C38.376 104.161 38.4435 104.532 38.5111 104.87C39.0853 106.93 40.808 108.349 42.9692 108.349C46.0768 108.349 47.9346 105.816 47.9346 102.067C47.9346 98.7905 46.2457 95.9869 43.0711 95.9869C41.0444 95.9869 39.1529 97.3718 38.5449 99.6349C38.4773 99.9727 38.376 100.378 38.376 100.851V103.789Z" fill="white"/>
<path d="M64.4722 110.341L64.2357 108.281H64.1344C63.2224 109.565 61.466 110.713 59.1353 110.713C55.8256 110.713 54.1367 108.382 54.1367 106.018C54.1367 102.066 57.6496 99.9047 63.9655 99.9384V99.6007C63.9655 98.2495 63.594 95.8181 60.2505 95.8181C58.7305 95.8181 57.1429 96.291 55.995 97.0341L55.3195 95.0755C56.6706 94.1973 58.6292 93.623 60.6896 93.623C65.6887 93.623 66.9042 97.0341 66.9042 100.311V106.424C66.9042 107.842 66.9717 109.227 67.1744 110.341H64.4722ZM64.0331 101.999C60.7904 101.931 57.1092 102.506 57.1092 105.68C57.1092 107.605 58.3927 108.517 59.9127 108.517C62.0407 108.517 63.3913 107.166 63.8642 105.781C63.9655 105.477 64.0331 105.14 64.0331 104.836V101.999Z" fill="white"/>
<path d="M72.1934 86.3613H75.1653V110.342H72.1934V86.3613Z" fill="white"/>
<path d="M80.0874 107.302C80.9656 107.876 82.5189 108.484 84.0051 108.484C86.1669 108.484 87.1802 107.403 87.1802 106.052C87.1802 104.633 86.3357 103.856 84.1402 103.046C81.2021 101.999 79.8172 100.378 79.8172 98.4185C79.8172 95.7838 81.9452 93.6226 85.4581 93.6226C87.1132 93.6226 88.5651 94.0954 89.4771 94.6359L88.734 96.7977C88.0922 96.3923 86.91 95.8519 85.3905 95.8519C83.6341 95.8519 82.6545 96.8652 82.6545 98.0812C82.6545 99.4323 83.6335 100.04 85.7615 100.851C88.5989 101.932 90.0508 103.351 90.0508 105.783C90.0508 108.653 87.8214 110.68 83.9375 110.68C82.1473 110.68 80.4927 110.241 79.3438 109.566L80.0874 107.302Z" fill="white"/>
<path d="M103.775 110.341L103.539 108.281H103.438C102.526 109.565 100.769 110.713 98.439 110.713C95.1293 110.713 93.4404 108.382 93.4404 106.018C93.4404 102.066 96.9533 99.9047 103.269 99.9384V99.6007C103.269 98.2495 102.898 95.8181 99.5537 95.8181C98.0342 95.8181 96.4467 96.291 95.2982 97.0341L94.6227 95.0755C95.9738 94.1973 97.9329 93.623 99.9928 93.623C104.992 93.623 106.207 97.0341 106.207 100.311V106.424C106.207 107.842 106.275 109.227 106.478 110.341H103.775ZM103.336 101.999C100.094 101.931 96.4123 102.506 96.4123 105.68C96.4123 107.605 97.6959 108.517 99.2159 108.517C101.343 108.517 102.695 107.166 103.167 105.781C103.269 105.477 103.336 105.14 103.336 104.836V101.999Z" fill="white"/>
<path d="M111.474 98.419C111.474 96.7301 111.44 95.3452 111.339 93.9946H113.94L114.075 96.6293H114.176C115.088 95.0755 116.608 93.623 119.31 93.623C121.539 93.623 123.228 94.9742 123.937 96.8995H124.005C124.512 95.9875 125.153 95.2782 125.829 94.7715C126.808 94.0284 127.889 93.623 129.443 93.623C131.604 93.623 134.813 95.0417 134.813 100.716V110.342H131.908V101.087C131.908 97.9455 130.76 96.0545 128.362 96.0545C126.673 96.0545 125.356 97.3043 124.849 98.7567C124.714 99.1621 124.613 99.7025 124.613 100.242V110.341H121.709V100.546C121.709 97.9455 120.56 96.0545 118.297 96.0545C116.439 96.0545 115.089 97.5402 114.615 99.0264C114.447 99.4655 114.379 99.9722 114.379 100.479V110.341H111.475V98.419H111.474Z" fill="white"/>
<path d="M143.441 89.4007C143.474 90.4141 142.731 91.2247 141.549 91.2247C140.502 91.2247 139.759 90.4141 139.759 89.4007C139.759 88.3536 140.536 87.543 141.617 87.543C142.731 87.543 143.441 88.3536 143.441 89.4007ZM140.13 110.341V93.994H143.103V110.341H140.13Z" fill="white"/>
<path d="M159.785 107.808H159.717C158.839 109.43 157.016 110.713 154.381 110.713C150.565 110.713 147.457 107.403 147.457 102.438C147.457 96.3248 151.408 93.6226 154.854 93.6226C157.387 93.6226 159.076 94.8723 159.887 96.4594H159.954L160.055 93.9941H162.859C162.791 95.379 162.758 96.7977 162.758 98.486V117.028H159.785V107.808H159.785ZM159.785 100.614C159.785 100.209 159.752 99.7358 159.65 99.3643C159.211 97.5403 157.623 95.9865 155.394 95.9865C152.321 95.9865 150.463 98.5874 150.463 102.269C150.463 105.511 152.017 108.349 155.292 108.349C157.218 108.349 158.873 107.166 159.548 105.106C159.683 104.701 159.784 104.126 159.784 103.687V100.614H159.785Z" fill="white"/>
<path d="M171.492 96.0373C171.492 97.456 170.339 98.5944 168.877 98.5944C167.414 98.5944 166.246 97.4565 166.246 96.0373C166.246 94.6335 167.414 93.4961 168.877 93.4961C170.34 93.4961 171.492 94.6335 171.492 96.0373ZM167.029 96.0521C167.029 97.1161 167.812 97.9585 168.877 97.9585C169.941 97.9585 170.724 97.1156 170.724 96.0368C170.724 94.9876 169.941 94.1305 168.862 94.1305C167.813 94.131 167.029 94.9881 167.029 96.0521ZM168.551 97.2491H167.827V94.8995C167.99 94.8699 168.374 94.8256 168.862 94.8256C169.394 94.8256 169.63 94.8995 169.808 95.0029C169.955 95.1063 170.059 95.2837 170.059 95.5201C170.059 95.7566 169.837 95.9635 169.512 96.0521V96.0817C169.779 96.1703 169.926 96.3477 170 96.6876C170.074 97.0275 170.118 97.1605 170.163 97.2486H169.35C169.276 97.1599 169.232 96.953 169.187 96.7467C169.143 96.5102 169.024 96.3915 168.788 96.3915H168.552V97.2491H168.551ZM168.581 95.9043H168.788C169.054 95.9043 169.232 95.8014 169.232 95.6241C169.232 95.432 169.069 95.328 168.818 95.328C168.729 95.328 168.641 95.3428 168.582 95.3428V95.9043H168.581Z" fill="white"/>
</svg>
