<svg width="200" height="200" viewBox="0 0 200 200" fill="none" xmlns="http://www.w3.org/2000/svg">
<path d="M25 155.659C25 166.342 33.6596 175 44.3412 175H155.658C166.342 175 175 166.34 175 155.659V44.3418C175 33.6584 166.34 25 155.659 25H44.3418C33.6584 25 25 33.6596 25 44.3412V155.658V155.659Z" fill="#563D7C"/>
<path d="M87.201 91.3504V70.1084H105.899C107.68 70.1084 109.397 70.2566 111.05 70.5537C112.704 70.8502 114.167 71.3799 115.439 72.1434C116.711 72.9068 117.728 73.9668 118.492 75.3232C119.255 76.6803 119.637 78.4188 119.637 80.5381C119.637 84.3543 118.492 87.1105 116.202 88.8063C113.913 90.5025 110.987 91.3504 107.425 91.3504H87.201V91.3504ZM67.2305 54.5898V145.41H111.241C115.312 145.41 119.276 144.902 123.135 143.884C126.993 142.866 130.427 141.297 133.438 139.178C136.448 137.058 138.844 134.322 140.624 130.973C142.406 127.623 143.296 123.659 143.296 119.08C143.296 113.398 141.918 108.544 139.162 104.516C136.406 100.488 132.229 97.668 126.632 96.0566C130.703 94.1066 133.777 91.6047 135.855 88.552C137.932 85.4992 138.971 81.6836 138.971 77.1039C138.971 72.8641 138.271 69.3027 136.872 66.4193C135.473 63.5365 133.501 61.2256 130.957 59.4871C128.413 57.7486 125.361 56.4977 121.799 55.7348C118.237 54.9713 114.294 54.5898 109.969 54.5898H67.2305V54.5898ZM87.201 129.892V104.961H108.952C113.276 104.961 116.753 105.957 119.382 107.95C122.011 109.943 123.326 113.271 123.326 117.935C123.326 120.31 122.923 122.26 122.117 123.786C121.311 125.313 120.23 126.521 118.873 127.411C117.517 128.302 115.948 128.938 114.167 129.32C112.386 129.701 110.521 129.892 108.57 129.892H87.201V129.892Z" fill="white"/>
</svg>
