<svg width="200" height="200" viewBox="0 0 200 200" fill="none" xmlns="http://www.w3.org/2000/svg">
<path d="M100 175C141.421 175 175 141.421 175 100C175 58.5786 141.421 25 100 25C58.5786 25 25 58.5786 25 100C25 141.421 58.5786 175 100 175Z" fill="#20C4CB"/>
<path d="M119.436 112.551C116.375 115.919 112.089 117.602 110.099 117.602C107.803 117.602 106.579 116.225 106.273 114.082C106.12 113.317 106.273 112.398 106.426 111.633C107.191 106.888 108.875 103.827 108.875 103.062C108.875 102.755 108.722 102.602 108.569 102.602C107.038 102.602 101.834 107.959 101.069 111.48L100.456 114.388C99.9971 116.378 98.1604 117.602 96.7829 117.602C96.1706 117.602 95.7114 117.296 95.5584 116.531C95.5584 116.225 95.5584 115.919 95.5584 115.613L95.8645 114.082C93.1094 116.225 90.0482 117.602 88.6706 117.602C86.6808 117.602 85.6094 116.531 85.3033 115C84.0788 116.684 82.3951 117.602 80.5584 117.602C78.2625 117.602 76.1196 116.072 75.0482 113.776C73.5176 115.459 71.6808 117.143 69.538 118.521C66.3237 120.511 62.8033 122.194 58.6706 122.194C54.8441 122.194 51.4767 120.204 49.7931 118.521C47.038 116.072 45.6604 112.245 45.2012 108.878C43.8237 98.1636 50.4053 83.9289 60.6604 77.8064C62.9563 76.4289 65.5584 75.6636 68.0074 75.6636C72.9053 75.6636 76.5788 79.184 77.038 83.3166C77.4971 87.1432 75.9665 90.3575 71.8339 92.3472C69.691 93.4187 68.6196 93.4187 68.3135 92.8064C68.1604 92.5003 68.1604 91.8881 68.6196 91.5819C72.5992 88.3677 72.5992 85.6126 72.14 81.786C71.8339 79.337 70.3033 77.8064 68.4665 77.8064C60.5074 77.8064 49.4869 95.1023 51.0176 107.653C51.6298 112.551 54.691 118.215 60.8135 118.215C62.8033 118.215 65.0992 117.602 66.9359 116.684C70.3033 115 72.2931 113.623 74.1298 111.327C73.6706 105.511 78.7216 98.1636 86.0686 98.1636C89.2829 98.1636 91.8849 99.3881 92.191 101.99C92.6502 105.204 89.8951 105.817 88.8237 105.817C87.9053 105.817 86.5278 105.511 86.3747 104.745C86.2216 103.827 88.3645 104.286 88.0584 102.296C87.9053 101.072 86.5278 100.613 85.3033 100.613C80.7114 100.613 78.1094 107.041 78.5686 111.021C78.7216 112.857 79.7931 114.694 81.3237 114.694C82.7012 114.694 84.691 112.704 85.3033 109.949C85.7625 107.959 87.5992 106.735 88.9767 106.735C89.742 106.735 90.2012 107.041 90.2012 107.806C90.2012 108.113 90.2012 108.419 90.2012 108.725C90.0482 109.49 89.4359 112.398 89.4359 112.857C89.4359 113.317 89.7421 114.082 90.6604 114.082C91.4257 114.082 93.8747 112.704 96.3237 110.562C97.089 106.735 98.0074 101.99 98.0074 101.684C98.3135 100.153 98.9257 98.4697 101.987 98.4697C102.599 98.4697 103.058 98.7758 103.211 99.5411C103.211 99.8472 103.211 100.153 103.211 100.459L102.446 104.592C105.201 100.919 109.487 98.1636 112.089 98.1636C113.16 98.1636 114.079 98.7758 114.232 99.8472C114.385 100.459 114.079 101.531 113.773 102.755C112.854 105.204 111.783 109.031 111.171 112.245C111.018 113.011 111.324 113.929 112.548 113.929C113.62 113.929 116.834 112.704 119.436 109.184C119.436 108.725 119.436 108.266 119.436 107.653C119.436 104.898 119.589 102.755 120.201 101.072C120.66 99.3881 122.803 97.8574 124.181 97.8574C124.946 97.8574 125.405 98.3166 125.405 99.0819C125.405 99.3881 125.405 99.6942 125.252 100C124.334 102.908 123.722 105.511 123.722 108.113C123.722 109.643 124.028 111.939 124.334 113.164C124.334 113.47 124.487 113.623 124.793 113.623C125.252 113.623 128.313 110.715 130.456 107.041C128.467 105.817 127.395 103.521 127.395 100.766C127.395 96.1738 130.15 93.7248 132.905 93.7248C135.048 93.7248 136.885 95.2554 136.885 98.3166C136.885 100.306 136.12 102.449 135.048 104.592C135.048 104.592 135.507 104.592 135.66 104.592C137.344 104.592 138.569 103.827 139.334 102.908C139.64 102.602 139.946 102.296 140.252 102.143C142.395 99.5411 145.609 97.7044 149.283 97.7044C152.497 97.7044 155.099 98.9289 155.405 101.531C155.864 104.745 152.956 105.511 152.038 105.511C151.12 105.511 149.589 105.204 149.589 104.439C149.436 103.674 151.579 103.98 151.426 101.99C151.273 100.766 149.895 100.153 148.671 100.153C144.385 100.153 141.477 105.817 141.936 110.562C142.089 112.398 143.007 114.235 144.691 114.235C146.069 114.235 148.058 112.245 148.824 109.49C149.283 107.653 151.12 106.276 152.497 106.276C153.109 106.276 153.722 106.582 153.722 107.347C153.722 107.806 153.569 108.572 152.956 111.633C152.65 112.857 152.65 114.082 152.65 114.847C152.956 116.684 153.722 117.908 154.487 118.674C154.793 118.98 154.946 119.286 154.946 119.439C154.946 119.898 154.64 120.357 154.028 120.357C153.875 120.357 153.569 120.357 153.416 120.204C150.048 118.827 148.671 116.531 148.364 114.541C147.14 116.225 145.456 116.99 143.62 116.99C140.711 116.99 137.803 114.388 137.344 111.021C137.191 109.643 137.344 108.113 137.803 106.735C136.579 107.5 135.354 107.959 134.13 107.959C133.671 107.959 133.364 107.959 133.058 107.959C130.15 112.092 127.089 115 124.793 116.378C123.875 116.837 122.956 117.143 122.344 117.143C121.885 117.143 121.273 116.99 120.967 116.531C120.048 115.919 119.589 114.388 119.436 112.551ZM129.844 98.7758C129.844 100.613 130.762 102.449 131.834 103.674C132.293 102.449 132.599 101.225 132.599 100C132.599 97.7044 131.681 96.633 131.069 96.633C130.15 96.633 129.844 97.8575 129.844 98.7758Z" fill="white"/>
</svg>
