<svg width="200" height="200" viewBox="0 0 200 200" fill="none" xmlns="http://www.w3.org/2000/svg">
<path d="M71.3334 185C86.9734 185 99.6667 172.307 99.6667 156.667V128.333H71.3334C55.6933 128.333 43 141.027 43 156.667C43 172.307 55.6933 185 71.3334 185Z" fill="#0ACF83"/>
<path d="M43 99.9999C43 84.3599 55.6933 71.6665 71.3334 71.6665H99.6667V128.333H71.3334C55.6933 128.333 43 115.64 43 99.9999Z" fill="#A259FF"/>
<path d="M43 43.3334C43 27.6933 55.6933 15 71.3334 15H99.6667V71.6667H71.3334C55.6933 71.6667 43 58.9734 43 43.3334Z" fill="#F24E1E"/>
<path d="M99.6641 15H127.997C143.637 15 156.331 27.6933 156.331 43.3334C156.331 58.9734 143.637 71.6667 127.997 71.6667H99.6641V15Z" fill="#FF7262"/>
<path d="M156.331 99.9999C156.331 115.64 143.637 128.333 127.997 128.333C112.357 128.333 99.6641 115.64 99.6641 99.9999C99.6641 84.3599 112.357 71.6665 127.997 71.6665C143.637 71.6665 156.331 84.3599 156.331 99.9999Z" fill="#1ABCFE"/>
</svg>
