<svg width="200" height="200" viewBox="0 0 200 200" fill="none" xmlns="http://www.w3.org/2000/svg">
<path d="M172.173 93.319L106.68 27.83C105.783 26.9328 104.718 26.2211 103.546 25.7355C102.374 25.2499 101.118 25 99.8489 25C98.5802 25 97.324 25.2499 96.152 25.7355C94.9799 26.2211 93.915 26.9328 93.0181 27.83L79.4185 41.431L96.6704 58.6815C98.6983 57.9919 100.879 57.8839 102.965 58.3699C105.051 58.8559 106.959 59.9164 108.473 61.4313C109.996 62.9557 111.059 64.8776 111.541 66.9775C112.023 69.0773 111.904 71.2704 111.199 73.3061L127.823 89.9329C131.846 88.5474 136.488 89.4443 139.699 92.6615C140.767 93.7286 141.614 94.9956 142.192 96.3902C142.77 97.7847 143.067 99.2795 143.067 100.789C143.067 102.299 142.77 103.793 142.192 105.188C141.614 106.582 140.767 107.849 139.699 108.917C137.821 110.797 135.349 111.968 132.704 112.231C130.059 112.494 127.405 111.832 125.193 110.357C122.981 108.883 121.349 106.688 120.573 104.146C119.798 101.604 119.927 98.8713 120.94 96.4138L105.435 80.9092L105.434 121.712C106.558 122.268 107.584 123.002 108.473 123.886C109.541 124.954 110.388 126.221 110.966 127.616C111.544 129.01 111.841 130.505 111.841 132.015C111.841 133.525 111.544 135.02 110.966 136.415C110.388 137.809 109.541 139.077 108.473 140.144C103.982 144.635 96.7028 144.635 92.2184 140.144C90.8787 138.805 89.8905 137.156 89.3417 135.344C88.793 133.531 88.7007 131.611 89.073 129.754C89.4452 127.897 90.2706 126.16 91.4757 124.699C92.6808 123.238 94.2283 122.097 95.9805 121.379V80.1953C94.5709 79.6197 93.2915 78.7665 92.2184 77.6863C88.8167 74.2889 87.9987 69.2976 89.7418 65.1202L72.7363 48.1119L27.8304 93.0149C26.933 93.9122 26.2212 94.9775 25.7356 96.1499C25.25 97.3223 25 98.5788 25 99.8478C25 101.117 25.25 102.373 25.7356 103.546C26.2212 104.718 26.933 105.783 27.8304 106.681L93.3236 172.171C95.1354 173.982 97.5925 175 100.154 175C102.716 175 105.173 173.982 106.985 172.171L172.173 106.986C173.985 105.173 175.002 102.715 175.002 100.153C175.002 97.5898 173.985 95.1318 172.173 93.319" fill="#DE4C36"/>
</svg>
