<svg width="200" height="200" viewBox="0 0 200 200" fill="none" xmlns="http://www.w3.org/2000/svg">
<path d="M49.3769 173.219L38.1318 47.0903H161.698L150.441 173.199L99.8392 187.228L49.3769 173.219Z" fill="#E44D26"/>
<path d="M99.915 176.531L140.803 165.195L150.424 57.4297H99.915V176.531Z" fill="#F16529"/>
<path d="M99.9147 104.209H79.4454L78.0314 88.3683H99.9147V72.8989H61.125L61.4957 77.0491L65.2976 119.678H99.9147V104.209ZM99.9147 144.384L99.8467 144.402L82.6188 139.75L81.5174 127.413H65.989L68.1565 151.702L99.8439 160.498L99.9147 160.479V144.384Z" fill="#EBEBEB"/>
<path d="M49.6289 12.8403H57.49V20.607H64.681V12.8403H72.5423V36.3601H64.681V28.4844H57.49V36.3601H49.6295L49.6289 12.8403ZM82.8806 20.6402H75.9603V12.8403H97.6667V20.6402H90.7431V36.3601H82.8809V20.6402H82.8806ZM101.111 12.8403H109.309L114.351 21.1047L119.389 12.8403H127.589V36.3601H119.759V24.7021L114.35 33.0648H114.215L108.803 24.7021V36.3601H101.111V12.8403H101.111ZM131.501 12.8403H139.364V28.5861H150.42V36.3601H131.501V12.8403Z" fill="black"/>
<path d="M99.8613 104.209V119.678H118.91L117.114 139.74L99.8613 144.397V160.49L131.574 151.702L131.806 149.088L135.442 108.363L135.819 104.209H131.651H99.8613ZM99.8613 72.8989V88.3683H137.227L137.537 84.891L138.242 77.0491L138.612 72.8989H99.8613Z" fill="white"/>
</svg>
