<svg width="200" height="200" viewBox="0 0 200 200" fill="none" xmlns="http://www.w3.org/2000/svg">
<path fill-rule="evenodd" clip-rule="evenodd" d="M177.233 129.801L186.25 129.851C186.25 129.851 169.486 152.568 168.117 154.42C167.672 155.019 166.997 155.666 166.654 156.467C165.788 158.482 164.899 162.902 164.899 162.902L156.649 162.943C156.649 162.943 157.933 158.336 157.88 155.882C157.833 153.738 156.739 151.597 156.125 149.448C155.504 147.271 154.662 143.013 154.662 143.013H163.145L164.315 147.693L177.233 129.801" fill="#1A1918"/>
<path fill-rule="evenodd" clip-rule="evenodd" d="M160.157 134.593C161.822 135.596 162.843 141.13 162.843 141.13C162.843 141.13 154.136 141.258 149.397 141.258H145.302L140.33 162.902H132.725C132.725 162.902 137.458 139.381 138.575 135.117C138.937 133.736 141.056 133.973 144.633 133.973H150.345C154.033 133.973 158.344 133.502 160.157 134.593V134.593ZM124.755 145.134C124.755 145.134 124.992 143.745 123.951 142.136C123.062 140.764 122.24 140.445 119.9 140.372C113.293 140.164 113.421 145.061 113.421 145.061L124.755 145.134ZM131.921 139.527C132.889 143.019 131.044 151.226 131.044 151.226C131.044 151.226 121.406 151.065 116.127 151.226C114.486 151.276 112.521 151.048 112.032 151.811C111.345 152.881 112.283 154.529 113.079 155.225C113.995 156.026 115.778 156.117 116.42 156.198C120.704 156.743 129.672 156.339 129.672 156.339L128.118 163.218C128.118 163.218 115.446 163.853 109.107 162.34C107.856 162.042 106.682 161.44 105.89 160.586C105.673 160.352 105.486 160.033 105.281 159.758C105.118 159.538 104.641 158.816 104.427 158.245C102.98 154.388 104.597 146.997 106.182 143.037C106.366 142.578 106.597 141.996 106.841 141.501C107.145 140.884 107.402 140.188 107.645 139.819C107.808 139.565 108.011 139.401 108.18 139.161C108.376 138.877 108.604 138.603 108.815 138.357C109.4 137.679 110.064 137.199 110.862 136.603C113.503 134.625 118.282 133.09 124.024 133.677C126.186 133.899 129.45 134.672 131.044 136.895C131.47 137.488 131.681 138.667 131.921 139.527V139.527ZM97.0423 133.946L104.416 133.902C104.416 133.902 100.306 153.396 98.2121 162.902H89.7296C83.8015 162.902 78.5221 163.636 76.2758 159.392C74.0969 155.271 76.1765 148.495 77.1531 143.89C77.8435 140.632 79.2975 133.972 79.2975 133.972L86.9373 133.902C86.9373 133.902 84.7786 144.271 83.8802 149.448C83.5586 151.302 82.8951 153.049 83.5881 154.42C84.246 155.725 85.1675 155.818 87.975 155.883C88.8645 155.904 91.7776 155.883 91.7776 155.883L97.0423 133.946V133.946ZM62.529 147.985C63.3011 145.242 64.4272 142.268 64.284 139.796C64.1291 137.152 61.9123 134.745 60.4818 134.239C56.1736 132.718 52.1403 134.844 50.5373 136.579C48.4636 138.825 47.7614 141.449 47.0272 145.061C46.4808 147.743 46.0329 150.574 47.0272 152.665C48.7877 156.362 54.278 155.555 60.1893 155.59C61.0666 153.239 61.7919 150.598 62.529 147.985ZM72.7662 137.164C73.6081 143.288 70.3768 150.048 68.1507 155.926C70.4205 156.131 72.4096 155.895 72.5527 156.064C72.7018 156.283 71.0314 163.081 70.4492 163.098C68.6478 163.145 62.6785 163.195 60.1893 163.195C52.0667 163.195 44.4681 163.724 40.5931 159.685C39.0195 158.044 37.9313 155.23 37.6678 153.25C37.2291 149.945 37.7789 146.306 38.5455 143.306C39.2389 140.597 40.1275 138.041 41.4704 135.701C44.8836 129.743 50.821 125.321 60.774 126.342C62.7046 126.541 65.4771 127.386 67.2089 128.389C67.3285 128.459 67.7474 128.793 67.8434 128.851C70.1835 130.34 72.3157 133.894 72.7662 137.164V137.164ZM36.8284 133.981C36.3371 136.219 35.8458 138.755 35.328 140.966H27.1385C27.7729 138.515 28.2587 136.078 28.8935 133.946C31.514 133.946 33.9506 133.981 36.8288 133.981H36.8284ZM26.8459 143.013H34.7433C33.7107 148.729 31.666 157.947 30.0634 164.365C29.0602 168.381 28.3904 171.311 25.676 173.432C25.4331 173.622 25.293 173.531 25.0909 173.724C24.5908 174.201 22.2771 174.754 20.9965 174.894C18.914 175.12 16.5595 174.923 14 174.871C14.6698 172.423 15.4275 169.483 16.0244 167.289C22.2632 168.044 22.4211 162.147 23.6289 156.468C24.3277 153.186 26.4456 144.329 26.8459 143.013" fill="#1A1918"/>
<path fill-rule="evenodd" clip-rule="evenodd" d="M147.01 98.7615L146.561 99.9252C138.911 114.823 125.354 123.963 106.017 124.367C96.9778 124.553 88.3649 122.233 82.7385 119.712C70.5965 114.256 60.3833 104.139 54.806 93.3293C46.8052 77.8336 45.3623 56.2781 61.9982 40.1782C62.2551 40.1782 59.9802 43.6694 60.237 43.6694L59.7791 45.1592C47.7913 82.6906 84.7253 114.855 120.628 111.176C129.257 110.291 140.26 105.566 147.01 98.7615Z" fill="#21609B"/>
<path fill-rule="evenodd" clip-rule="evenodd" d="M125.283 83.243C134.316 83.3044 143.751 79.0828 149.338 73.1559C144.45 85.5637 130.297 93.5388 111.318 91.0025C95.4254 88.8761 80.2871 72.8846 78.728 56.8606C77.5877 45.1989 81.6518 38.239 88.3493 29.7959C86.0219 34.2118 85.1519 37.6169 84.9352 39.7891C82.3911 65.0155 105.087 83.1101 125.283 83.243" fill="#21609B"/>
<path fill-rule="evenodd" clip-rule="evenodd" d="M148.43 51.9095C147.026 55.1304 138.941 61.2125 135.371 61.973C121.233 64.9851 112.179 58.2809 107.436 50.652C106.731 49.5128 105.428 46.4014 105.195 45.6096C103.355 39.3554 104.201 29.8961 109.688 25C108.035 29.656 107.794 35.0636 108.664 38.5793C109.191 40.7045 110.797 44.4157 112.404 46.7498C115.328 51.0015 117.183 52.0346 120.938 54.2927C122.63 55.309 124.445 56.1243 125.229 56.3477C128.791 57.3964 136.31 60.1582 148.431 51.9095" fill="#21609B"/>
</svg>
