<svg width="200" height="200" viewBox="0 0 200 200" fill="none" xmlns="http://www.w3.org/2000/svg">
<path d="M25 96.6777C25 57.0912 57.0912 25 96.6777 25H103.322C142.909 25 175 57.0912 175 96.6777V103.322C175 142.909 142.909 175 103.322 175H96.6777C57.0912 175 25 142.909 25 103.322V96.6777Z" fill="#F0DB4F"/>
<path d="M162.724 139.225C161.626 132.381 157.163 126.635 143.946 121.274C139.354 119.163 134.236 117.652 132.71 114.173C132.168 112.148 132.097 111.007 132.439 109.781C133.423 105.803 138.171 104.563 141.935 105.703C144.359 106.516 146.655 108.384 148.038 111.364C154.511 107.172 154.497 107.2 159.017 104.32C157.363 101.754 156.479 100.57 155.395 99.4724C151.503 95.1235 146.199 92.8849 137.715 93.056C136.246 93.2414 134.763 93.4408 133.295 93.6263C129.06 94.6957 125.025 96.9201 122.658 99.9001C115.557 107.956 117.582 122.058 126.222 127.861C134.735 134.249 147.239 135.703 148.836 141.678C150.391 148.992 143.461 151.359 136.574 150.518C131.498 149.463 128.675 146.882 125.623 142.191C120.006 145.442 120.006 145.442 114.231 148.764C115.6 151.758 117.04 153.113 119.336 155.708C130.201 166.73 157.392 166.188 162.268 149.506C162.468 148.935 163.78 145.114 162.724 139.225V139.225ZM106.546 93.9399H92.5151C92.5151 106.06 92.4582 118.094 92.4582 130.214C92.4582 137.928 92.8575 145 91.6027 147.167C89.5495 151.43 84.2311 150.903 81.8071 150.076C79.3404 148.864 78.0856 147.138 76.6312 144.7C76.232 144.002 75.9326 143.46 75.8326 143.417C72.0257 145.741 68.2328 148.079 64.4258 150.404C66.3223 154.296 69.1168 157.676 72.6957 159.871C78.0427 163.079 85.229 164.063 92.7434 162.338C97.6341 160.912 101.854 157.961 104.065 153.469C107.258 147.581 106.574 140.451 106.546 132.566C106.617 119.705 106.546 106.844 106.546 93.9399Z" fill="#323330"/>
</svg>
