<svg width="200" height="200" viewBox="0 0 200 200" fill="none" xmlns="http://www.w3.org/2000/svg">
<path d="M33.0419 108.037C34.1525 106.834 35.1705 105.816 36.0035 104.983L38.2246 102.762C38.8724 102.114 39.5203 101.559 40.0756 101.096C40.6309 100.633 41.1861 100.078 41.834 99.6152C43.1296 98.5047 44.1477 97.7643 44.9806 97.3016C45.8135 96.8388 46.6464 96.6537 47.3868 96.6537C48.4974 96.6537 49.4229 97.0239 50.3484 97.8568C51.1813 98.6898 51.644 99.6152 51.644 100.633C51.644 101.374 51.4589 102.207 50.9962 102.947C50.5334 103.78 49.7931 104.89 48.775 106.279C43.7775 112.85 41.2787 117.014 41.2787 118.958C41.2787 119.791 41.6489 120.253 42.5743 120.253C43.2222 120.253 43.9626 119.976 44.7029 119.42C45.4433 118.865 46.4614 117.94 47.6645 116.551C48.3123 115.811 49.0527 114.886 49.9782 113.682C50.9036 112.479 51.7366 111.369 52.4769 110.351C53.2173 109.333 53.7726 108.592 54.2354 108.222C54.6981 107.852 55.2534 107.667 55.9012 107.667C56.549 107.667 57.1043 107.852 57.5671 108.315C58.0298 108.777 58.2149 109.333 58.2149 109.981C58.2149 111.184 57.6596 112.85 56.549 114.886C55.4385 116.922 53.9577 118.958 52.1993 121.086C49.9782 123.77 47.6645 125.899 45.3508 127.38C43.0371 128.86 40.9085 129.601 38.965 129.601C37.2066 129.601 35.7258 129.045 34.5227 127.842C33.3196 126.639 32.7643 125.158 32.7643 123.307C32.7643 122.382 32.8568 121.456 33.0419 120.531C33.227 119.698 33.4121 118.773 33.7823 117.847C34.06 116.922 34.5227 115.904 35.1705 114.886C35.8184 113.868 36.4662 112.664 37.3917 111.369C37.4842 111.276 37.5768 110.999 37.8544 110.628C36.1886 111.924 34.5227 113.497 32.8568 115.533C31.191 117.477 29.5251 119.976 27.8593 123.122C26.6562 125.158 25.7307 126.547 25.0828 127.194C24.435 127.842 23.6021 128.212 22.6766 128.212C21.6586 128.212 20.8256 127.842 20.0853 127.102C19.4374 126.362 19.0672 125.436 19.0672 124.325C19.0672 123.585 19.1598 122.937 19.3449 122.289C19.53 121.642 19.8076 120.716 20.3629 119.513C20.6406 118.588 21.1033 117.662 21.6586 116.551C22.2139 115.533 22.5841 114.701 23.0468 114.053L24.8977 110.906C24.9903 110.814 25.1754 110.443 25.453 109.981C24.1574 110.999 22.9542 112.202 21.6586 113.497C20.2704 114.515 19.0672 115.811 17.9567 117.292C16.8461 118.68 15.8281 120.161 14.9951 121.549C14.1622 123.03 13.4218 124.418 12.8666 125.714C12.0336 127.472 11.2932 128.675 10.738 129.323C10.0901 129.971 9.34974 130.249 8.42426 130.249C7.49879 130.249 6.57331 129.878 5.92548 129.045C5.27764 128.305 5 127.287 5 126.084C5 123.678 6.20312 119.42 8.51681 113.497C9.90503 110.073 11.2932 106.927 12.8666 104.058C14.4399 101.189 16.0132 98.6898 17.4939 96.6537C18.4194 95.5431 19.1598 94.7102 19.8076 94.1549C20.4555 93.6922 21.1958 93.4146 21.9362 93.4146C22.7692 93.4146 23.5095 93.6922 24.0648 94.2475C24.7127 94.8028 24.9903 95.5431 24.9903 96.3761C24.9903 97.0239 24.8052 97.6717 24.5276 98.4121C24.2499 99.1525 23.5095 100.356 22.4915 102.114C22.3064 102.392 22.0288 102.947 21.6586 103.595C21.2884 104.243 20.8256 105.076 20.1778 106.186L19.1598 108.315C21.1033 106.001 22.7692 104.058 24.2499 102.484C25.7307 100.911 26.9338 99.6152 28.0444 98.5972C29.1549 97.6717 30.0804 96.9314 31.0059 96.4686C31.8388 96.0059 32.6718 95.8208 33.3196 95.8208C34.2451 95.8208 34.9854 96.0984 35.6333 96.7463C36.2811 97.3941 36.5588 98.1345 36.5588 98.9674C36.5588 99.5227 36.4662 100.171 36.1886 100.911C35.9109 101.651 35.3556 102.669 34.5227 104.15L32.4867 107.852L31.8388 109.24L33.0419 108.037V108.037Z" fill="#27AAE1"/>
<path d="M57.1968 126.269C55.4384 126.269 53.8651 125.528 52.7545 124.14C51.5514 122.752 50.9961 120.901 50.9961 118.68C50.9961 116.274 51.5514 113.59 52.7545 110.628C53.8651 107.667 55.4384 104.89 57.4744 102.299C59.6956 99.2449 62.0093 97.0237 64.4155 95.4504C66.8217 93.8771 69.1354 93.1367 71.3566 93.1367C73.3926 93.1367 75.0585 93.7846 76.3541 95.0802C77.6498 96.3759 78.2976 98.1343 78.2976 100.263C78.2976 101.003 78.2051 101.744 78.02 102.299C77.8349 102.947 77.6498 103.595 77.2796 104.428C77.9275 104.983 78.2976 105.353 78.5753 105.723C78.7604 106.001 78.8529 106.371 78.8529 106.741C78.8529 107.019 78.7604 107.389 78.6678 107.667C78.5753 107.944 78.2051 108.407 77.7424 109.055C76.8169 110.351 75.984 111.554 75.4287 112.757C74.8734 113.867 74.5957 114.885 74.5957 115.533C74.5957 116.551 75.151 117.107 76.2616 117.107C77.1871 117.107 78.2976 116.551 79.5933 115.348C80.889 114.238 82.3697 112.294 84.2207 109.795C85.3313 108.222 86.4418 107.482 87.4599 107.482C88.2002 107.482 88.7555 107.667 89.1257 108.129C89.4959 108.592 89.7736 109.147 89.7736 109.888C89.7736 110.998 89.2183 112.387 88.2002 114.145C87.1822 115.903 85.794 117.662 83.9431 119.513C79.7784 123.863 75.7989 126.084 72.0044 126.084C70.6162 126.084 69.4131 125.621 68.4876 124.603C67.5621 123.585 67.0068 122.382 67.0068 120.994V120.161C63.8602 124.14 60.621 126.269 57.1968 126.269ZM66.359 112.757C66.1739 112.202 66.0814 111.831 66.0814 111.739C66.0814 111.369 66.2665 110.998 66.5441 110.721L68.1174 109.055C68.8578 108.315 69.5982 107.297 70.1535 106.186C70.8013 105.075 71.0789 104.15 71.0789 103.502C71.0789 102.484 70.5236 101.929 69.5056 101.929C68.6727 101.929 67.6547 102.391 66.4515 103.317C65.2484 104.242 64.1379 105.446 63.0273 107.019C62.0093 108.5 61.1763 110.073 60.436 111.646C59.7881 113.22 59.4179 114.515 59.4179 115.441C59.4179 116.551 59.8807 117.107 60.8987 117.107C61.6391 117.107 62.2869 116.829 63.0273 116.366C63.7677 115.811 64.6006 114.885 65.7112 113.59C65.8963 113.312 66.0814 113.034 66.359 112.757V112.757Z" fill="#27AAE1"/>
<path d="M99.8614 109.518C97.4551 111.184 95.1415 113.22 93.0129 115.534C90.8843 117.848 89.2184 120.254 88.1078 122.568L85.9792 127.01C85.4239 128.028 84.9612 128.768 84.3134 129.138C83.7581 129.509 83.0177 129.786 82.0922 129.786C81.0742 129.786 80.2413 129.509 79.5934 128.861C78.9456 128.213 78.668 127.473 78.668 126.362C78.668 125.529 78.8531 124.326 79.3158 122.845C79.7785 121.364 80.3338 119.699 80.9817 117.848C81.722 115.997 82.4624 114.146 83.4805 112.202C84.4059 110.259 85.4239 108.408 86.442 106.649C87.3674 105.076 88.2929 103.595 89.3109 102.207C90.329 100.726 91.1619 99.6158 91.9948 98.8754C93.2905 97.4872 94.5862 96.8394 95.9744 96.8394C96.8999 96.8394 97.6402 97.117 98.2881 97.6723C98.9359 98.2276 99.2136 98.968 99.2136 99.7083C99.2136 100.356 99.0285 100.911 98.7508 101.467C98.4732 102.022 97.7328 102.855 96.7148 104.151C95.7893 105.169 94.9564 106.279 94.216 107.482C93.4756 108.685 92.7352 109.889 92.365 110.814L93.0129 110.074C94.7713 108.13 96.3446 106.372 97.9179 105.076C99.4912 103.688 101.157 102.3 103.101 100.819C104.859 99.5232 106.247 98.5978 107.173 98.135C108.098 97.5797 108.839 97.3946 109.579 97.3946C110.319 97.3946 111.06 97.6723 111.615 98.3201C112.263 98.968 112.54 99.7083 112.54 100.449C112.54 101.189 112.355 101.929 111.893 102.485C111.43 103.133 110.597 103.78 109.486 104.521C108.376 105.354 107.543 106.094 106.802 106.835C106.155 107.575 105.784 108.13 105.784 108.5C105.784 109.056 106.062 109.241 106.71 109.241C107.173 109.241 107.82 108.963 108.653 108.5C109.486 107.945 110.504 107.297 111.615 106.372C112.54 105.631 113.188 105.169 113.558 104.984C113.929 104.798 114.299 104.613 114.669 104.613C115.409 104.613 115.965 104.891 116.427 105.354C116.89 105.816 117.075 106.464 117.075 107.112C117.075 108.13 116.613 109.241 115.78 110.444C114.947 111.647 113.651 112.758 112.078 113.868C108.931 116.089 105.97 117.107 103.286 117.107C101.897 117.107 100.694 116.737 99.7688 115.997C98.8434 115.256 98.3806 114.331 98.3806 113.128C98.5657 112.017 99.0285 110.814 99.8614 109.518V109.518Z" fill="#27AAE1"/>
<path d="M131.141 114.516C128.55 118.773 125.866 122.197 122.997 124.603C120.128 127.009 117.352 128.305 114.853 128.305C113.095 128.305 111.521 127.657 110.411 126.269C109.208 124.881 108.652 123.215 108.652 121.086C108.652 119.606 108.93 117.94 109.485 115.996C110.041 114.145 110.781 112.109 111.799 109.888L115.038 103.132C115.593 102.207 115.964 101.281 116.426 100.356L117.537 97.5793C118.092 96.1911 118.647 95.2656 119.203 94.8029C119.851 94.2476 120.591 94.0625 121.424 94.0625C122.349 94.0625 123.09 94.3401 123.738 94.988C124.385 95.6358 124.663 96.4687 124.663 97.4868C124.663 98.4122 124.478 99.5228 124.015 100.911C123.553 102.299 122.997 103.687 122.349 104.983L119.851 109.888C119.11 111.276 118.462 112.757 117.907 114.145C117.352 115.534 117.167 116.644 117.167 117.292C117.167 117.662 117.259 118.032 117.537 118.31C117.722 118.588 118 118.773 118.37 118.773C119.018 118.773 119.758 118.403 120.498 117.662C121.331 116.922 122.349 115.719 123.645 113.96C124.571 112.85 125.311 111.832 125.866 110.906C126.421 109.981 126.884 109.24 127.254 108.407C127.162 107.667 127.069 107.112 127.069 106.742V105.631C127.069 104.243 127.254 102.947 127.625 101.651C127.995 100.356 128.55 99.1526 129.198 98.2271C129.846 97.2091 130.586 96.3762 131.327 95.7284C132.159 95.0805 132.992 94.8029 133.825 94.8029C134.751 94.8029 135.399 95.2656 135.954 96.0985C136.509 96.9315 136.694 97.9495 136.694 99.2452C136.694 100.633 136.509 102.114 136.139 103.687C135.769 105.261 135.214 106.649 134.473 107.852C134.751 107.945 135.121 107.945 135.399 107.945C136.509 107.945 137.805 107.389 139.101 106.371C139.748 105.816 140.211 105.446 140.674 105.168C141.137 104.891 141.322 104.613 141.599 104.52C141.784 104.335 141.969 104.243 142.155 104.243C142.34 104.243 142.525 104.15 142.802 104.15C143.358 104.15 143.913 104.428 144.376 104.891C144.838 105.353 145.116 105.909 145.116 106.556C145.116 107.482 144.838 108.5 144.191 109.518C143.543 110.536 142.71 111.461 141.692 112.294C140.674 113.127 139.563 113.775 138.36 114.33C137.157 114.886 135.954 115.071 134.843 115.071C134.288 115.071 133.733 114.978 133.177 114.886C132.437 114.978 131.882 114.793 131.141 114.516V114.516Z" fill="#27AAE1"/>
<path d="M142.988 115.255C142.711 115.718 142.526 116.088 142.433 116.366C142.34 116.644 142.248 117.014 142.248 117.384C142.248 118.495 142.618 119.327 143.266 119.883C143.914 120.438 144.839 120.716 146.042 120.716C147.801 120.716 149.837 119.975 152.15 118.402C154.464 116.829 156.5 114.978 158.259 112.664L160.295 109.98C161.035 109.055 161.868 108.499 162.701 108.499C163.441 108.499 163.997 108.777 164.459 109.24C164.922 109.795 165.2 110.443 165.2 111.276C165.2 112.386 164.737 113.775 163.811 115.348C162.886 116.921 161.59 118.587 159.924 120.346C157.518 122.937 154.834 124.88 152.058 126.361C149.189 127.842 146.598 128.49 144.099 128.49C141.23 128.49 139.009 127.564 137.25 125.713C135.492 123.862 134.566 121.549 134.566 118.68C134.566 115.903 135.214 113.127 136.417 110.165C137.62 107.296 139.194 104.612 141.137 102.299C143.081 99.8925 145.209 97.949 147.523 96.4682C149.837 94.9875 152.15 94.2471 154.372 94.2471C156.223 94.2471 157.703 94.8949 158.906 96.098C160.017 97.3011 160.665 98.8745 160.665 100.818C160.665 102.669 160.202 104.52 159.369 106.278C158.536 108.037 157.426 109.703 156.037 111.091C154.649 112.479 153.076 113.682 151.318 114.515C149.559 115.348 147.708 115.811 145.857 115.811C145.302 115.811 144.932 115.718 144.562 115.626C144.006 115.44 143.544 115.348 142.988 115.255V115.255ZM145.857 108.407C146.135 108.499 146.32 108.499 146.505 108.592C146.69 108.592 146.875 108.685 147.153 108.685C147.893 108.685 148.541 108.499 149.281 108.222C150.022 107.944 150.67 107.481 151.318 106.926C151.965 106.371 152.428 105.816 152.798 105.168C153.168 104.52 153.354 103.872 153.354 103.224C153.354 102.484 153.076 102.114 152.428 102.114C151.688 102.114 150.67 102.761 149.374 104.057C148.078 105.168 146.875 106.648 145.857 108.407V108.407Z" fill="#27AAE1"/>
<path d="M167.142 116.181C167.05 116.274 167.05 116.459 167.05 116.644V117.014C167.05 117.755 167.327 118.402 167.882 118.958C168.438 119.513 169.086 119.791 169.733 119.791C171.955 119.791 175.379 116.922 179.821 111.184L181.487 109.24C182.598 107.852 183.708 107.112 184.634 107.112C185.281 107.112 185.744 107.297 186.207 107.759C186.577 108.222 186.762 108.777 186.762 109.518C186.762 110.073 186.577 110.814 186.207 111.646C185.837 112.479 185.374 113.497 184.726 114.515C184.078 115.533 183.338 116.644 182.505 117.755C181.672 118.865 180.747 119.976 179.729 120.994C175.009 125.899 170.566 128.398 166.587 128.398C164.181 128.398 162.237 127.565 160.756 125.991C159.276 124.418 158.535 122.197 158.535 119.42C158.535 117.384 158.813 115.163 159.461 112.942C160.108 110.628 161.219 107.852 162.7 104.428C163.81 101.929 165.106 99.3376 166.679 96.5612C168.253 93.8773 169.826 91.1934 171.492 88.6021C173.158 86.0107 174.824 83.6045 176.582 81.3834C178.248 79.1622 179.914 77.3113 181.302 75.8305C183.338 73.7945 185.189 72.3137 186.762 71.3882C188.335 70.4627 189.816 70 191.112 70C192.315 70 193.333 70.4627 193.981 71.3882C194.721 72.3137 194.999 73.5168 194.999 74.905C194.999 76.3858 194.721 78.0516 194.259 79.9951C193.703 81.9386 193.055 83.9747 192.13 86.1033C191.204 88.2319 190.094 90.3605 188.798 92.6742C187.503 94.8953 186.114 97.1165 184.448 99.3376C182.042 102.577 179.451 105.538 176.675 108.222C173.991 110.814 170.844 113.497 167.142 116.181V116.181ZM170.011 106.741C172.047 104.798 173.898 102.947 175.379 101.281C176.952 99.5227 178.433 97.5792 180.006 95.3581C181.024 93.9698 181.95 92.4891 182.875 91.0083C183.801 89.5276 184.541 88.0468 185.189 86.6586C185.837 85.2704 186.392 84.0672 186.855 82.9567C187.225 81.9386 187.503 81.1057 187.503 80.4579C187.503 79.9026 187.317 79.625 186.855 79.625C186.207 79.625 185.281 80.3653 183.986 81.9386C182.69 83.512 181.209 85.7331 179.451 88.6021C178.711 89.7126 178.063 90.8232 177.415 91.9338C176.767 93.0444 175.842 94.8028 174.731 96.9314C173.991 98.227 173.435 99.3376 172.973 100.263C172.51 101.189 172.047 102.021 171.677 102.762C171.307 103.502 171.029 104.15 170.751 104.798C170.566 105.446 170.289 106.094 170.011 106.741V106.741Z" fill="#27AAE1"/>
</svg>
