<svg width="200" height="151" viewBox="0 0 200 151" fill="none" xmlns="http://www.w3.org/2000/svg">
<path d="M109.287 146.005L161.431 113.031C161.624 112.912 161.877 112.964 161.995 113.157C162.114 113.35 162.062 113.602 161.869 113.721L109.554 146.799C109.487 146.844 109.413 146.866 109.339 146.866L109.287 146.005Z" fill="url(#paint0_linear)"/>
<path d="M109.34 146.866C109.295 146.866 109.243 146.859 109.199 146.844L38.1071 120.349C37.8919 120.267 37.7879 120.037 37.8696 119.822C37.9512 119.607 38.1813 119.503 38.3965 119.584L109.303 146.005L109.34 146.866Z" fill="url(#paint1_linear)"/>
<path d="M183.943 20.1867L175.735 33.7756L142.76 47.7951L140.927 48.5743L111.293 76.2866C110.721 76.8581 110.335 77.6744 110.269 78.1271C110.239 78.283 110.105 78.2162 109.979 78.2088C109.846 78.2014 109.66 78.2533 109.645 78.09C109.63 77.4963 109.564 76.8358 108.606 76.2421L93.7555 66.6237L82.9274 59.6028L52.4246 51.7804L26.8943 45.2346L10.7227 20.1125L10.9676 19.8305L10.9824 19.8082L71.6911 4.02986C71.7802 4.00017 71.795 4.01466 71.8321 4.06697L92.5384 35.0818L92.9466 35.6904C93.3919 36.3435 93.4364 36.7443 93.4364 37.0337H93.8149C93.8149 37.0115 93.8149 36.9892 93.8149 36.9669C93.8149 36.9372 93.8149 36.9001 93.8223 36.863C93.8223 36.8408 93.8297 36.8185 93.8297 36.7888C93.8372 36.7591 93.8372 36.7294 93.8446 36.6998C93.852 36.6701 93.852 36.6404 93.8594 36.6033C93.8817 36.4994 93.9114 36.3806 93.9411 36.2619C93.9485 36.2248 93.9633 36.1877 93.9708 36.158C94.0079 36.0392 94.045 35.9131 94.0895 35.7943C94.1118 35.7498 94.1266 35.6978 94.1489 35.6533C94.2083 35.5049 94.2676 35.3713 94.3344 35.2525C94.3938 35.1338 94.4532 35.0373 94.5125 34.9557L113.178 7.80746C113.222 7.74066 113.245 7.71098 113.341 7.72582L183.824 19.8527L183.943 20.1867Z" fill="#E8B67F"/>
<path d="M93.7547 66.6161H93.7473L82.9266 59.6027L52.4238 51.7803L93.4356 37.0336L93.5469 36.8184V37.0336L93.7547 66.6161Z" fill="url(#paint2_linear)"/>
<path d="M93.4364 37.0339L52.4246 51.7732L48.7287 50.8233L26.8943 45.2199L10.7227 20.0978L10.9824 19.7935L71.6911 4.01521C71.7802 3.98553 71.795 4.00002 71.8321 4.05232L92.5384 35.0672L92.9466 35.6758C93.3919 36.3437 93.4364 36.7445 93.4364 37.0339Z" fill="url(#paint3_linear)"/>
<path d="M93.5804 38.6003L54.8025 52.538L48.7539 50.9869L92.5636 35.2383L92.9718 35.8469C93.4171 36.5 93.4616 36.9007 93.4616 37.1902H93.573L93.5804 38.6003Z" fill="url(#paint4_linear)"/>
<path d="M27.4494 45.3674L26.9002 45.2264L10.7285 20.1043L10.9734 19.8223L27.4494 45.3674Z" fill="#D2A679"/>
<path d="M142.76 47.7953L140.927 48.5746L111.292 76.2868C110.721 76.8583 110.335 77.6747 110.268 78.1274C110.238 78.2832 110.105 78.2164 109.979 78.209C109.845 78.2016 109.66 78.2536 109.645 78.0903C109.63 77.4966 109.563 76.836 108.606 76.2423L93.7551 66.6165L93.5547 37.0414V36.8262L93.8293 37.0414L142.76 47.7953Z" fill="url(#paint5_linear)"/>
<path d="M183.943 20.1869L175.735 33.7758L145.722 46.5336L142.768 47.7878L93.8226 37.0339C93.7929 36.6554 94.0527 35.7945 94.3347 35.2453C94.3941 35.1266 94.4535 35.0301 94.5128 34.9484L113.178 7.80023C113.223 7.73343 113.245 7.70375 113.341 7.71859L183.824 19.8455L183.943 20.1869Z" fill="url(#paint6_linear)"/>
<path d="M145.721 46.534L140.934 48.5675L140.318 49.1612L93.5469 38.8229L93.7621 37.0269H93.8215C93.7918 36.6484 94.0515 35.7875 94.3336 35.2383L145.721 46.534Z" fill="url(#paint7_linear)"/>
<path opacity="0.75" d="M94.8452 37.2568V67.3217L93.7542 66.6167H93.7468L92.3145 65.6816V37.4349L93.4351 37.0342H93.8136L94.8452 37.2568Z" fill="url(#paint8_linear)"/>
<path d="M109.051 146.383L37.9 119.836C37.4992 119.666 37.4398 119.287 37.4176 118.82C37.4176 118.82 34.3599 58.1851 34.3524 58.1777C34.345 58.0219 34.538 57.9254 34.5231 57.8289C34.4712 57.5988 34.0333 56.7305 33.8923 56.6414L5 40.2249L5.24491 39.6682L82.9268 59.6027L108.598 76.2345C109.556 76.8282 109.63 77.4887 109.637 78.0825C109.645 78.2457 109.838 78.1938 109.971 78.2012C110.105 78.2086 110.231 78.2754 110.261 78.1196C110.327 77.6668 110.713 76.8505 111.285 76.2864L140.919 48.5742L194.659 25.7305L194.986 26.1832L165.975 51.6764C165.411 52.2404 165.151 52.9306 165.262 53.2127L162.293 112.637C162.249 113.016 162.071 113.127 161.692 113.387L109.682 146.309C109.474 146.443 109.251 146.48 109.051 146.383Z" fill="#BF9064"/>
<path d="M109.972 78.2014L109.46 146.413C109.319 146.45 109.178 146.443 109.044 146.384L37.8932 119.844C37.4925 119.673 37.4331 119.287 37.4108 118.827C37.4108 118.827 34.3457 58.1928 34.3457 58.1853V58.1705C34.3457 58.1557 34.3457 58.1408 34.3531 58.126C34.3531 58.1111 34.3605 58.1037 34.368 58.0963C34.3754 58.0814 34.3828 58.074 34.3902 58.0592C34.3977 58.0443 34.4051 58.0369 34.4125 58.0221C34.4422 57.9775 34.4867 57.933 34.5016 57.8959C34.509 57.8885 34.509 57.8811 34.509 57.8736C34.509 57.8736 34.509 57.8736 34.509 57.8662L109.645 78.1123C109.675 78.2459 109.853 78.194 109.972 78.2014Z" fill="#BD8F63"/>
<path opacity="0.54" d="M109.465 146.213V146.406C109.324 146.443 109.183 146.436 109.049 146.377L37.8984 119.837C37.6164 119.718 37.5051 119.488 37.4531 119.206L109.465 146.213Z" fill="url(#paint9_linear)"/>
<path d="M77.293 104.838L104.842 113.848L104.775 140.714L77.7383 130.784L77.293 104.838ZM91.0971 122.887L91.1639 135.333L104.507 140.235L104.508 127.548L91.0971 122.887ZM95.0393 126.908L97.7358 131.199L100.377 128.885L100.837 129.41L98.1113 131.798L100.843 136.145L100.447 136.394L97.7551 132.109L95.1266 134.413L94.6668 133.889L97.3795 131.511L94.6435 127.157L95.0393 126.908ZM102.979 131.741V132.966L103.684 133.196V134.576L102.979 134.294V135.407L101.435 133.062L102.979 131.741ZM100.604 130.249L101.146 130.42V135.311L100.604 135.118V130.249ZM77.8347 118.278L78.0351 130.531L90.7854 135.192L90.7112 122.776L77.8347 118.278ZM97.7692 132.884L99.1644 135.133L96.3813 134.124L97.7692 132.884ZM99.9214 130.821V134.012L98.4742 131.971L99.9214 130.821ZM94.3998 127.978L94.9341 128.157V133.04L94.3998 132.854V127.978ZM95.6021 129.292L96.9825 131.422L95.6021 132.483V129.292ZM84.0689 123.377L84.5958 123.548L84.597 123.861C86.1656 124.492 87.7153 126.066 88.4625 128.513C87.9727 127.689 87.5422 127.533 86.7778 127.793C86.4958 127.207 85.6645 126.895 85.1673 127.207C85.0314 126.948 84.8317 126.755 84.6139 126.63L84.6404 131.288C84.6404 131.719 84.3435 132.105 83.6088 131.956C82.9408 131.793 82.6662 131.281 82.7404 130.405L83.1115 130.465C83.1115 131.051 83.156 131.385 83.6013 131.489C83.9798 131.578 84.1505 131.437 84.1505 131.088L84.1015 126.468C83.8907 126.453 83.6956 126.505 83.5568 126.628C83.3861 126.197 82.5771 125.618 81.9686 126.049C81.5381 125.366 80.7292 125.106 80.2765 125.604C80.8542 123.856 82.4247 123.243 84.0714 123.685L84.0689 123.377ZM92.5147 127.926L94.0213 130.301L92.5295 131.541L92.5592 130.376L91.8319 130.205V128.854L92.5147 129.107V127.926ZM96.3368 128.439L99.157 129.463L97.7469 130.702L96.3368 128.439ZM91.0749 109.736L91.1046 122.427L104.515 127.103V114.137L91.0749 109.736ZM93.576 120.698L101.591 123.436V125.032L93.576 122.271V120.698ZM86.6453 123.717L86.6739 123.726C86.7258 123.778 86.7258 124.334 86.5551 124.461C86.4735 124.498 86.3473 124.505 86.2434 124.424C86.1395 124.342 86.0801 124.223 86.1247 124.045C86.1692 123.867 86.6145 123.674 86.6739 123.726L86.6453 123.717ZM87.3874 122.448L87.416 122.457C87.4754 122.509 87.4754 123.065 87.2973 123.192C87.2157 123.229 87.0895 123.236 86.9856 123.154C86.8817 123.073 86.8223 122.954 86.8668 122.776C86.9114 122.598 87.3567 122.405 87.416 122.457L87.3874 122.448ZM85.3094 122.396L85.338 122.405C85.3974 122.457 85.3974 123.013 85.2192 123.14C85.1376 123.177 85.0114 123.184 84.9075 123.102C84.8036 123.021 84.7443 122.902 84.7888 122.724C84.8333 122.546 85.2786 122.353 85.338 122.405L85.3094 122.396ZM83.2091 122.092L83.2377 122.101C83.297 122.152 83.297 122.709 83.1189 122.835C83.0373 122.872 82.9111 122.88 82.8072 122.798C82.7033 122.717 82.6439 122.598 82.6885 122.42C82.733 122.242 83.1783 122.049 83.2377 122.101L83.2091 122.092ZM99.7656 113.759L101.71 117.596L100.382 117.143V122.702L99.0531 122.242L99.0605 116.727L97.7395 116.297L99.7656 113.759ZM77.5824 105.313L77.8125 117.833L90.7186 122.271L90.6073 109.588L77.5824 105.313ZM95.3794 112.297L97.3239 116.134L95.9954 115.681V121.24L94.6669 120.779L94.6818 115.265L93.3533 114.835L95.3794 112.297ZM80.4694 107.829L81.5233 108.178L82.0131 109.951L81.4639 109.914L83.0299 113.699L82.2209 110.582L82.681 110.575L82.2135 108.4L87.6535 110.196V113.187C87.6535 114.323 86.4215 115.755 84.6849 115.043L84.6923 118.048L87.186 119.651L81.1522 117.559L83.5791 117.677L83.5345 114.701C81.8127 114.189 80.5659 112.118 80.5659 110.857L80.4694 107.829Z" fill="#322214"/>
<path d="M109.971 78.2019C109.674 78.2093 109.452 78.6027 109.444 78.9589L109.377 78.9886L34.345 58.1784C34.3376 58.0374 34.5009 57.9484 34.5157 57.8593C34.5231 57.8519 34.5231 57.8444 34.5157 57.837C34.4638 57.607 34.0259 56.7386 33.8849 56.6496L5 40.2256L5.24491 39.6689L82.9194 59.596H82.9268L108.598 76.2278C109.556 76.8289 109.63 77.482 109.637 78.0757C109.637 78.0832 109.637 78.098 109.645 78.1054C109.674 78.2464 109.852 78.1945 109.971 78.2019Z" fill="url(#paint10_linear)"/>
<path d="M165.982 51.6695C165.418 52.2336 165.159 52.9238 165.27 53.2058L110.625 79.0627L110.513 78.9736C110.506 78.5432 110.231 78.2537 110.023 78.2092C110.135 78.224 110.239 78.2612 110.268 78.1201C110.283 78.0311 110.305 77.9272 110.343 77.8159C110.372 77.7194 110.417 77.6155 110.469 77.5041C110.625 77.1479 110.862 76.762 111.166 76.4206C111.211 76.3761 111.255 76.3241 111.3 76.2796L140.934 48.5673L194.674 25.7236L195.001 26.1764L165.982 51.6695Z" fill="#CD9C6B"/>
<path d="M76.2461 84.9996C76.3278 85.0219 76.3575 85.0293 76.3575 84.9625L76.0754 69.867C76.0532 69.3549 75.927 68.3455 75.311 67.9374L47.9476 51.313L35.123 48.0029L62.9318 64.6199C63.6294 65.08 63.6888 65.9409 63.7185 66.5792L64.1192 81.2591C64.1192 81.3333 64.1341 81.3482 64.186 81.3705L76.2461 84.9996Z" fill="url(#paint11_linear)"/>
<path d="M109.972 78.2017C109.668 78.2091 109.445 78.6247 109.445 78.9883C109.438 79.018 109.386 79.0106 109.378 78.9883C109.319 78.1794 108.985 77.274 108.547 76.9548L82.668 60.2711L82.9203 59.5957H82.9277L108.599 76.2275C109.556 76.8287 109.631 77.4818 109.638 78.0755C109.638 78.0829 109.638 78.0978 109.645 78.1052C109.675 78.2462 109.853 78.1942 109.972 78.2017Z" fill="#D4A271"/>
<path d="M82.9194 59.6028L82.6671 60.2707L5 40.225L5.24491 39.6758L82.9194 59.6028Z" fill="#DEB37E"/>
<path d="M165.277 53.2055L162.309 112.63C162.264 113.009 162.086 113.12 161.707 113.38L109.697 146.302C109.623 146.354 109.541 146.384 109.467 146.406L109.979 78.194C110.112 78.2014 110.239 78.2682 110.268 78.1124C110.268 78.0901 110.276 78.0753 110.276 78.053L165.262 53.1387C165.262 53.1758 165.27 53.1906 165.277 53.2055Z" fill="#DBAD77"/>
<path opacity="0.54" d="M162.309 112.608V112.638C162.264 113.017 162.086 113.128 161.707 113.388L109.697 146.31C109.623 146.362 109.541 146.392 109.467 146.414V146.221L162.309 112.608Z" fill="url(#paint12_linear)"/>
<path d="M161.335 86.751L160.148 110.945L142.855 121.714L143.746 96.5326L161.335 86.751ZM152.088 104.266L143.494 109.32L143.086 121.232L151.643 115.91L152.088 104.266ZM147.984 109.379L147.968 109.78C148.995 109.268 149.965 109.625 150.374 111.324C150.092 110.931 149.579 111.086 149.238 111.888C149.082 111.554 148.288 111.829 148.169 112.526C148.106 112.413 147.992 112.372 147.861 112.386L147.672 116.979C147.657 117.373 147.635 117.796 147.138 118.1C146.908 118.204 146.299 118.285 146.381 117.432L146.67 117.209C146.648 117.751 146.789 117.914 147.086 117.736C147.442 117.521 147.375 117.18 147.39 116.86L147.55 112.509C147.342 112.646 147.152 112.886 147.101 113.172C147.012 112.905 146.151 113.068 146.047 113.832C145.802 113.506 145.134 113.825 144.882 114.649C145.347 112.509 146.498 110.734 147.645 109.969L147.657 109.617L147.984 109.379ZM160.526 99.2786L152.333 104.125L151.88 115.799L159.985 110.7L160.526 99.2786ZM157.996 103.212L158.233 103.435L156.447 107.485L157.921 109.52L157.684 110.025L156.214 108.014L154.448 112.022L154.203 111.799L156.002 107.724L154.478 105.639L154.745 105.134L156.236 107.194L157.996 103.212ZM153.008 107.865L153.936 108.994L152.949 111.116V110.181L152.533 110.433L152.556 109.224L152.971 108.979L153.008 107.865ZM154.611 106.396L154.418 110.871L154.084 111.094L154.27 106.633L154.611 106.396ZM156.177 108.734L156.971 109.78L155.264 110.819L156.177 108.734ZM147.086 109.06C147.123 109.06 147.101 109.572 146.974 109.825C146.93 109.914 146.848 110.01 146.781 110.018C146.715 110.025 146.685 109.951 146.722 109.758C146.759 109.565 147.049 109.06 147.086 109.06ZM154.982 107.005L155.769 107.977L154.849 109.795L154.982 107.005ZM149.342 108.133C149.372 108.14 149.349 108.652 149.231 108.897C149.186 108.986 149.104 109.083 149.038 109.09C148.971 109.097 148.941 109.023 148.978 108.83C149.015 108.637 149.305 108.133 149.342 108.133ZM152.637 91.9238L143.954 96.7924L143.501 108.942L152.118 103.865L152.637 91.9238ZM158.359 104.118L158.151 108.585L157.855 108.778L158.055 104.318L158.359 104.118ZM148.526 107.799C148.563 107.799 148.54 108.311 148.414 108.563C148.37 108.652 148.288 108.749 148.221 108.756C148.154 108.763 148.125 108.689 148.162 108.496C148.199 108.303 148.488 107.799 148.526 107.799ZM157.595 105.416L157.476 108.266L156.704 107.346L157.595 105.416ZM159.435 104.058L159.391 105.157L159.821 104.919L159.769 106.136L159.354 106.381L159.339 107.383L158.441 106.307L159.435 104.058ZM149.913 106.329C149.951 106.329 149.928 106.841 149.802 107.094C149.758 107.183 149.676 107.279 149.609 107.287C149.542 107.294 149.513 107.22 149.55 107.027C149.587 106.834 149.876 106.329 149.913 106.329ZM157.172 104.607L156.251 106.715L155.457 105.639L157.172 104.607ZM150.618 94.5066L150.507 97.5643C150.463 98.6033 149.631 100.488 148.392 101.275L148.258 104.162L149.913 103.806L145.883 106.136L147.561 104.541L147.65 101.706C146.574 102.321 145.713 101.179 145.765 100.021L145.861 97.2154L146.589 96.8221L146.826 98.1728L146.433 98.4919L147.301 101.008L146.967 98.7146L147.264 98.3732L147.034 96.5698L150.618 94.5066ZM161.157 87.1888L152.845 91.8348L152.325 103.776L160.563 98.8482L161.157 87.1888ZM158.99 97.4826L158.886 98.9001L154.018 101.78L154.084 100.347L158.99 97.4826ZM155.546 91.3598L156.623 93.6308L155.814 94.0835L155.569 99.1822L154.797 99.6275L154.945 94.5288L154.166 94.9964L155.546 91.3598ZM158.248 89.8606L159.294 92.0945L158.433 92.5769L158.255 97.6385L157.431 98.0986L157.691 93L156.882 93.4601L158.248 89.8606Z" fill="#322214"/>
<path d="M141.364 49.1541L111.982 76.4656C111.151 77.2597 110.602 78.4471 110.624 79.0631C110.609 79.0928 110.535 79.1151 110.505 79.0631C110.543 78.5882 110.238 78.2616 110.016 78.2097C110.127 78.2245 110.231 78.2616 110.261 78.1206C110.275 78.0315 110.298 77.9276 110.335 77.8163C110.364 77.7198 110.409 77.6159 110.461 77.5046C110.639 77.1038 110.928 76.6437 111.285 76.2875L140.919 48.5752L141.364 49.1541Z" fill="#D7AA77"/>
<path d="M134.887 82.2832C134.887 82.3649 134.924 82.402 134.976 82.3797L143.8 77.8525C143.815 77.8451 143.822 77.8303 143.83 77.8006L144.32 63.3359C144.334 62.5418 144.78 61.7551 145.388 61.2133L174.696 34.874L165.775 38.6961L136.319 65.3842C135.562 66.1264 135.302 67.0021 135.287 67.7443L134.887 82.2832Z" fill="url(#paint13_linear)"/>
<path d="M141.364 49.153L194.992 26.1758L194.666 25.7305L140.926 48.5667L141.364 49.153Z" fill="#F8CE93"/>
<defs>
<linearGradient id="paint0_linear" x1="135.348" y1="129.748" x2="135.624" y2="130.185" gradientUnits="userSpaceOnUse">
<stop/>
<stop offset="1" stop-opacity="0"/>
</linearGradient>
<linearGradient id="paint1_linear" x1="73.696" y1="133.194" x2="73.66" y2="133.29" gradientUnits="userSpaceOnUse">
<stop/>
<stop offset="1" stop-opacity="0"/>
</linearGradient>
<linearGradient id="paint2_linear" x1="86.1097" y1="50.6883" x2="90.8091" y2="52.6363" gradientUnits="userSpaceOnUse">
<stop stop-color="#C37A44"/>
<stop offset="0.4442" stop-color="#BB713D"/>
<stop offset="0.6406" stop-color="#A05728"/>
<stop offset="1" stop-color="#964E23"/>
</linearGradient>
<linearGradient id="paint3_linear" x1="63.2254" y1="33.2944" x2="53.032" y2="18.9869" gradientUnits="userSpaceOnUse">
<stop stop-color="#E9B880"/>
<stop offset="1" stop-color="#E4AF76"/>
</linearGradient>
<linearGradient id="paint4_linear" x1="71.5681" y1="44.0815" x2="71.3753" y2="43.5503" gradientUnits="userSpaceOnUse">
<stop stop-color="#C37A45" stop-opacity="0"/>
<stop offset="0.1334" stop-color="#C37A45"/>
<stop offset="0.2945" stop-color="#D08D55"/>
<stop offset="0.5021" stop-color="#DEA167"/>
<stop offset="0.6966" stop-color="#E8AF73"/>
<stop offset="0.8631" stop-color="#ECB477"/>
<stop offset="1" stop-color="#ECB477" stop-opacity="0"/>
</linearGradient>
<linearGradient id="paint5_linear" x1="116.889" y1="48.8071" x2="107.568" y2="70.2305" gradientUnits="userSpaceOnUse">
<stop offset="0.0881" stop-color="#AF6938"/>
<stop offset="0.4829" stop-color="#9A5227"/>
<stop offset="0.7792" stop-color="#8D4520"/>
</linearGradient>
<linearGradient id="paint6_linear" x1="130.903" y1="30.6717" x2="136.289" y2="20.988" gradientUnits="userSpaceOnUse">
<stop offset="0.0327" stop-color="#E4AF76"/>
<stop offset="1" stop-color="#E9B880"/>
</linearGradient>
<linearGradient id="paint7_linear" x1="119.438" y1="42.2652" x2="119.502" y2="41.9822" gradientUnits="userSpaceOnUse">
<stop stop-color="#AF6A38" stop-opacity="0"/>
<stop offset="0.086" stop-color="#AF6A38"/>
<stop offset="0.1977" stop-color="#B87542"/>
<stop offset="0.5828" stop-color="#D59C66"/>
<stop offset="0.7771" stop-color="#E4AF76"/>
<stop offset="0.9239" stop-color="#E4AF76" stop-opacity="0"/>
</linearGradient>
<linearGradient id="paint8_linear" x1="92.5223" y1="52.1799" x2="94.6742" y2="52.1799" gradientUnits="userSpaceOnUse">
<stop stop-color="#743F1A" stop-opacity="0"/>
<stop offset="0.4929" stop-color="#743F1A" stop-opacity="0.8872"/>
<stop offset="0.5" stop-color="#743F1A" stop-opacity="0.9"/>
<stop offset="0.5297" stop-color="#743F1A" stop-opacity="0.8466"/>
<stop offset="1" stop-color="#743F1A" stop-opacity="0"/>
</linearGradient>
<linearGradient id="paint9_linear" x1="73.3878" y1="132.842" x2="73.405" y2="132.796" gradientUnits="userSpaceOnUse">
<stop stop-color="#322214"/>
<stop offset="0.2397" stop-color="#322314" stop-opacity="0.9891"/>
<stop offset="1" stop-color="#322214" stop-opacity="0"/>
</linearGradient>
<linearGradient id="paint10_linear" x1="58.9343" y1="58.6351" x2="58.3434" y2="60.607" gradientUnits="userSpaceOnUse">
<stop offset="0.0476" stop-color="#C69866"/>
<stop offset="0.4156" stop-color="#BA8C5E"/>
<stop offset="0.8135" stop-color="#B5875B"/>
</linearGradient>
<linearGradient id="paint11_linear" x1="61.1166" y1="65.3409" x2="47.1086" y2="49.7835" gradientUnits="userSpaceOnUse">
<stop stop-color="#845F35"/>
<stop offset="0.4311" stop-color="#91673C"/>
<stop offset="0.4407" stop-color="#976A40"/>
<stop offset="0.8737" stop-color="#986B40"/>
<stop offset="1" stop-color="#AB8157"/>
</linearGradient>
<linearGradient id="paint12_linear" x1="135.887" y1="129.512" x2="135.921" y2="129.565" gradientUnits="userSpaceOnUse">
<stop stop-color="#322214" stop-opacity="0"/>
<stop offset="1" stop-color="#322214"/>
</linearGradient>
<linearGradient id="paint13_linear" x1="153.062" y1="64.6273" x2="155.764" y2="50.9635" gradientUnits="userSpaceOnUse">
<stop stop-color="#A9794B"/>
<stop offset="0.3857" stop-color="#AE7F53"/>
<stop offset="0.4557" stop-color="#AC7D50"/>
<stop offset="0.6236" stop-color="#A9794B"/>
<stop offset="1" stop-color="#B2875D"/>
</linearGradient>
</defs>
</svg>
