<svg width="200" height="200" viewBox="0 0 200 200" fill="none" xmlns="http://www.w3.org/2000/svg">
<path d="M196 100.066C196 87.4134 180.155 75.4223 155.861 67.9863C161.467 43.2256 158.976 23.5261 147.997 17.2191C145.466 15.7397 142.508 15.0389 139.276 15.0389V23.7208C141.067 23.7208 142.508 24.0711 143.714 24.733C149.009 27.7697 151.306 39.3324 149.515 54.2044C149.087 57.864 148.386 61.7183 147.53 65.6504C139.899 63.7817 131.568 62.3412 122.808 61.4068C117.552 54.2044 112.102 47.6639 106.612 41.9409C119.304 30.1445 131.217 23.6818 139.315 23.6818V15C128.609 15 114.593 22.6307 100.422 35.8675C86.2509 22.7085 72.2354 15.1557 61.5291 15.1557V23.8375C69.5881 23.8375 81.5402 30.2613 94.232 41.9798C88.7815 47.7028 83.331 54.2044 78.1531 61.4068C69.3545 62.3412 61.023 63.7817 53.3924 65.6894C52.4969 61.7962 51.8351 58.0198 51.3679 54.3991C49.5381 39.5271 51.7962 27.9643 57.052 24.8887C58.2199 24.1879 59.7383 23.8765 61.5291 23.8765V15.1947C58.2589 15.1947 55.3 15.8954 52.7305 17.3748C41.7907 23.6818 39.338 43.3424 44.9831 68.0253C20.7674 75.5002 5 87.4523 5 100.066C5 112.719 20.8453 124.71 45.1388 132.146C39.5326 156.907 42.0243 176.606 53.0031 182.913C55.5336 184.393 58.4925 185.094 61.7627 185.094C72.469 185.094 86.4845 177.463 100.656 164.226C114.827 177.385 128.842 184.938 139.549 184.938C142.819 184.938 145.778 184.237 148.347 182.758C159.287 176.451 161.74 156.79 156.095 132.107C180.233 124.671 196 112.68 196 100.066V100.066ZM145.311 74.0987C143.87 79.1209 142.079 84.2988 140.055 89.4768C138.459 86.3622 136.785 83.2477 134.955 80.1331C133.164 77.0186 131.256 73.9819 129.349 71.023C134.877 71.8406 140.211 72.8528 145.311 74.0987ZM127.48 115.561C124.443 120.817 121.329 125.8 118.097 130.433C112.296 130.939 106.418 131.212 100.5 131.212C94.6213 131.212 88.7426 130.939 82.9806 130.472C79.7493 125.839 76.5958 120.895 73.5591 115.678C70.6003 110.578 67.914 105.4 65.4613 100.183C67.8751 94.9662 70.6003 89.7493 73.5202 84.6492C76.5569 79.3934 79.6714 74.4101 82.9028 69.7772C88.7036 69.2711 94.5824 68.9986 100.5 68.9986C106.379 68.9986 112.257 69.2711 118.019 69.7383C121.251 74.3712 124.404 79.3155 127.441 84.5324C130.4 89.6325 133.086 94.8104 135.539 100.027C133.086 105.244 130.4 110.461 127.48 115.561ZM140.055 110.5C142.157 115.717 143.948 120.934 145.427 125.995C140.327 127.241 134.955 128.292 129.387 129.109C131.295 126.112 133.203 123.036 134.994 119.883C136.785 116.768 138.459 113.615 140.055 110.5ZM100.578 152.04C96.9572 148.303 93.3365 144.137 89.7548 139.582C93.2587 139.738 96.8404 139.855 100.461 139.855C104.121 139.855 107.741 139.777 111.284 139.582C107.78 144.137 104.16 148.303 100.578 152.04ZM71.6125 129.109C66.0842 128.292 60.7505 127.28 55.6504 126.034C57.0909 121.012 58.8818 115.834 60.9062 110.656C62.5024 113.77 64.1765 116.885 66.0063 119.999C67.8361 123.114 69.7048 126.151 71.6125 129.109ZM100.383 48.0921C104.004 51.8296 107.625 55.9953 111.206 60.5503C107.702 60.3946 104.121 60.2778 100.5 60.2778C96.8404 60.2778 93.2197 60.3557 89.6769 60.5503C93.1808 55.9953 96.8015 51.8296 100.383 48.0921ZM71.5736 71.023C69.6659 74.0208 67.7583 77.0964 65.9674 80.2499C64.1765 83.3645 62.5024 86.479 60.9062 89.5936C58.8039 84.3767 57.013 79.1598 55.5336 74.0987C60.6337 72.8918 66.0063 71.8406 71.5736 71.023V71.023ZM36.3402 119.766C22.5583 113.887 13.6429 106.179 13.6429 100.066C13.6429 93.9539 22.5583 86.2065 36.3402 80.3667C39.6883 78.9262 43.3479 77.6415 47.1243 76.4346C49.3435 84.0652 52.2634 92.0073 55.884 100.144C52.3023 108.242 49.4213 116.145 47.2411 123.737C43.3869 122.53 39.7273 121.206 36.3402 119.766ZM57.2856 175.4C51.9908 172.363 49.6938 160.8 51.4847 145.928C51.913 142.268 52.6137 138.414 53.4702 134.482C61.1009 136.351 69.4323 137.791 78.192 138.726C83.4478 145.928 88.8983 152.469 94.3877 158.192C81.6959 169.988 69.7827 176.451 61.6849 176.451C59.9329 176.412 58.4535 176.061 57.2856 175.4V175.4ZM149.632 145.733C151.462 160.605 149.204 172.168 143.948 175.244C142.78 175.945 141.262 176.256 139.471 176.256C131.412 176.256 119.46 169.832 106.768 158.114C112.219 152.391 117.669 145.889 122.847 138.687C131.646 137.752 139.977 136.312 147.608 134.404C148.503 138.336 149.204 142.113 149.632 145.733V145.733ZM164.621 119.766C161.273 121.206 157.613 122.491 153.837 123.698C151.618 116.067 148.698 108.125 145.077 99.9884C148.659 91.8905 151.54 83.9874 153.72 76.3956C157.574 77.6025 161.234 78.9262 164.66 80.3667C178.442 86.2454 187.357 93.9539 187.357 100.066C187.318 106.179 178.403 113.926 164.621 119.766V119.766Z" fill="#61DAFB"/>
<path d="M100.462 117.858C110.288 117.858 118.254 109.892 118.254 100.066C118.254 90.2401 110.288 82.2744 100.462 82.2744C90.6356 82.2744 82.6699 90.2401 82.6699 100.066C82.6699 109.892 90.6356 117.858 100.462 117.858Z" fill="#61DAFB"/>
</svg>
