<svg width="200" height="200" viewBox="0 0 200 200" fill="none" xmlns="http://www.w3.org/2000/svg">
<path d="M98.5127 15C86.0897 15 74.4245 18.2411 64.3096 23.9163L120.543 151.269L120.43 151.496C148.354 142.296 168.513 116.004 168.513 85C168.513 46.3404 137.172 15 98.5127 15V15Z" fill="#7AC6FF"/>
<path d="M118.404 130.107H84.8783L84.2634 141.849C84.0625 145.685 83.1127 149.442 81.4766 152.908C86.9308 154.272 92.6373 155 98.5134 155C106.422 155 114.025 153.686 121.115 151.269C119.914 148.274 119.209 145.096 119.035 141.859L118.404 130.107Z" fill="#686969"/>
<path d="M89.9307 140.726H113.388C115.649 140.726 117.697 141.681 119.142 143.214C119.097 142.764 119.059 142.312 119.036 141.859L118.405 130.107H84.8771L84.2633 141.848C84.2387 142.312 84.203 142.774 84.1572 143.235C85.6025 141.69 87.6583 140.726 89.9307 140.726V140.726Z" fill="#909192"/>
<path d="M101.657 114.269L174.799 114.737V29.1708C174.799 26.1396 172.319 23.6597 169.288 23.6597C166.529 23.6597 103.856 23.6597 64.7693 23.6597C43.1576 35.5748 28.5137 58.576 28.5137 85.0001C28.5137 95.6173 30.882 105.68 35.1119 114.694L101.657 114.269Z" fill="#141313"/>
<path d="M36.6848 52.1606C36.4728 52.5591 36.2619 52.9598 36.0576 53.3627V67.8024H40.3043V106.346H166.827C167.064 106.346 167.256 106.153 167.256 105.915V52.1606H36.6848Z" fill="#E6F7FE"/>
<path d="M36.0576 53.3627V74.5792C36.0576 74.8169 36.2496 75.0089 36.4873 75.0089H166.827C167.064 75.0089 167.256 74.8169 167.256 74.5792V52.1606H36.6848C36.4728 52.5602 36.2619 52.9598 36.0576 53.3627V53.3627Z" fill="#FECD0A"/>
<path d="M53.9393 52.1606H36.6848C36.4728 52.5602 36.2619 52.9598 36.0576 53.3627V74.5792C36.0576 74.8169 36.2496 75.0089 36.4873 75.0089H53.9404V52.1606H53.9393Z" fill="#FCA60D"/>
<path d="M45.4611 130.665H169.288C172.319 130.665 174.799 128.186 174.799 125.155V113.902C168.891 113.902 63.2278 113.902 34.7412 113.902C37.5135 120.01 41.1374 125.647 45.4611 130.665Z" fill="#A0A3A5"/>
<path d="M105.427 122.284C105.427 124.368 103.739 126.056 101.656 126.056C99.5734 126.056 97.8848 124.368 97.8848 122.284C97.8848 120.201 99.5734 118.513 101.656 118.513C103.739 118.513 105.427 120.201 105.427 122.284V122.284Z" fill="#D5F1FE"/>
<path d="M41.0275 45.0545C40.9616 45.1505 40.8947 45.2454 40.8288 45.3414C40.6279 45.6327 40.4293 45.9251 40.2328 46.2186C40.1982 46.2711 40.1648 46.3224 40.1302 46.3749C39.4929 47.3369 38.8779 48.3157 38.2875 49.3101C38.2328 49.4016 38.1793 49.4932 38.1257 49.5847C37.9404 49.8983 37.7574 50.2141 37.5777 50.5311C37.5621 50.559 37.5465 50.588 37.5308 50.6159C37.129 51.3246 36.7407 52.0423 36.3634 52.7666C36.3634 52.7677 36.3623 52.7688 36.3623 52.7688L167.255 52.77V44.1807H41.6447C41.436 44.4697 41.2317 44.7621 41.0275 45.0545V45.0545Z" fill="#D5F1FE"/>
<path d="M166.589 31.2031H53.7275C49.1159 35.0469 45.0043 39.4721 41.5088 44.3672H167.255V31.8705C167.255 31.5089 166.951 31.2031 166.589 31.2031Z" fill="#615DF9"/>
<path d="M53.9385 31.2031H53.7275C49.1148 35.0469 45.0043 39.4721 41.5088 44.3672H53.9385V31.2031Z" fill="#3342AE"/>
<path d="M49.9734 40.0701C48.7144 40.0701 47.6865 39.0567 47.6865 37.7833C47.6865 36.3536 48.9957 35.2643 50.4176 35.5433C51.537 35.7766 52.2591 36.7398 52.2591 37.7833C52.2591 39.0299 51.2457 40.0701 49.9734 40.0701Z" fill="#FECD0A"/>
<path d="M56.2253 40.0702C54.9753 40.0702 53.9385 39.0624 53.9385 37.7834C53.9385 36.3604 55.2454 35.2633 56.674 35.5434C57.7722 35.7778 58.5121 36.7097 58.5121 37.7834C58.5121 39.0579 57.4753 40.0702 56.2253 40.0702Z" fill="#39DF74"/>
<path d="M127.368 40.0716H63.7946C62.5313 40.0716 61.5078 39.0481 61.5078 37.7847C61.5078 36.5225 62.5313 35.499 63.7946 35.499H127.368C128.632 35.499 129.655 36.5225 129.655 37.7847C129.655 39.0481 128.632 40.0716 127.368 40.0716V40.0716Z" fill="#AEAEFF"/>
<path d="M115.656 37.7847C115.656 36.5225 116.68 35.499 117.943 35.499H63.7946C62.5313 35.499 61.5078 36.5225 61.5078 37.7847C61.5078 39.0481 62.5313 40.0716 63.7946 40.0716H117.942C116.68 40.0716 115.656 39.0481 115.656 37.7847Z" fill="#8181FC"/>
<path d="M158.244 40.0716H136.666C135.403 40.0716 134.38 39.0481 134.38 37.7847C134.38 36.5225 135.403 35.499 136.666 35.499H158.244C159.507 35.499 160.531 36.5225 160.531 37.7847C160.531 39.0481 159.506 40.0716 158.244 40.0716V40.0716Z" fill="#AEAEFF"/>
<path d="M55.2976 44.1807H41.6447C39.686 46.9039 37.9192 49.7733 36.3623 52.77H63.7942V52.6762C63.7942 47.9842 59.9907 44.1807 55.2976 44.1807Z" fill="#11DFEF"/>
<path d="M53.9382 44.1807H41.6447C39.686 46.9039 37.9192 49.7733 36.3623 52.77H53.9382V44.1807Z" fill="#0AC6E5"/>
<path d="M151.395 63.0769H156.266C157.528 63.0769 158.553 62.0535 158.553 60.7901C158.553 59.5278 157.528 58.5044 156.266 58.5044H151.395C150.132 58.5044 149.108 59.5278 149.108 60.7901C149.108 62.0535 150.132 63.0769 151.395 63.0769Z" fill="#FCE395"/>
<path d="M146.318 75.0092C146.318 78.9891 143.092 82.2157 139.112 82.2157C135.132 82.2157 131.905 78.9891 131.905 75.0092C131.905 71.0293 135.132 67.8027 139.112 67.8027C143.092 67.8027 146.318 71.0293 146.318 75.0092V75.0092Z" fill="#FCA60D"/>
<path d="M131.197 92.1708H147.027C148.291 92.1708 149.314 91.1474 149.314 89.884C149.314 88.6217 148.291 87.5972 147.027 87.5972H131.197C129.935 87.5972 128.91 88.6206 128.91 89.884C128.91 91.1474 129.935 92.1708 131.197 92.1708V92.1708Z" fill="#11DFEF"/>
<path d="M131.197 100.175H147.027C148.291 100.175 149.314 99.1516 149.314 97.8883C149.314 96.626 148.291 95.6025 147.027 95.6025H131.197C129.935 95.6025 128.91 96.626 128.91 97.8883C128.91 99.1516 129.935 100.175 131.197 100.175V100.175Z" fill="#11DFEF"/>
<path d="M116.407 75.0092C116.407 78.9891 113.181 82.2157 109.201 82.2157C105.221 82.2157 101.994 78.9891 101.994 75.0092C101.994 71.0293 105.221 67.8027 109.201 67.8027C113.181 67.8027 116.407 71.0293 116.407 75.0092Z" fill="#FCA60D"/>
<path d="M138.557 67.8257C134.836 68.1092 131.905 71.2152 131.905 75.0087C131.905 78.9886 135.132 82.2152 139.112 82.2152C141.652 82.2152 143.883 80.9005 145.166 78.9161C139.176 79.3737 135.357 72.7721 138.557 67.8257Z" fill="#F98A10"/>
<path d="M108.646 67.8257C104.925 68.1092 101.994 71.2152 101.994 75.0087C101.994 78.9886 105.221 82.2152 109.201 82.2152C111.74 82.2152 113.972 80.9005 115.255 78.9161C109.253 79.3748 105.454 72.7598 108.646 67.8257Z" fill="#F98A10"/>
<path d="M101.284 92.1708H117.114C118.377 92.1708 119.401 91.1474 119.401 89.884C119.401 88.6217 118.377 87.5972 117.114 87.5972H101.284C100.021 87.5972 98.9971 88.6206 98.9971 89.884C98.9971 91.1474 100.021 92.1708 101.284 92.1708V92.1708Z" fill="#11DFEF"/>
<path d="M101.284 100.175H117.114C118.377 100.175 119.401 99.1516 119.401 97.8883C119.401 96.626 118.377 95.6025 117.114 95.6025H101.284C100.021 95.6025 98.9971 96.626 98.9971 97.8883C98.9971 99.1516 100.021 100.175 101.284 100.175V100.175Z" fill="#11DFEF"/>
<path d="M43.8817 67.0389C41.7031 66.7464 40.0212 64.8837 40.0212 62.6248C40.0212 60.7107 41.2288 59.0835 42.9219 58.4507H33.3359C29.2902 58.4507 26 61.7409 26 65.7866V114.809C27.2734 117.318 28.6953 119.738 30.25 122.061L43.8817 130.705V67.0389Z" fill="#68665E"/>
<path d="M75.0201 58.4507H33.3359C29.2902 58.4507 26 61.742 26 65.7866V114.809C27.2734 117.318 28.6953 119.738 30.25 122.061L78.1004 152.404C79.5056 152.611 80.9241 152.78 82.356 152.904V65.7866C82.356 61.742 79.0647 58.4507 75.0201 58.4507V58.4507Z" fill="#68665E"/>
<path d="M30.2461 96.333V122.058C40.9838 138.101 58.1758 149.455 78.1088 152.408C78.1088 146.282 78.1088 118.74 78.1088 96.333H30.2461Z" fill="#E6F7FE"/>
<path d="M30.2461 96.333V122.058C33.2427 126.535 36.7427 130.646 40.6635 134.311V96.333H30.2461Z" fill="#D5F1FE"/>
<path d="M33.3354 62.6973H39.5307C40.1144 62.6973 40.5876 63.1705 40.5876 63.7542C40.5876 65.156 41.7349 66.3033 43.1356 66.3033H65.2182C66.62 66.3033 67.7662 65.156 67.7662 63.7542C67.7662 63.1705 68.2394 62.6973 68.8242 62.6973H75.0195C76.7249 62.6973 78.1077 64.0801 78.1077 65.7866V96.6191H63.7941C63.7941 91.3167 59.4794 87.002 54.1769 87.002C48.8744 87.002 44.5608 91.3167 44.5608 96.6191H30.2461V65.7866C30.2461 64.0801 31.6289 62.6973 33.3354 62.6973V62.6973Z" fill="#FECD0A"/>
<path d="M40.6635 64.3591C40.6166 64.1649 40.5876 63.9629 40.5876 63.7553C40.5876 63.1705 40.1144 62.6973 39.5307 62.6973H33.3354C31.6289 62.6973 30.2461 64.0801 30.2461 65.7866V96.6191H40.6635V64.3591Z" fill="#FCA60D"/>
<path d="M65.3816 76.0306H70.2521C71.5144 76.0306 72.5389 75.0071 72.5389 73.7448C72.5389 72.4814 71.5144 71.458 70.2521 71.458H65.3816C64.1193 71.458 63.0947 72.4814 63.0947 73.7448C63.0947 75.0071 64.1193 76.0306 65.3816 76.0306Z" fill="#FCE395"/>
<path d="M64.2508 96.6191C64.2508 102.183 59.7408 106.693 54.1772 106.693C48.6136 106.693 44.1035 102.183 44.1035 96.6191C44.1035 91.0555 48.6136 86.5454 54.1772 86.5454C59.7408 86.5454 64.2508 91.0555 64.2508 96.6191Z" fill="#FCA60D"/>
<path d="M61.3457 102.14C55.7821 102.14 51.272 97.6301 51.272 92.0665C51.272 90.0654 51.858 88.2015 52.8658 86.6323C47.9227 87.2763 44.1035 91.5006 44.1035 96.6189C44.1035 102.183 48.6147 106.693 54.1772 106.693C57.7397 106.693 60.8669 104.842 62.6582 102.053C62.2285 102.109 61.791 102.14 61.3457 102.14V102.14Z" fill="#F98A10"/>
<path d="M48.4464 119.044H59.9085C61.5926 119.044 62.9576 117.679 62.9576 115.996C62.9576 114.312 61.5926 112.947 59.9085 112.947H48.4464C46.7623 112.947 45.3984 114.312 45.3984 115.996C45.3984 117.679 46.7623 119.044 48.4464 119.044V119.044Z" fill="#FECD0A"/>
<path d="M53.8783 115.996C53.8783 114.312 55.2433 112.947 56.9275 112.947H48.4464C46.7623 112.947 45.3984 114.312 45.3984 115.996C45.3984 117.679 46.7623 119.044 48.4464 119.044H56.9275C55.2433 119.044 53.8783 117.679 53.8783 115.996V115.996Z" fill="#FCA60D"/>
<path d="M41.7478 128.853H66.6083C67.8717 128.853 68.8951 127.83 68.8951 126.566C68.8951 125.303 67.8717 124.279 66.6083 124.279H41.7478C40.4844 124.279 39.4609 125.303 39.4609 126.566C39.4609 127.83 40.4844 128.853 41.7478 128.853V128.853Z" fill="#11DFEF"/>
<path d="M66.6084 132.548H41.7479C40.9622 132.548 40.2702 132.945 39.8584 133.547C41.1441 134.787 42.4756 135.981 43.8528 137.121H66.6084C67.8707 137.121 68.8952 136.097 68.8952 134.835C68.8952 133.572 67.8707 132.548 66.6084 132.548Z" fill="#11DFEF"/>
<path d="M66.608 140.819H48.7441C51.1749 142.496 53.7151 144.026 56.3557 145.391H66.608C67.8703 145.391 68.8937 144.368 68.8937 143.105C68.8948 141.842 67.8703 140.819 66.608 140.819Z" fill="#11DFEF"/>
<path d="M17.7668 175.795H15.4328V181H12.5031V166.781H17.7863C19.466 166.781 20.7616 167.156 21.673 167.904C22.5845 168.653 23.0402 169.711 23.0402 171.078C23.0402 172.048 22.8286 172.859 22.4055 173.51C21.9888 174.154 21.354 174.669 20.5012 175.053L23.5773 180.863V181H20.4328L17.7668 175.795ZM15.4328 173.422H17.7961C18.5318 173.422 19.1014 173.236 19.5051 172.865C19.9087 172.488 20.1105 171.97 20.1105 171.312C20.1105 170.642 19.9185 170.115 19.5344 169.73C19.1568 169.346 18.5741 169.154 17.7863 169.154H15.4328V173.422ZM30.3543 181.195C28.8048 181.195 27.5418 180.72 26.5652 179.77C25.5952 178.819 25.1102 177.553 25.1102 175.971V175.697C25.1102 174.636 25.3152 173.689 25.7254 172.855C26.1355 172.016 26.715 171.371 27.4637 170.922C28.2189 170.466 29.0783 170.238 30.0418 170.238C31.4871 170.238 32.6232 170.694 33.45 171.605C34.2833 172.517 34.7 173.809 34.7 175.482V176.635H27.9715C28.0626 177.325 28.3361 177.878 28.7918 178.295C29.254 178.712 29.8367 178.92 30.5398 178.92C31.6271 178.92 32.4767 178.526 33.0887 177.738L34.4754 179.291C34.0522 179.89 33.4793 180.359 32.7566 180.697C32.034 181.029 31.2332 181.195 30.3543 181.195ZM30.032 172.523C29.4721 172.523 29.0164 172.712 28.6648 173.09C28.3198 173.467 28.0984 174.008 28.0008 174.711H31.9266V174.486C31.9135 173.861 31.7443 173.38 31.4188 173.041C31.0932 172.696 30.631 172.523 30.032 172.523ZM42.434 178.08C42.434 177.735 42.2615 177.465 41.9164 177.27C41.5779 177.068 41.031 176.889 40.2758 176.732C37.7628 176.205 36.5063 175.137 36.5063 173.529C36.5063 172.592 36.8936 171.811 37.6684 171.186C38.4496 170.554 39.4685 170.238 40.725 170.238C42.0661 170.238 43.1371 170.554 43.9379 171.186C44.7452 171.817 45.1488 172.637 45.1488 173.646H42.3266C42.3266 173.243 42.1964 172.911 41.9359 172.65C41.6755 172.383 41.2686 172.25 40.7152 172.25C40.24 172.25 39.8721 172.357 39.6117 172.572C39.3513 172.787 39.2211 173.061 39.2211 173.393C39.2211 173.705 39.3676 173.959 39.6605 174.154C39.96 174.343 40.4613 174.509 41.1645 174.652C41.8676 174.789 42.46 174.945 42.9418 175.121C44.4327 175.668 45.1781 176.615 45.1781 177.963C45.1781 178.926 44.7647 179.708 43.9379 180.307C43.1111 180.899 42.0434 181.195 40.7348 181.195C39.8494 181.195 39.0616 181.039 38.3715 180.727C37.6879 180.408 37.1508 179.975 36.7602 179.428C36.3695 178.874 36.1742 178.279 36.1742 177.641H38.85C38.876 178.142 39.0616 178.526 39.4066 178.793C39.7517 179.06 40.2139 179.193 40.7934 179.193C41.3337 179.193 41.7406 179.092 42.0141 178.891C42.294 178.682 42.434 178.412 42.434 178.08ZM56.916 175.814C56.916 177.442 56.5449 178.747 55.8027 179.73C55.0671 180.707 54.071 181.195 52.8145 181.195C51.7467 181.195 50.8841 180.824 50.2266 180.082V185.062H47.4043V170.434H50.0215L50.1191 171.469C50.8027 170.648 51.6947 170.238 52.7949 170.238C54.097 170.238 55.1094 170.72 55.832 171.684C56.5547 172.647 56.916 173.975 56.916 175.668V175.814ZM54.0938 175.609C54.0938 174.626 53.918 173.868 53.5664 173.334C53.2214 172.8 52.7168 172.533 52.0527 172.533C51.1673 172.533 50.5586 172.872 50.2266 173.549V177.875C50.5716 178.572 51.1869 178.92 52.0723 178.92C53.4199 178.92 54.0938 177.816 54.0938 175.609ZM58.6344 175.619C58.6344 174.571 58.8362 173.637 59.2398 172.816C59.6435 171.996 60.2229 171.361 60.9781 170.912C61.7398 170.463 62.622 170.238 63.6246 170.238C65.0504 170.238 66.2125 170.674 67.1109 171.547C68.0159 172.419 68.5204 173.604 68.6246 175.102L68.6441 175.824C68.6441 177.445 68.1917 178.747 67.2867 179.73C66.3818 180.707 65.1676 181.195 63.6441 181.195C62.1207 181.195 60.9033 180.707 59.9918 179.73C59.0869 178.754 58.6344 177.426 58.6344 175.746V175.619ZM61.4566 175.824C61.4566 176.827 61.6454 177.595 62.023 178.129C62.4007 178.656 62.941 178.92 63.6441 178.92C64.3277 178.92 64.8616 178.66 65.2457 178.139C65.6298 177.611 65.8219 176.771 65.8219 175.619C65.8219 174.636 65.6298 173.874 65.2457 173.334C64.8616 172.794 64.3212 172.523 63.6246 172.523C62.9345 172.523 62.4007 172.794 62.023 173.334C61.6454 173.868 61.4566 174.698 61.4566 175.824ZM73.3801 170.434L73.468 171.654C74.2232 170.71 75.2355 170.238 76.5051 170.238C77.6249 170.238 78.4582 170.567 79.0051 171.225C79.552 171.882 79.8319 172.865 79.8449 174.174V181H77.0227V174.242C77.0227 173.643 76.8925 173.21 76.632 172.943C76.3716 172.67 75.9387 172.533 75.3332 172.533C74.5389 172.533 73.9432 172.872 73.5461 173.549V181H70.7238V170.434H73.3801ZM88.116 178.08C88.116 177.735 87.9435 177.465 87.5984 177.27C87.2599 177.068 86.713 176.889 85.9578 176.732C83.4448 176.205 82.1883 175.137 82.1883 173.529C82.1883 172.592 82.5757 171.811 83.3504 171.186C84.1316 170.554 85.1505 170.238 86.407 170.238C87.7482 170.238 88.8191 170.554 89.6199 171.186C90.4272 171.817 90.8309 172.637 90.8309 173.646H88.0086C88.0086 173.243 87.8784 172.911 87.618 172.65C87.3576 172.383 86.9507 172.25 86.3973 172.25C85.922 172.25 85.5542 172.357 85.2938 172.572C85.0333 172.787 84.9031 173.061 84.9031 173.393C84.9031 173.705 85.0496 173.959 85.3426 174.154C85.6421 174.343 86.1434 174.509 86.8465 174.652C87.5496 174.789 88.1421 174.945 88.6238 175.121C90.1147 175.668 90.8602 176.615 90.8602 177.963C90.8602 178.926 90.4467 179.708 89.6199 180.307C88.7931 180.899 87.7254 181.195 86.4168 181.195C85.5314 181.195 84.7436 181.039 84.0535 180.727C83.3699 180.408 82.8328 179.975 82.4422 179.428C82.0516 178.874 81.8563 178.279 81.8563 177.641H84.532C84.5581 178.142 84.7436 178.526 85.0887 178.793C85.4337 179.06 85.896 179.193 86.4754 179.193C87.0158 179.193 87.4227 179.092 87.6961 178.891C87.976 178.682 88.116 178.412 88.116 178.08ZM96.0648 181H93.2328V170.434H96.0648V181ZM93.0668 167.699C93.0668 167.276 93.2068 166.928 93.4867 166.654C93.7732 166.381 94.1606 166.244 94.6488 166.244C95.1306 166.244 95.5147 166.381 95.8012 166.654C96.0876 166.928 96.2309 167.276 96.2309 167.699C96.2309 168.129 96.0844 168.48 95.7914 168.754C95.505 169.027 95.1241 169.164 94.6488 169.164C94.1736 169.164 93.7895 169.027 93.4965 168.754C93.21 168.48 93.0668 168.129 93.0668 167.699ZM102.754 177.553L104.717 170.434H107.666L104.102 181H101.406L97.8418 170.434H100.791L102.754 177.553ZM114.043 181.195C112.493 181.195 111.23 180.72 110.254 179.77C109.283 178.819 108.798 177.553 108.798 175.971V175.697C108.798 174.636 109.004 173.689 109.414 172.855C109.824 172.016 110.403 171.371 111.152 170.922C111.907 170.466 112.767 170.238 113.73 170.238C115.175 170.238 116.311 170.694 117.138 171.605C117.972 172.517 118.388 173.809 118.388 175.482V176.635H111.66C111.751 177.325 112.024 177.878 112.48 178.295C112.942 178.712 113.525 178.92 114.228 178.92C115.315 178.92 116.165 178.526 116.777 177.738L118.164 179.291C117.74 179.89 117.168 180.359 116.445 180.697C115.722 181.029 114.921 181.195 114.043 181.195ZM113.72 172.523C113.16 172.523 112.705 172.712 112.353 173.09C112.008 173.467 111.787 174.008 111.689 174.711H115.615V174.486C115.602 173.861 115.433 173.38 115.107 173.041C114.782 172.696 114.319 172.523 113.72 172.523ZM125.966 181V166.781H130.341C131.591 166.781 132.707 167.064 133.69 167.631C134.68 168.191 135.451 168.992 136.005 170.033C136.558 171.068 136.835 172.247 136.835 173.568V174.223C136.835 175.544 136.561 176.719 136.014 177.748C135.474 178.777 134.709 179.574 133.72 180.141C132.73 180.707 131.613 180.993 130.37 181H125.966ZM128.895 169.154V178.646H130.311C131.457 178.646 132.333 178.272 132.938 177.523C133.544 176.775 133.853 175.704 133.866 174.311V173.559C133.866 172.113 133.567 171.02 132.968 170.277C132.369 169.529 131.493 169.154 130.341 169.154H128.895ZM144.051 181.195C142.502 181.195 141.239 180.72 140.262 179.77C139.292 178.819 138.807 177.553 138.807 175.971V175.697C138.807 174.636 139.012 173.689 139.422 172.855C139.832 172.016 140.412 171.371 141.161 170.922C141.916 170.466 142.775 170.238 143.739 170.238C145.184 170.238 146.32 170.694 147.147 171.605C147.98 172.517 148.397 173.809 148.397 175.482V176.635H141.668C141.76 177.325 142.033 177.878 142.489 178.295C142.951 178.712 143.534 178.92 144.237 178.92C145.324 178.92 146.174 178.526 146.786 177.738L148.172 179.291C147.749 179.89 147.176 180.359 146.454 180.697C145.731 181.029 144.93 181.195 144.051 181.195ZM143.729 172.523C143.169 172.523 142.713 172.712 142.362 173.09C142.017 173.467 141.795 174.008 141.698 174.711H145.623V174.486C145.61 173.861 145.441 173.38 145.116 173.041C144.79 172.696 144.328 172.523 143.729 172.523ZM156.131 178.08C156.131 177.735 155.958 177.465 155.613 177.27C155.275 177.068 154.728 176.889 153.973 176.732C151.46 176.205 150.203 175.137 150.203 173.529C150.203 172.592 150.59 171.811 151.365 171.186C152.146 170.554 153.165 170.238 154.422 170.238C155.763 170.238 156.834 170.554 157.635 171.186C158.442 171.817 158.846 172.637 158.846 173.646H156.023C156.023 173.243 155.893 172.911 155.633 172.65C155.372 172.383 154.965 172.25 154.412 172.25C153.937 172.25 153.569 172.357 153.309 172.572C153.048 172.787 152.918 173.061 152.918 173.393C152.918 173.705 153.064 173.959 153.357 174.154C153.657 174.343 154.158 174.509 154.861 174.652C155.564 174.789 156.157 174.945 156.639 175.121C158.13 175.668 158.875 176.615 158.875 177.963C158.875 178.926 158.462 179.708 157.635 180.307C156.808 180.899 155.74 181.195 154.432 181.195C153.546 181.195 152.758 181.039 152.068 180.727C151.385 180.408 150.848 179.975 150.457 179.428C150.066 178.874 149.871 178.279 149.871 177.641H152.547C152.573 178.142 152.758 178.526 153.104 178.793C153.449 179.06 153.911 179.193 154.49 179.193C155.031 179.193 155.438 179.092 155.711 178.891C155.991 178.682 156.131 178.412 156.131 178.08ZM164.08 181H161.248V170.434H164.08V181ZM161.082 167.699C161.082 167.276 161.222 166.928 161.502 166.654C161.788 166.381 162.175 166.244 162.664 166.244C163.145 166.244 163.53 166.381 163.816 166.654C164.102 166.928 164.246 167.276 164.246 167.699C164.246 168.129 164.099 168.48 163.806 168.754C163.52 169.027 163.139 169.164 162.664 169.164C162.188 169.164 161.804 169.027 161.511 168.754C161.225 168.48 161.082 168.129 161.082 167.699ZM166.404 175.639C166.404 174.018 166.788 172.712 167.556 171.723C168.331 170.733 169.372 170.238 170.681 170.238C171.84 170.238 172.741 170.635 173.386 171.43L173.503 170.434H176.062V180.648C176.062 181.573 175.85 182.377 175.427 183.061C175.01 183.744 174.421 184.265 173.659 184.623C172.898 184.981 172.006 185.16 170.984 185.16C170.209 185.16 169.454 185.004 168.718 184.691C167.982 184.385 167.426 183.988 167.048 183.5L168.298 181.781C169.001 182.569 169.854 182.963 170.857 182.963C171.605 182.963 172.188 182.761 172.605 182.357C173.021 181.96 173.23 181.394 173.23 180.658V180.092C172.579 180.827 171.723 181.195 170.661 181.195C169.392 181.195 168.363 180.701 167.575 179.711C166.794 178.715 166.404 177.396 166.404 175.756V175.639ZM169.226 175.844C169.226 176.801 169.418 177.553 169.802 178.1C170.186 178.64 170.713 178.91 171.384 178.91C172.243 178.91 172.859 178.588 173.23 177.943V173.5C172.852 172.855 172.243 172.533 171.404 172.533C170.726 172.533 170.193 172.81 169.802 173.363C169.418 173.917 169.226 174.743 169.226 175.844ZM181.237 170.434L181.325 171.654C182.08 170.71 183.093 170.238 184.362 170.238C185.482 170.238 186.315 170.567 186.862 171.225C187.409 171.882 187.689 172.865 187.702 174.174V181H184.88V174.242C184.88 173.643 184.749 173.21 184.489 172.943C184.229 172.67 183.796 172.533 183.19 172.533C182.396 172.533 181.8 172.872 181.403 173.549V181H178.581V170.434H181.237Z" fill="#686969"/>
</svg>
