<svg width="200" height="200" viewBox="0 0 200 200" fill="none" xmlns="http://www.w3.org/2000/svg">
<path d="M74.3338 116.788C71.9498 118.278 68.3578 120.694 65.579 123.321C61.017 127.629 60.0624 133.605 62.469 135.001C64.6951 136.292 69.8923 134.756 73.6119 130.699C77.5156 126.439 79.1255 121.04 77.4628 114.91C77.2675 115.026 77.0757 115.143 76.8876 115.252L76.8917 115.26L76.6394 115.403C75.6689 115.982 74.8757 116.461 74.3338 116.787V116.788ZM141.328 114.853C139.978 117.789 139.91 118.732 140.32 119.027C142.28 118.323 145.522 116.626 145.547 112.08C145.551 111.399 145.401 110.669 145.16 109.905C143.065 111.76 141.858 113.702 141.328 114.853ZM162.354 105.981C157.119 105.37 153.035 106.105 149.865 107.425C150.452 108.953 150.903 110.544 150.967 112.147C151.114 115.666 148.692 118.27 146.168 120.129C144.694 121.213 143.125 121.936 141.809 122.372C140.756 122.815 139.357 123.274 138.364 123.072C136.175 122.627 135.009 120.683 136.499 116.392C137.303 114.071 139.624 110.537 143.369 107.493C142.516 105.736 141.564 103.945 141.079 102.299C140.124 99.0561 139.835 97.0956 139.835 97.0956C139.835 97.0956 136.747 103.497 132.764 109.318C132.535 109.657 132.305 109.988 132.076 110.319C132.858 112.137 133.474 114.06 133.558 115.998C133.705 119.516 132.181 122.177 129.654 124.032C128.285 125.041 126.826 125.737 125.573 126.181C124.772 126.53 123.144 127.106 120.827 127.261C119.56 127.347 118.342 127.269 117.661 126.753C116.725 126.045 116.612 125.172 117.097 123.979C117.507 122.966 120.575 119.463 123.148 116.397C123.834 115.576 124.498 114.737 125.141 113.883L125.126 113.849C125.126 113.849 125.592 113.248 126.348 112.198C125.408 110.172 124.216 108.065 123.656 106.154C122.7 102.91 122.411 100.95 122.411 100.95C122.411 100.95 119.281 108.973 116.021 115.377C113.498 120.337 111.813 123.343 111.054 124.661L111.046 124.713C111.046 124.713 110.933 124.906 110.737 125.207L110.591 125.451L110.587 125.428C109.741 126.678 107.842 129.127 105.954 129.127C100.772 129.127 102.674 118.602 102.674 118.602C102.674 118.602 101.159 122.501 99.4513 125.846C98.0604 128.574 96.793 130.885 94.0214 130.885C93.2241 130.885 91.9603 130.862 90.9108 129.865C88.5304 127.603 86.7103 121.86 87.0671 117.413C87.3717 113.631 87.9546 111.011 88.7519 108.826C87.1585 109.693 85.5788 110.585 84.0135 111.502L81.4408 113.018L81.5239 113.169C83.6521 117.286 84.2201 126.305 79.5792 133.229C74.9388 140.156 66.3004 144.371 57.884 142.031C55.1682 141.275 51.0656 135.656 54.6042 127.826C57.7255 120.92 70.1999 114.391 73.4874 112.762L74.3897 112.265C67.8354 106.53 51.4681 98.7936 49.1743 86.9098C48.5273 83.5645 50.0956 75.5639 59.9183 66.3676C68.1804 58.6341 79.6736 52.7109 90.2905 48.9365C108.127 42.5965 126.973 46.3361 129.872 57.7087C132.723 68.8927 123.02 82.2704 110.595 87.0795C99.5005 91.3728 90.3279 90.692 86.5596 89.4543C82.276 88.047 79.7638 85.2205 79.1511 83.625C78.9101 83 78.4959 81.9505 79.1511 81.5896C79.5531 81.3671 79.7146 81.4204 80.7902 82.6093C81.8135 83.7383 85.9274 86.7673 93.7425 85.8906C114.25 83.5917 126.604 67.6468 122.7 59.0668C119.966 53.0616 104.16 50.352 84.4119 60.1999C60.3054 72.2185 58.997 82.1269 58.7904 85.8901C58.2259 96.2424 71.5576 101.688 78.7712 109.386L79.0491 109.691C80.399 108.947 81.8248 108.16 83.2235 107.393C86.11 105.807 88.9983 104.225 91.8885 102.646C94.4274 98.9561 99.579 94.8838 103.299 94.8838C109.244 94.8838 107.202 103.429 107.202 103.429C107.202 103.429 107.323 103.039 107.484 103.035C107.653 103.031 108.308 101.909 110.144 102.578C112.031 103.272 111.602 104.596 111.614 104.732C111.637 104.994 109.384 112.592 108.448 117.466C108 119.791 108.259 121.485 108.391 121.485C108.575 121.485 108.952 120.893 109.301 120.258L109.294 120.239C109.294 120.239 109.557 119.757 109.997 118.892L110.084 118.711L110.087 118.72C110.816 117.281 111.513 115.827 112.178 114.358C113.829 110.719 120.128 96.6711 120.662 95.1176C121.196 93.5636 121.474 91.9563 121.738 91.2672C121.997 90.5787 124.224 90.0593 126.826 90.0783C129.428 90.0973 129.692 91.2078 129.71 91.4369C129.729 91.6661 128.473 94.749 128.183 96.9274C127.898 99.1064 128.173 100.193 128.409 102.023C128.564 103.219 129.312 104.736 130.196 106.455C132.889 102.052 137.627 93.6308 138.082 91.2713C138.394 89.6574 138.894 88.1106 139.158 87.421C139.421 86.7324 141.644 86.2136 144.246 86.232C146.848 86.2515 147.111 87.3615 147.13 87.5907C147.149 87.8204 145.889 90.9027 145.603 93.0817C145.317 95.2565 145.592 96.3475 145.829 98.1768C146.032 99.7416 147.243 101.845 148.443 104.238C151.718 102.624 155.573 101.541 160.086 101.518C161.955 101.507 164.125 101.694 165.246 102.044V66.0441C165.246 63.5042 163.944 61.1632 161.745 59.8953L103.017 25.9513C101.941 25.3281 100.72 25 99.4764 25C98.2331 25 97.0117 25.3281 95.9358 25.9513L37.37 59.8789C35.1736 61.1474 34 63.4914 34 66.0272V133.944C34 136.48 35.1807 138.824 37.3735 140.092L96.0337 174.046C97.1042 174.671 98.3215 175 99.561 175C100.801 175 102.018 174.671 103.088 174.046L161.775 140.092C163.971 138.82 165.25 136.479 165.25 133.944V106.496C164.505 106.276 163.415 106.104 162.354 105.98V105.981ZM99.1734 102.424C97.9138 103.834 95.7666 107.474 94.7622 110.519C92.7653 116.565 93.6302 122.711 95.0442 123.08C96.6951 123.512 99.4031 115.43 100.7 112.268C101.512 110.288 104.672 101.502 103.979 100.329C103.439 99.4104 101.201 100.152 99.1734 102.424V102.424ZM122.021 122.804C122.021 122.804 121.622 123.182 121.795 123.286C122.028 123.426 122.532 123.245 123.081 122.959C124.634 121.981 128.12 119.542 128.128 115.934C128.128 115.828 128.124 115.726 128.117 115.617C127.396 116.562 126.664 117.498 125.92 118.424C124.822 119.791 122.021 122.804 122.021 122.804Z" fill="#8CC84B"/>
</svg>
