<svg width="200" height="200" viewBox="0 0 200 200" fill="none" xmlns="http://www.w3.org/2000/svg">
<path fill-rule="evenodd" clip-rule="evenodd" d="M52.4013 79.624L99.9929 172.775L20 79.624H52.4013Z" fill="#EA6C00"/>
<path fill-rule="evenodd" clip-rule="evenodd" d="M147.599 79.624L100.007 172.775L180 79.624H147.599Z" fill="#EA6C00"/>
<path fill-rule="evenodd" clip-rule="evenodd" d="M52.4004 79.624H147.584L99.992 172.775L52.4004 79.624Z" fill="#FDAD00"/>
<path fill-rule="evenodd" clip-rule="evenodd" d="M99.992 28L54.9053 32.7659L52.4004 79.6242L99.992 28Z" fill="#FDD231"/>
<path fill-rule="evenodd" clip-rule="evenodd" d="M99.9904 28L145.077 32.7659L147.582 79.6242L99.9904 28Z" fill="#FDD231"/>
<path fill-rule="evenodd" clip-rule="evenodd" d="M180 79.6244L145.094 32.7661L147.599 79.6244H180Z" fill="#FDAD00"/>
<path fill-rule="evenodd" clip-rule="evenodd" d="M20 79.6244L54.9062 32.7661L52.4013 79.6244H20Z" fill="#FDAD00"/>
<path fill-rule="evenodd" clip-rule="evenodd" d="M99.992 28L52.4004 79.6242H147.584L99.992 28Z" fill="#FEEEB7"/>
</svg>
