<svg width="200" height="200" viewBox="0 0 200 200" fill="none" xmlns="http://www.w3.org/2000/svg">
<path d="M25.4425 77.3074C25.4425 77.3074 21.7496 74.6454 26.1811 71.091L36.5059 61.8586C36.5059 61.8586 39.4603 58.7504 42.5839 61.4586L137.861 133.594V168.184C137.861 168.184 137.815 173.616 130.845 173.016L25.4425 77.3074Z" fill="#2489CA"/>
<path d="M50.0009 99.604L25.4428 121.931C25.4428 121.931 22.9193 123.808 25.4428 127.162L36.8448 137.533C36.8448 137.533 39.553 140.441 43.5537 137.133L69.5889 117.392L50.0009 99.604Z" fill="#1070B3"/>
<path d="M93.115 99.7883L138.154 65.3977L137.861 30.9916C137.861 30.9916 135.938 23.4826 129.521 27.391L69.5879 81.939L93.115 99.7883Z" fill="#0877B9"/>
<path d="M130.845 173.062C133.461 175.74 136.63 174.863 136.63 174.863L171.728 157.567C176.222 154.505 175.591 150.705 175.591 150.705V47.4252C175.591 42.8859 170.944 41.3164 170.944 41.3164L140.523 26.6523C133.876 22.5439 129.521 27.3909 129.521 27.3909C129.521 27.3909 135.122 23.3595 137.861 30.9916V167.554C137.861 168.492 137.661 169.415 137.261 170.246C136.461 171.862 134.722 173.37 130.552 172.739L130.845 173.062Z" fill="#3C99D4"/>
</svg>
