<svg width="200" height="200" viewBox="0 0 200 200" fill="none" xmlns="http://www.w3.org/2000/svg">
<path d="M100 9L180 54.2574V144.772L100 190.03L20 144.772V54.2574L100 9Z" fill="white"/>
<path d="M165.715 141.649L102.642 177.327V149.539L141.94 127.921L165.715 141.649ZM170.03 137.742V63.1277L146.949 76.4485V124.406L170.03 137.742ZM34.0313 141.649L97.1051 177.327V149.539L57.8066 127.921L34.0313 141.649V141.649ZM29.7168 137.742V63.1277L52.7981 76.4485V124.406L29.7168 137.742V137.742ZM32.4172 58.3003L97.1051 21.7021V48.57L55.6644 71.3646L55.3476 71.5456L32.4172 58.3003V58.3003ZM167.329 58.3003L102.642 21.7021V48.57L144.082 71.3646L144.399 71.5456L167.329 58.3003V58.3003Z" fill="#8ED6FB"/>
<path d="M97.1045 143.218L58.334 121.902V79.6617L97.1045 102.049V143.218ZM102.641 143.218L141.411 121.902V79.6617L102.641 102.049V143.218ZM60.9589 74.7739L99.8803 53.3672L138.802 74.7739L99.8803 97.2518L60.9589 74.7739" fill="#1C78C0"/>
</svg>
