<svg width="200" height="200" viewBox="0 0 200 200" fill="none" xmlns="http://www.w3.org/2000/svg">
<path d="M149.603 175H50.2431C35.1785 175 23 162.822 23 147.757V52.2431C23 37.1785 35.1785 25 50.2431 25H149.603C164.668 25 176.846 37.1785 176.846 52.2431V147.757C176.846 162.822 164.668 175 149.603 175Z" fill="#FF26BE"/>
<path d="M147.166 168.588H52.6798C39.8613 168.588 29.4121 158.139 29.4121 145.32V54.6803C29.4121 41.8618 39.8613 31.4126 52.6798 31.4126H147.104C159.991 31.4126 170.372 41.8618 170.372 54.6803V145.259C170.434 158.139 159.984 168.588 147.166 168.588Z" fill="#2E001F"/>
<path d="M83.8321 95.1907L101.783 129.677C102.103 130.188 101.912 130.705 101.395 130.705H90.2383C89.5306 130.705 89.2106 130.514 88.8906 129.874C84.786 121.412 80.6198 112.951 76.3244 103.849H76.1952C72.349 112.44 68.1152 121.48 64.0167 129.942C63.6967 130.452 63.3767 130.649 62.8598 130.649H52.2937C51.6537 130.649 51.586 130.138 51.9121 129.751L69.4752 96.2861L52.4906 62.44C52.1029 61.9292 52.4906 61.5415 52.8721 61.5415H63.8998C64.5398 61.5415 64.7983 61.6707 65.0506 62.2492C69.0875 70.7107 73.1921 79.4307 77.0383 87.9538H77.1675C80.8844 79.4923 84.989 70.7107 88.9644 62.3107C89.2844 61.8 89.4752 61.48 90.1213 61.48H100.441C100.952 61.48 101.149 61.8677 100.829 62.3784L83.8321 95.1907ZM104.928 105.64C104.928 90.7046 114.866 79.0369 130.632 79.0369C131.98 79.0369 132.681 79.0369 133.968 79.1661V62.1815C133.968 61.7938 134.288 61.5415 134.608 61.5415H144.737C145.248 61.5415 145.377 61.7323 145.377 62.0523V120.902C145.377 122.631 145.377 124.809 145.697 127.185C145.697 127.572 145.568 127.695 145.186 127.892C139.801 130.458 134.158 131.609 128.774 131.609C114.86 131.665 104.921 123.08 104.928 105.64ZM133.961 89.2338C133.063 88.8461 131.783 88.5938 130.244 88.5938C122.164 88.5938 116.528 94.8092 116.528 105.135C116.528 116.932 122.3 121.677 129.543 121.677C131.081 121.677 132.749 121.486 133.968 120.969V89.2338H133.961Z" fill="#FFD9F2"/>
</svg>
