<svg width="32" height="32" viewBox="0 0 32 32" fill="none" xmlns="http://www.w3.org/2000/svg">
<path d="M26.5119 5.50474C25.8612 4.854 24.81 4.854 24.1593 5.50474L16 13.6473L7.84073 5.48805C7.18999 4.83732 6.13879 4.83732 5.48805 5.48805C4.83732 6.13879 4.83732 7.18999 5.48805 7.84073L13.6473 16L5.48805 24.1593C4.83732 24.81 4.83732 25.8612 5.48805 26.5119C6.13879 27.1627 7.18999 27.1627 7.84073 26.5119L16 18.3527L24.1593 26.5119C24.81 27.1627 25.8612 27.1627 26.5119 26.5119C27.1627 25.8612 27.1627 24.81 26.5119 24.1593L18.3527 16L26.5119 7.84073C27.146 7.20667 27.146 6.13879 26.5119 5.50474V5.50474Z" fill="#164690"/>
</svg>
