<svg width="100" height="100" viewBox="0 0 100 100" xmlns="http://www.w3.org/2000/svg">
<path d="M93.9611 85.6446H6.03887C2.70371 85.6446 0 82.9409 0 79.6058V26.7778H100V79.6058C100 82.9409 97.2963 85.6446 93.9611 85.6446Z" fill="#A9DBF5"/>
<path d="M93.9639 26.7778V85.6446C97.2977 85.6446 100 82.9397 100 79.6032V26.7778H93.9639Z" fill="#88C3E0"/>
<path d="M20.2869 45.697C19.7148 45.1251 18.7873 45.1251 18.2154 45.697L9.14683 54.7655C8.57476 55.3378 8.57476 56.2651 9.14683 56.8372L18.0953 65.7856C18.3812 66.0716 18.7562 66.2146 19.131 66.2146C19.5058 66.2146 19.8808 66.0716 20.1667 65.7856C20.7388 65.2134 20.7388 64.286 20.1667 63.714L12.2541 55.8013L20.2867 47.7687C20.8589 47.1966 20.8589 46.269 20.2869 45.697Z" fill="#43809F"/>
<path d="M51.6638 54.765L42.5953 45.6965C42.0232 45.1246 41.0957 45.1246 40.5238 45.6965C39.9517 46.2688 39.9517 47.1961 40.5238 47.7682L48.5564 55.8008L40.6437 63.7135C40.0716 64.2857 40.0716 65.2131 40.6437 65.7852C40.9296 66.0711 41.3046 66.2141 41.6794 66.2141C42.0542 66.2141 42.4292 66.0711 42.7152 65.7852L51.6638 56.8367C52.2357 56.2646 52.2357 55.3373 51.6638 54.765Z" fill="#43809F"/>
<path d="M36.2911 40.2467C35.5344 39.9594 34.6889 40.3399 34.4018 41.0965L23.6787 69.3461C23.3916 70.1024 23.7721 70.9483 24.5284 71.2354C24.6994 71.3004 24.875 71.3311 25.0479 71.3311C25.6387 71.3311 26.1955 70.9709 26.4176 70.3856L37.1407 42.136C37.4278 41.3797 37.0475 40.5338 36.2911 40.2467Z" fill="#43809F"/>
<path d="M75.4525 45.7482H65.9957C64.3289 45.7482 62.9775 44.3971 62.9775 42.7301C62.9775 41.0633 64.3287 39.7119 65.9957 39.7119H75.4525C77.1193 39.7119 78.4707 41.0631 78.4707 42.7301C78.4707 44.3969 77.1193 45.7482 75.4525 45.7482Z" fill="#29CEF6"/>
<path d="M90.9455 57.8205H65.9957C64.3289 57.8205 62.9775 56.4693 62.9775 54.8023C62.9775 53.1355 64.3287 51.7842 65.9957 51.7842H90.9453C92.6121 51.7842 93.9635 53.1354 93.9635 54.8023C93.9637 56.4691 92.6123 57.8205 90.9455 57.8205Z" fill="#FFC328"/>
<path d="M83.534 69.8928H65.9957C64.3289 69.8928 62.9775 68.5416 62.9775 66.8746C62.9775 65.2078 64.3287 63.8564 65.9957 63.8564H83.534C85.2008 63.8564 86.5522 65.2076 86.5522 66.8746C86.5522 68.5414 85.2008 69.8928 83.534 69.8928Z" fill="#F78E36"/>
<path d="M100 28.8549H0V20.3943C0 17.0592 2.70371 14.3555 6.03887 14.3555H93.9611C97.2963 14.3555 100 17.0592 100 20.3943V28.8549Z" fill="#43809F"/>
<path d="M93.9639 14.3555V28.8549H100V20.3969C100 17.0604 97.2975 14.3555 93.9639 14.3555Z" fill="#3A7190"/>
<path d="M9.65879 24.7224C11.3257 24.7224 12.677 23.3711 12.677 21.7042C12.677 20.0373 11.3257 18.686 9.65879 18.686C7.9919 18.686 6.64062 20.0373 6.64062 21.7042C6.64062 23.3711 7.9919 24.7224 9.65879 24.7224Z" fill="#29CEF6"/>
<path d="M21.3609 24.7224C23.0278 24.7224 24.3791 23.3711 24.3791 21.7042C24.3791 20.0373 23.0278 18.686 21.3609 18.686C19.6941 18.686 18.3428 20.0373 18.3428 21.7042C18.3428 23.3711 19.6941 24.7224 21.3609 24.7224Z" fill="#F3F3F3"/>
<path d="M33.0631 24.7224C34.73 24.7224 36.0813 23.3711 36.0813 21.7042C36.0813 20.0373 34.73 18.686 33.0631 18.686C31.3962 18.686 30.0449 20.0373 30.0449 21.7042C30.0449 23.3711 31.3962 24.7224 33.0631 24.7224Z" fill="#F78E36"/>
</svg>
