<svg width="40" height="40" viewBox="0 0 40 40" fill="none" xmlns="http://www.w3.org/2000/svg">
<g clip-path="url(#clip0)">
<path d="M20 40C31.0457 40 40 31.0457 40 20C40 8.9543 31.0457 0 20 0C8.9543 0 0 8.9543 0 20C0 31.0457 8.9543 40 20 40Z" fill="#5F98D1"/>
<path d="M32.4855 11.5215H7.46561L16.5296 20.9595L19.1452 23.6079C17.7221 23.2826 17.634 23.0798 17.0034 22.565C16.6726 22.2949 16.0336 21.5609 15.0629 20.5697C12.0332 17.4759 6.89209 12.226 6.89209 12.226V27.759L7.53779 28.4047L7.46553 28.4799L18.9595 39.9739C19.3042 39.9916 19.6511 40.0007 20.0001 40.0007C31.0458 40.0007 40.0001 31.0464 40.0001 20.0007C40.0001 19.669 39.9915 19.3393 39.9757 19.0116L32.4855 11.5215Z" fill="#3A6DA1"/>
<path d="M6.89209 12.2256V27.7585L14.4669 19.9607L6.89209 12.2256Z" fill="white"/>
<path d="M33.1085 12.2256V27.7585L25.5713 19.9921L33.1085 12.2256Z" fill="white"/>
<path d="M7.46582 11.5215H32.4857L22.6525 21.7604C21.9527 22.4891 20.9861 22.9009 19.9758 22.9009C18.9656 22.9009 17.9989 22.4891 17.2991 21.7604L7.46582 11.5215Z" fill="white"/>
<path d="M23.2198 22.305C22.3761 23.1834 21.1938 23.6873 19.9758 23.6873C18.7579 23.6873 17.5755 23.1836 16.7319 22.3051L15.064 20.5684L7.46582 28.4798H32.4857L24.8876 20.5684L23.2198 22.305Z" fill="white"/>
</g>
<defs>
<clipPath id="clip0">
<rect width="40" height="40" fill="white"/>
</clipPath>
</defs>
</svg>
