<svg width="40" height="40" viewBox="0 0 40 40" fill="none" xmlns="http://www.w3.org/2000/svg">
<path d="M20 0.833008C8.95 0.833008 0 9.63301 0 20.4863C0 29.1713 5.73 36.5363 13.675 39.133C14.675 39.318 15.0417 38.7097 15.0417 38.188C15.0417 37.7213 15.025 36.4847 15.0167 34.8463C9.45333 36.0313 8.28 32.2097 8.28 32.2097C7.37 29.9413 6.055 29.3347 6.055 29.3347C4.24333 28.1163 6.195 28.1413 6.195 28.1413C8.20333 28.278 9.25833 30.1663 9.25833 30.1663C11.0417 33.1713 13.94 32.303 15.0833 31.8013C15.2633 30.5297 15.7783 29.6647 16.35 29.173C11.9083 28.6813 7.24 26.9913 7.24 19.4613C7.24 17.3163 8.015 15.563 9.29833 14.188C9.07333 13.6913 8.39833 11.693 9.47333 8.98634C9.47333 8.98634 11.1483 8.45967 14.9733 11.0013C16.5733 10.5647 18.2733 10.348 19.9733 10.338C21.6733 10.348 23.3733 10.5647 24.9733 11.0013C28.7733 8.45967 30.4483 8.98634 30.4483 8.98634C31.5233 11.693 30.8483 13.6913 30.6483 14.188C31.9233 15.563 32.6983 17.3163 32.6983 19.4613C32.6983 27.0113 28.0233 28.673 23.5733 29.1563C24.2733 29.7463 24.9233 30.9513 24.9233 32.793C24.9233 35.423 24.8983 37.5363 24.8983 38.1747C24.8983 38.6897 25.2483 39.3047 26.2733 39.108C34.275 36.528 40 29.158 40 20.4863C40 9.63301 31.045 0.833008 20 0.833008Z" fill="black"/>
</svg>
