<svg width="32" height="32" viewBox="0 0 32 32" fill="none" xmlns="http://www.w3.org/2000/svg">
<path d="M0 24.074C0 25.0149 0.762774 25.7777 1.7037 25.7777H28.963C29.9039 25.7777 30.6667 25.0149 30.6667 24.074V24.074C30.6667 23.1331 29.9039 22.3703 28.963 22.3703H1.7037C0.762773 22.3703 0 23.1331 0 24.074V24.074ZM0 15.5555C0 16.4964 0.762774 17.2592 1.7037 17.2592H28.963C29.9039 17.2592 30.6667 16.4964 30.6667 15.5555V15.5555C30.6667 14.6145 29.9039 13.8518 28.963 13.8518H1.7037C0.762773 13.8518 0 14.6145 0 15.5555V15.5555ZM1.7037 5.33325C0.762773 5.33325 0 6.09603 0 7.03696V7.03696C0 7.97789 0.762774 8.74066 1.7037 8.74066H28.963C29.9039 8.74066 30.6667 7.97789 30.6667 7.03696V7.03696C30.6667 6.09603 29.9039 5.33325 28.963 5.33325H1.7037Z" fill="#164690"/>
</svg>
