<svg viewBox="0 0 46 47" fill="none" xmlns="http://www.w3.org/2000/svg">
<path d="M43 39.0522V23.5911C43.0001 22.5154 42.7779 21.4511 42.347 20.4632C41.9161 19.4753 41.2856 18.5848 40.494 17.846L25.748 4.08003C25.0053 3.38645 24.022 3 23 3C21.978 3 20.9947 3.38645 20.252 4.08003L5.506 17.846C4.71445 18.5848 4.0839 19.4753 3.653 20.4632C3.22209 21.4511 2.99988 22.5154 3 23.5911V39.0522C3 40.1001 3.42143 41.1051 4.17157 41.8461C4.92172 42.5871 5.93913 43.0034 7 43.0034H39C40.0609 43.0034 41.0783 42.5871 41.8284 41.8461C42.5786 41.1051 43 40.1001 43 39.0522Z" stroke="#164690" stroke-width="6" stroke-linecap="round" stroke-linejoin="round"/>
</svg>
