<svg width="40" height="40" viewBox="0 0 40 40" fill="none" xmlns="http://www.w3.org/2000/svg">
<g clip-path="url(#clip0)">
<path d="M39.3152 7.15454C38.9511 3.74329 36.257 1.04858 32.8455 0.684814C24.2902 -0.228271 15.7098 -0.228271 7.15485 0.684814C3.74329 1.04889 1.04889 3.74329 0.684814 7.15454C-0.228271 15.7095 -0.228271 24.2902 0.684814 32.8452C1.04889 36.2567 3.74329 38.9511 7.15454 39.3152C15.7095 40.2283 24.2902 40.2283 32.8455 39.3152C36.257 38.9511 38.9511 36.2567 39.3152 32.8452C40.2283 24.2902 40.2283 15.7098 39.3152 7.15454Z" fill="url(#paint0_radial)"/>
<path d="M37.1399 8.60165C36.817 5.57462 34.4262 3.18356 31.3989 2.86038C23.8073 2.05045 16.1932 2.05045 8.60165 2.86038C5.57462 3.18356 3.18356 5.57462 2.86038 8.60165C2.05045 16.1932 2.05045 23.8073 2.86038 31.3986C3.18356 34.4259 5.57462 36.817 8.60165 37.1399C16.1932 37.9501 23.8073 37.9501 31.3986 37.1399C34.4259 36.817 36.817 34.4259 37.1399 31.3986C37.9501 23.8073 37.9501 16.1932 37.1399 8.60165Z" fill="url(#paint1_linear)"/>
<path d="M0.599609 32.0156C0.627075 32.2921 0.655457 32.5686 0.685059 32.8451C1.04913 36.2563 3.74353 38.9507 7.15509 39.3148C15.7101 40.2279 24.2907 40.2279 32.8457 39.3148C36.2573 38.9507 38.9514 36.2563 39.3154 32.8451C39.345 32.5686 39.3734 32.2921 39.4012 32.0156H0.599609Z" fill="url(#paint2_linear)"/>
<path d="M39.315 32.8458C39.8057 28.2489 40.0322 23.6447 39.9955 19.0411L30.8525 9.89808C29.7102 8.59406 28.0418 7.78016 26.0814 7.70966C22.0497 7.5644 18.0052 7.57172 13.9729 7.71027C10.6239 7.82563 8.28198 10.0766 7.6814 13.385C7.5755 13.9691 7.51202 14.5609 7.42871 15.1492V24.8483C7.47479 25.1627 7.54254 25.4755 7.5636 25.7916C7.69788 27.804 8.5249 29.5276 9.84906 30.6937L19.1533 39.9976C23.7193 40.0296 28.2856 39.8026 32.8453 39.3158C36.2568 38.9517 38.9509 36.2573 39.315 32.8458Z" fill="url(#paint3_linear)"/>
<path d="M39.3149 32.8452C38.9511 36.2562 36.2561 38.9512 32.8452 39.3149C28.2861 39.8014 23.7189 40.0287 19.1534 39.9967L9.86328 30.7065C10.9402 31.6492 12.3441 32.2233 13.9731 32.2846C18.0045 32.436 22.0499 32.432 26.0812 32.2867C29.7275 32.1549 32.366 29.4562 32.4799 25.81C32.6013 21.9385 32.6013 18.057 32.4799 14.1855C32.428 12.5034 31.8375 11.0233 30.8585 9.90332L39.9957 19.0406C40.0317 23.6436 39.8053 28.2484 39.3149 32.8452Z" fill="url(#paint4_linear)"/>
<path d="M24.72 15.6693C23.5487 14.3939 21.8681 13.5938 20.0001 13.5938C16.4619 13.5938 13.5933 16.4624 13.5933 20.0006C13.5933 21.8686 14.3934 23.5492 15.6688 24.7205L30.4921 39.5438C31.2767 39.4754 32.0613 39.3994 32.8453 39.3158C36.2568 38.9517 38.9512 36.2573 39.3153 32.8458C39.3989 32.0618 39.4749 31.2772 39.5433 30.4926L24.72 15.6693Z" fill="url(#paint5_linear)"/>
<path d="M39.9227 24.3094L27.9927 12.3798C27.7144 12.0145 27.2759 11.7773 26.7812 11.7773C25.9395 11.7773 25.2568 12.4597 25.2568 13.3017C25.2568 13.7964 25.494 14.2349 25.8593 14.5132L39.7094 28.3636C39.8033 27.0126 39.8745 25.661 39.9227 24.3094Z" fill="url(#paint6_linear)"/>
<path d="M7.42871 15.1492C7.51202 14.5609 7.5755 13.9691 7.6814 13.385C8.28168 10.0766 10.6239 7.82563 13.9729 7.71027C18.0052 7.57172 22.0497 7.5644 26.0814 7.70966C29.7264 7.84089 32.3661 10.5399 32.48 14.1861C32.6011 18.0579 32.6011 21.9391 32.48 25.8109C32.3661 29.4571 29.7273 32.1558 26.0817 32.2873C22.05 32.4329 18.0046 32.4365 13.9732 32.2852C10.3276 32.1481 7.80743 29.4431 7.5636 25.7913C7.54254 25.4755 7.47479 25.1624 7.42871 24.848C7.42871 21.615 7.42871 18.382 7.42871 15.1492ZM20.0032 30.1264C21.8483 30.1264 23.6952 30.1816 25.5378 30.1135C28.4269 30.0064 30.204 28.2822 30.2714 25.3958C30.355 21.7993 30.355 18.1979 30.2714 14.6011C30.204 11.7154 28.4257 9.95087 25.5378 9.88953C21.8724 9.81202 18.2029 9.81263 14.5375 9.88953C11.6716 9.94965 9.88934 11.6785 9.81152 14.5325C9.71265 18.1744 9.71265 21.8228 9.81152 25.4648C9.88934 28.3185 11.6716 30.0073 14.5378 30.1135C16.3572 30.1813 18.1813 30.1264 20.0032 30.1264Z" fill="url(#paint7_linear)"/>
<path d="M7.42871 15.1492C7.51202 14.5609 7.5755 13.9691 7.6814 13.385C8.28168 10.0766 10.6239 7.82563 13.9729 7.71027C18.0052 7.57172 22.0497 7.5644 26.0814 7.70966C29.7264 7.84089 32.3661 10.5399 32.48 14.1861C32.6011 18.0579 32.6011 21.9391 32.48 25.8109C32.3661 29.4571 29.7273 32.1558 26.0817 32.2873C22.05 32.4329 18.0046 32.4365 13.9732 32.2852C10.3276 32.1481 7.80743 29.4431 7.5636 25.7913C7.54254 25.4755 7.47479 25.1624 7.42871 24.848C7.42871 21.615 7.42871 18.382 7.42871 15.1492ZM20.0032 30.1264C21.8483 30.1264 23.6952 30.1816 25.5378 30.1135C28.4269 30.0064 30.204 28.2822 30.2714 25.3958C30.355 21.7993 30.355 18.1979 30.2714 14.6011C30.204 11.7154 28.4257 9.95087 25.5378 9.88953C21.8724 9.81202 18.2029 9.81263 14.5375 9.88953C11.6716 9.94965 9.88934 11.6785 9.81152 14.5325C9.71265 18.1744 9.71265 21.8228 9.81152 25.4648C9.88934 28.3185 11.6716 30.0073 14.5378 30.1135C16.3572 30.1813 18.1813 30.1264 20.0032 30.1264Z" fill="white"/>
<path d="M19.9996 13.5938C16.4614 13.5938 13.5928 16.4621 13.5928 20.0003C13.5928 23.5388 16.4614 26.4072 19.9996 26.4072C23.5381 26.4072 26.4065 23.5388 26.4065 20.0003C26.4065 16.4621 23.5381 13.5938 19.9996 13.5938ZM19.9996 24.2014C17.6794 24.2014 15.7986 22.3206 15.7986 20.0003C15.7986 17.6801 17.6794 15.7993 19.9996 15.7993C22.3199 15.7993 24.2007 17.6801 24.2007 20.0003C24.2007 22.3206 22.3199 24.2014 19.9996 24.2014Z" fill="white"/>
<path d="M28.3047 13.3017C28.3047 14.1434 27.6224 14.8257 26.7807 14.8257C25.939 14.8257 25.2563 14.1434 25.2563 13.3017C25.2563 12.4597 25.939 11.7773 26.7807 11.7773C27.6224 11.7773 28.3047 12.4597 28.3047 13.3017Z" fill="white"/>
</g>
<defs>
<radialGradient id="paint0_radial" cx="0" cy="0" r="1" gradientUnits="userSpaceOnUse" gradientTransform="translate(8.19977 34.9568) scale(44.113)">
<stop stop-color="#FAE100"/>
<stop offset="0.0544" stop-color="#FADC04"/>
<stop offset="0.1167" stop-color="#FBCE0E"/>
<stop offset="0.1829" stop-color="#FCB720"/>
<stop offset="0.2514" stop-color="#FE9838"/>
<stop offset="0.3054" stop-color="#FF7950"/>
<stop offset="0.4922" stop-color="#FF1C74"/>
<stop offset="1" stop-color="#6C1CD1"/>
</radialGradient>
<linearGradient id="paint1_linear" x1="15.3419" y1="17.3799" x2="-52.4228" y2="-20.7377" gradientUnits="userSpaceOnUse">
<stop stop-color="#A1B5D8" stop-opacity="0"/>
<stop offset="0.3094" stop-color="#90A2BD" stop-opacity="0.309804"/>
<stop offset="0.7554" stop-color="#7C8B9C" stop-opacity="0.756863"/>
<stop offset="1" stop-color="#748290"/>
</linearGradient>
<linearGradient id="paint2_linear" x1="20.0003" y1="35.3095" x2="20.0003" y2="41.5445" gradientUnits="userSpaceOnUse">
<stop stop-color="#FAE100" stop-opacity="0"/>
<stop offset="0.3068" stop-color="#FCA800" stop-opacity="0.305882"/>
<stop offset="0.6275" stop-color="#FE7300" stop-opacity="0.627451"/>
<stop offset="0.8685" stop-color="#FF5200" stop-opacity="0.866667"/>
<stop offset="1" stop-color="#FF4500"/>
</linearGradient>
<linearGradient id="paint3_linear" x1="17.7242" y1="17.6684" x2="7.82487" y2="7.76907" gradientUnits="userSpaceOnUse">
<stop stop-color="#833AB4" stop-opacity="0"/>
<stop offset="1" stop-color="#833AB4"/>
</linearGradient>
<linearGradient id="paint4_linear" x1="27.4137" y1="36.5847" x2="22.4728" y2="13.2918" gradientUnits="userSpaceOnUse">
<stop stop-color="#833AB4" stop-opacity="0"/>
<stop offset="1" stop-color="#833AB4"/>
</linearGradient>
<linearGradient id="paint5_linear" x1="29.2943" y1="29.2947" x2="9.44864" y2="9.44912" gradientUnits="userSpaceOnUse">
<stop stop-color="#833AB4" stop-opacity="0"/>
<stop offset="1" stop-color="#833AB4"/>
</linearGradient>
<linearGradient id="paint6_linear" x1="30.7663" y1="17.2868" x2="24.2038" y2="10.7242" gradientUnits="userSpaceOnUse">
<stop stop-color="#833AB4" stop-opacity="0"/>
<stop offset="1" stop-color="#833AB4"/>
</linearGradient>
<linearGradient id="paint7_linear" x1="27.9419" y1="12.1139" x2="11.761" y2="28.2948" gradientUnits="userSpaceOnUse">
<stop stop-color="#833AB4"/>
<stop offset="0.0922" stop-color="#9C3495"/>
<stop offset="0.2927" stop-color="#DC2546"/>
<stop offset="0.392" stop-color="#FD1D1D"/>
<stop offset="0.5589" stop-color="#FC6831"/>
<stop offset="0.6887" stop-color="#FC9B40"/>
<stop offset="0.7521" stop-color="#FCAF45"/>
<stop offset="0.7806" stop-color="#FDB750"/>
<stop offset="0.8656" stop-color="#FECB6A"/>
<stop offset="0.9415" stop-color="#FFD87A"/>
<stop offset="1" stop-color="#FFDC80"/>
</linearGradient>
<clipPath id="clip0">
<rect width="40" height="40" fill="white"/>
</clipPath>
</defs>
</svg>
