<svg width="40" height="40" viewBox="0 0 40 40" fill="none" xmlns="http://www.w3.org/2000/svg">
<path d="M0 2.93393C0 1.35869 1.32406 0.0800781 2.95625 0.0800781H37.0438C38.6766 0.0800781 40 1.35869 40 2.93393V37.0667C40 38.6424 38.6766 39.9201 37.0438 39.9201H2.95625C1.32422 39.9201 0 38.6426 0 37.0672V2.93346V2.93393Z" fill="#006699"/>
<path d="M12.1558 33.4203V15.4842H6.1702V33.4203H12.1564H12.1558ZM9.16426 13.0357C11.2511 13.0357 12.5504 11.6584 12.5504 9.93718C12.5113 8.17674 11.2511 6.83789 9.20395 6.83789C7.15535 6.83789 5.81738 8.17674 5.81738 9.93702C5.81738 11.6582 7.11613 13.0355 9.12504 13.0355H9.16379L9.16426 13.0357ZM15.4689 33.4203H21.4541V23.405C21.4541 22.8697 21.4932 22.3329 21.6513 21.9506C22.0838 20.8791 23.0686 19.7699 24.7225 19.7699C26.8879 19.7699 27.7546 21.4146 27.7546 23.826V33.4203H33.7396V23.1363C33.7396 17.6273 30.7871 15.0637 26.8491 15.0637C23.6205 15.0637 22.2025 16.861 21.4147 18.0851H21.4546V15.4848H15.4693C15.5474 17.1674 15.4688 33.421 15.4688 33.421L15.4689 33.4203Z" fill="white"/>
</svg>
