<svg viewBox="0 0 162 44" fill="none" xmlns="http://www.w3.org/2000/svg">
<path d="M123.135 33.7189C123.316 33.8423 123.518 33.9276 123.73 33.9696C123.942 34.0117 124.16 34.0098 124.372 33.964C124.583 33.9183 124.784 33.8296 124.963 33.703C125.142 33.5764 125.294 33.4143 125.413 33.2262L138.367 12.661C138.607 12.2811 138.691 11.8176 138.603 11.3725C138.514 10.9275 138.259 10.5373 137.895 10.2879C137.53 10.0385 137.085 9.95025 136.658 10.0426C136.231 10.1349 135.856 10.4002 135.617 10.7802L122.663 31.3453C122.544 31.5335 122.462 31.7441 122.422 31.9653C122.381 32.1864 122.383 32.4137 122.427 32.6341C122.471 32.8545 122.556 33.0637 122.677 33.2499C122.799 33.436 122.954 33.5954 123.135 33.7189Z" fill="#164690"/>
<path d="M141.078 33.596C141.414 33.8868 141.846 34.0271 142.28 33.9859C142.715 33.9448 143.116 33.7255 143.395 33.3765L151.62 23.0969C151.866 22.789 152.001 22.401 152.001 22.0002C152.001 21.5995 151.866 21.2114 151.62 20.9035L143.395 10.624C143.257 10.4497 143.088 10.3055 142.896 10.1997C142.705 10.0939 142.495 10.0286 142.279 10.0075C142.063 9.9864 141.846 10.01 141.638 10.0768C141.431 10.1437 141.239 10.2525 141.072 10.397C140.906 10.5416 140.768 10.719 140.668 10.9191C140.567 11.1191 140.506 11.3379 140.487 11.5629C140.468 11.7878 140.492 12.0144 140.557 12.2297C140.622 12.445 140.728 12.6447 140.868 12.8174L148.215 22.0002L140.868 31.1831C140.588 31.5322 140.454 31.9825 140.493 32.435C140.533 32.8875 140.743 33.3051 141.078 33.596Z" fill="#164690"/>
<path d="M18.9631 33.3692C19.1067 33.5434 19.2833 33.6876 19.4828 33.7933C19.6822 33.8991 19.9007 33.9644 20.1255 33.9855C20.3503 34.0066 20.577 33.983 20.7927 33.9162C21.0084 33.8494 21.2087 33.7406 21.3822 33.5961C21.5557 33.4516 21.6989 33.2742 21.8035 33.0742C21.9082 32.8742 21.9723 32.6555 21.9921 32.4306C22.0119 32.2057 21.9871 31.9792 21.919 31.764C21.851 31.5487 21.741 31.3491 21.5955 31.1765L13.9434 21.9965L21.5955 12.8165C21.741 12.6439 21.851 12.4443 21.919 12.229C21.9871 12.0138 22.0119 11.7872 21.9921 11.5624C21.9723 11.3375 21.9082 11.1188 21.8035 10.9188C21.6989 10.7188 21.5557 10.5414 21.3822 10.3969C21.2087 10.2524 21.0084 10.1436 20.7927 10.0768C20.577 10.01 20.3503 9.9864 20.1255 10.0075C19.9007 10.0286 19.6822 10.0939 19.4828 10.1996C19.2833 10.3054 19.1067 10.4496 18.9631 10.6238L10.397 20.9001C10.1405 21.2079 10 21.5959 10 21.9965C10 22.3971 10.1405 22.7851 10.397 23.0928L18.9631 33.3692Z" fill="#164690"/>
<path d="M24.8105 11.9245C24.8105 11.2179 25.1256 10.7118 25.7558 10.4062C26.0041 10.2917 26.2524 10.2344 26.5006 10.2344C27.2263 10.2344 27.7419 10.5495 28.0475 11.1797C28.1621 11.4279 28.2194 11.6762 28.2194 11.9245C28.2194 12.612 27.8947 13.1085 27.2454 13.4141C26.9971 13.5286 26.7489 13.5859 26.5006 13.5859C25.8131 13.5859 25.307 13.2804 24.9824 12.6693C24.8678 12.4401 24.8105 12.1918 24.8105 11.9245ZM25.011 30V14.7318H28.0761V30H25.011ZM30.1031 26.3047C30.1031 27.3741 30.6187 28.2812 31.65 29.026C32.5476 29.6753 33.617 30 34.8583 30V27.1641C33.4451 27.145 32.729 26.6484 32.7099 25.6745V25.0729C32.729 24.691 32.8436 24.4236 33.0536 24.2708C33.2064 24.1562 34.104 23.8793 35.7464 23.4401C36.8922 23.1345 37.6943 22.8576 38.1526 22.6094V25.4453C38.1526 26.362 37.7229 26.9158 36.8635 27.1068C36.6917 27.145 36.5102 27.1641 36.3193 27.1641V30C37.5797 29.9809 38.5918 29.6562 39.3557 29.026C40.0241 29.6753 40.8644 30 41.8766 30V27.1354C41.38 27.0972 41.1222 26.7917 41.1031 26.2187V18.513C41.1031 17.3672 40.6448 16.3455 39.7281 15.4479C38.8115 14.5503 37.6656 14.1016 36.2906 14.1016V16.9089C37.15 16.9089 37.7229 17.2622 38.0094 17.9687C38.1049 18.1979 38.1526 18.4366 38.1526 18.6849V19.2865C38.1526 19.783 37.1023 20.3559 35.0016 21.0052C33.0154 21.6163 31.8887 21.9983 31.6214 22.151C30.6283 22.7431 30.1222 23.6597 30.1031 24.901V26.3047ZM30.3323 18.0833L32.9677 19.0859C32.9677 17.9974 33.3878 17.3099 34.2281 17.0234C34.4382 16.947 34.6483 16.9089 34.8583 16.9089V14.1016C33.5406 14.1016 32.4043 14.579 31.4495 15.5339C30.7047 16.2977 30.3323 17.1476 30.3323 18.0833ZM43.5311 30V18.4271C43.5311 17.434 43.9417 16.4887 44.7629 15.5911C45.7178 14.579 46.9304 14.0729 48.4009 14.0729V17.1094C47.4461 17.1094 46.8732 17.5295 46.6822 18.3698C46.644 18.5226 46.6249 18.6753 46.6249 18.8281V30H43.5311ZM49.7186 17.1094V14.0729C51.0936 14.092 52.2204 14.5312 53.0989 15.3906C53.9964 14.5122 55.1232 14.0729 56.4791 14.0729V17.1094C55.486 17.1094 54.894 17.5295 54.703 18.3698C54.6648 18.5226 54.6457 18.6753 54.6457 18.8281V30H51.552V18.8281C51.552 17.9687 51.1605 17.4245 50.3775 17.1953C50.1674 17.138 49.9478 17.1094 49.7186 17.1094ZM57.7681 17.1094V14.0729C59.5824 14.0729 60.9765 14.8177 61.9504 16.3073C62.4278 17.0521 62.6666 17.7587 62.6666 18.4271V30H59.5728V18.8281C59.5728 17.8351 59.0954 17.2717 58.1405 17.138C58.0259 17.1189 57.9018 17.1094 57.7681 17.1094ZM64.0347 25.8177L66.8706 25.3021C66.8706 26.0469 67.2621 26.6102 68.0451 26.9922C68.3889 27.1641 68.7231 27.25 69.0477 27.25V30.1432C67.0234 30.1432 65.5625 29.4271 64.6649 27.9948C64.2448 27.3073 64.0347 26.5816 64.0347 25.8177ZM64.1779 18.5417C64.1779 16.7847 64.9895 15.4766 66.6128 14.6172C67.3958 14.2161 68.1788 14.0156 68.9618 14.0156V16.8516C68.0451 16.8516 67.434 17.2144 67.1284 17.9401C67.052 18.1502 67.0139 18.3507 67.0139 18.5417C67.0139 19.1146 67.5104 19.6207 68.5034 20.0599C69.3437 20.4036 70.6232 20.776 72.342 21.1771C73.6597 21.4444 74.5955 22.1224 75.1493 23.2109C75.4357 23.803 75.579 24.4523 75.579 25.1589C75.579 27.0495 74.8151 28.4436 73.2873 29.3411C72.4088 29.8759 71.4062 30.1432 70.2795 30.1432V27.2786C71.0434 27.2786 71.6736 27.0208 72.1701 26.5052C72.4757 26.1424 72.6284 25.7413 72.6284 25.3021C72.6284 24.6337 71.8836 24.0703 70.3941 23.612C70.0885 23.5165 69.6111 23.3828 68.9618 23.2109C67.9878 22.9818 67.3003 22.7908 66.8993 22.638C65.4861 22.0078 64.6267 21.0816 64.3211 19.8594C64.2257 19.4583 64.1779 19.0191 64.1779 18.5417ZM70.2508 16.8516V14.0156C71.9314 14.0156 73.2873 14.6363 74.3185 15.8776C74.9678 16.6797 75.2925 17.52 75.2925 18.3984L72.4566 18.8854C72.4566 17.9115 71.9314 17.2717 70.881 16.9661C70.6519 16.8898 70.4418 16.8516 70.2508 16.8516ZM77.033 30.1432V9.63281H79.8976V15.1042C80.5469 14.7031 81.2631 14.5026 82.046 14.5026V17.3385C81.2631 17.3385 80.6328 17.6823 80.1554 18.3698C80.0026 18.599 79.9263 18.809 79.9263 19V30.1432H77.033ZM83.421 17.3385V14.5026C85.2353 14.5026 86.6007 15.1519 87.5174 16.4505C87.9948 17.1571 88.2335 17.9115 88.2335 18.7135V30.1432H85.3403V19C85.3403 18.4271 85.0825 17.9783 84.5669 17.6536C84.2231 17.4436 83.8412 17.3385 83.421 17.3385ZM89.9741 25.6745V18.4271C89.9741 17.4913 90.3942 16.5842 91.2345 15.7057C92.2275 14.6554 93.4784 14.1302 94.9871 14.1302V17.0807C93.994 17.0807 93.3543 17.4913 93.0678 18.3125C93.0105 18.4844 92.9819 18.6562 92.9819 18.8281V25.2734C92.9819 25.9991 93.3161 26.5243 93.9845 26.849C94.29 27.0017 94.6338 27.0781 95.0157 27.0781V30.0286C93.1633 30.0286 91.731 29.2839 90.7189 27.7943C90.2223 27.0495 89.9741 26.3429 89.9741 25.6745ZM96.2761 30.0286V27.0781C97.1928 27.0781 97.7944 26.6866 98.0808 25.9036C98.1572 25.6936 98.1954 25.5026 98.1954 25.3307V18.8281C98.1954 18.026 97.823 17.4913 97.0782 17.224C96.83 17.1285 96.5531 17.0807 96.2475 17.0807V14.1302C98.0426 14.1302 99.4272 14.8559 100.401 16.3073C100.898 17.0521 101.146 17.7587 101.146 18.4271V25.6745C101.146 26.6102 100.745 27.5269 99.9428 28.4245C98.9689 29.4748 97.7466 30.0095 96.2761 30.0286ZM103.03 25.7891V14.1302H106.123V25.4453C106.123 26.0564 106.429 26.5243 107.04 26.849C107.365 27.0208 107.728 27.1068 108.129 27.1068V30.1432C106.276 30.1432 104.834 29.4175 103.803 27.9661C103.288 27.2214 103.03 26.4957 103.03 25.7891ZM109.389 30.1432V27.1068C110.344 27.1068 110.974 26.7344 111.28 25.9896C111.356 25.7986 111.394 25.6172 111.394 25.4453V14.1302H114.488V25.7891C114.488 26.6866 114.087 27.5747 113.285 28.4531C112.235 29.5608 110.936 30.1241 109.389 30.1432ZM116.486 30V14.1302H119.58V16.1068C120.115 15.2665 120.917 14.6649 121.986 14.3021C122.483 14.1302 122.97 14.0443 123.447 14.0443H124.192L123.476 17.0521C122.349 17.0712 121.366 17.6155 120.525 18.6849C119.895 19.5061 119.58 20.3559 119.58 21.2344V30H116.486Z" fill="#164690"/>
<path d="M18 1C8.61116 1 1 8.61116 1 18V26C1 35.3888 8.61116 43 18 43H144C153.389 43 161 35.3888 161 26V18C161 8.61116 153.389 1 144 1H18Z" stroke="#164690" stroke-width="1.5"/>
</svg>
