<svg width="40" height="40" viewBox="0 0 40 40" fill="none" xmlns="http://www.w3.org/2000/svg">
<path d="M39.4116 19.9446C39.4116 30.7001 30.6894 39.4224 19.9338 39.4224C9.17828 39.4224 0.456055 30.7001 0.456055 19.9446C0.456055 9.18902 9.17828 0.466797 19.9338 0.466797C30.6894 0.466797 39.4116 9.18902 39.4116 19.9446Z" fill="#CA2127"/>
<path d="M18.2988 6.98886C12.8099 7.57775 7.34327 11.8 7.12105 17.8444C6.9766 21.5333 8.52105 24.3 12.2099 25.0777C12.6322 23.3333 12.7099 22.3889 12.7099 22.3889C12.7099 22.3889 11.0877 20.8333 10.921 19.8444C9.56549 11.8889 20.5544 6.45553 26.321 12.0111C30.2988 15.8666 27.6766 27.7222 21.2544 26.4889C15.0988 25.3111 24.2655 15.8777 19.3544 14.0222C15.3655 12.5111 13.2433 18.6333 15.1322 21.6666C14.021 26.8889 11.6322 31.8111 12.5988 38.3555C15.7433 36.1889 16.7988 32.0333 17.6655 27.7C19.2433 28.6111 20.0877 29.5666 22.0988 29.7111C29.521 30.2555 33.6655 22.6555 32.6544 15.6333C31.7433 9.41108 25.2322 6.24441 18.2988 6.98886Z" fill="white"/>
</svg>
