<svg width="100" height="100" viewBox="0 0 100 100" fill="none" xmlns="http://www.w3.org/2000/svg">
<path d="M93.9611 85.6446H6.03887C2.70371 85.6446 0 82.9409 0 79.6058V26.7778H100V79.6058C100 82.9409 97.2963 85.6446 93.9611 85.6446Z" fill="#F2F6FC"/>
<path d="M96.957 85.5469H52.6524C50.9718 85.5469 49.6094 82.8467 49.6094 79.516V26.7578H100V79.516C100 82.8467 98.6376 85.5469 96.957 85.5469Z" fill="#E9EDF5"/>
<path d="M100 28.8549H0V20.3943C0 17.0592 2.70371 14.3555 6.03887 14.3555H93.9611C97.2963 14.3555 100 17.0592 100 20.3943V28.8549Z" fill="#FE6A16"/>
<path d="M100 28.9062H49.6094V20.4727C49.6094 17.1482 50.9718 14.4531 52.6524 14.4531H96.957C98.6376 14.4531 100 17.1482 100 20.4727V28.9062Z" fill="#F24500"/>
<path d="M9.65879 24.7224C11.3257 24.7224 12.677 23.3711 12.677 21.7042C12.677 20.0373 11.3257 18.686 9.65879 18.686C7.9919 18.686 6.64062 20.0373 6.64062 21.7042C6.64062 23.3711 7.9919 24.7224 9.65879 24.7224Z" fill="#06CCAB"/>
<path d="M21.3614 24.7224C23.0283 24.7224 24.3796 23.3711 24.3796 21.7042C24.3796 20.0373 23.0283 18.686 21.3614 18.686C19.6945 18.686 18.3433 20.0373 18.3433 21.7042C18.3433 23.3711 19.6945 24.7224 21.3614 24.7224Z" fill="#F2F6FC"/>
<path d="M33.0636 24.7224C34.7305 24.7224 36.0817 23.3711 36.0817 21.7042C36.0817 20.0373 34.7305 18.686 33.0636 18.686C31.3967 18.686 30.0454 20.0373 30.0454 21.7042C30.0454 23.3711 31.3967 24.7224 33.0636 24.7224Z" fill="#FFEE6E"/>
<path d="M70.1367 35.7422L80.1172 51.6355V61.2985H60.1562V51.6355L70.1367 35.7422Z" fill="#FCF2B6"/>
<path d="M70.1367 35.7422L80.1172 51.6355V61.2985H70.1367V35.7422Z" fill="#FFDE91"/>
<path d="M60.1562 85.4585V55.8887L70.1367 49.9766L80.1172 55.8887V85.4585H60.1562Z" fill="#FFBC36"/>
<path d="M70.1367 49.9766L80.1172 55.8887V85.4585H70.1367C70.1367 78.5376 70.1367 49.9766 70.1367 49.9766Z" fill="#FFA426"/>
<path d="M70.1369 35.7422L75.974 45.0377H64.2998L70.1369 35.7422Z" fill="#27488F"/>
<path d="M70.1367 35.7422L75.9738 45.0377H70.1367V35.7422Z" fill="#1B3B6B"/>
<path d="M19.5312 35.7422H40.8113V85.5812H19.5312V35.7422Z" fill="#06CCAB"/>
<path d="M30.1714 35.7422H40.8122V85.5812H30.1714V35.7422Z" fill="#00BD9D"/>
<path d="M30.1714 45.3726H40.8122V51.0323H30.1714V45.3726Z" fill="#FFEE6E"/>
<path d="M30.1714 57.832H40.8122V63.4918H30.1714V57.832Z" fill="#FFEE6E"/>
<path d="M30.1714 70.292H40.8122V75.9518H30.1714V70.292Z" fill="#FFEE6E"/>
</svg>
