<svg width="40" height="40" viewBox="0 0 40 40" fill="none" xmlns="http://www.w3.org/2000/svg">
<g clip-path="url(#clip0)">
<path d="M39.9978 29.8887C39.9978 30.1077 39.9911 30.5827 39.978 30.9496C39.9458 31.8473 39.8746 33.0058 39.767 33.5336C39.6052 34.3268 39.361 35.0755 39.0427 35.6986C38.666 36.4358 38.1855 37.0961 37.6146 37.666C37.0449 38.2347 36.3852 38.7133 35.6491 39.0885C35.0227 39.4077 34.2694 39.652 33.4716 39.813C32.949 39.9185 31.7993 39.9884 30.9072 40.0201C30.54 40.0332 30.0649 40.0398 29.8467 40.0398L10.1502 40.0366C9.93117 40.0366 9.45624 40.0299 9.08933 40.0168C8.19155 39.9846 7.0331 39.9134 6.50524 39.8058C5.71204 39.644 4.96332 39.3999 4.34019 39.0815C3.603 38.7048 2.94272 38.2243 2.37283 37.6534C1.80408 37.0837 1.32548 36.4241 0.950359 35.688C0.63106 35.0616 0.386761 34.3082 0.225705 33.5105C0.120235 32.9879 0.0504301 31.8382 0.018672 30.9461C0.00562505 30.5789 -0.000976562 30.1038 -0.000976562 29.8856L0.00214846 10.1892C0.00214846 9.97019 0.0088282 9.49523 0.0219924 9.12832C0.0542192 8.23055 0.125353 7.07211 0.232971 6.5443C0.39473 5.75109 0.638872 5.00238 0.957273 4.37922C1.33396 3.64207 1.81447 2.98176 2.38537 2.41187C2.95506 1.84316 3.61475 1.36453 4.35081 0.989375C4.97726 0.670156 5.73067 0.425859 6.52837 0.264805C7.05091 0.159297 8.20073 0.0894922 9.09276 0.0577734C9.46003 0.0446875 9.93515 0.0380859 10.1533 0.0380859L29.8498 0.04125C30.0689 0.04125 30.5438 0.0479297 30.9107 0.0610937C31.8085 0.0933203 32.9669 0.164453 33.4948 0.27207C34.288 0.433828 35.0367 0.677969 35.6598 0.996367C36.397 1.37305 37.0573 1.85355 37.6272 2.42445C38.1959 2.99414 38.6745 3.65379 39.0496 4.38988C39.3689 5.01633 39.6132 5.76969 39.7743 6.56738C39.8798 7.08996 39.9495 8.23973 39.9813 9.1318C39.9944 9.49906 40.001 9.97414 40.001 10.1923L39.9978 29.8887Z" fill="url(#paint0_linear)"/>
<path d="M30.5963 9.50227C27.8881 6.79184 24.2866 5.2984 20.4494 5.29688C12.5431 5.29688 6.1083 11.7292 6.10514 19.6356C6.10412 22.1629 6.76462 24.6299 8.01985 26.8045L5.98486 34.2353L13.5889 32.2413C15.6841 33.3836 18.0429 33.9856 20.4437 33.9866H20.4496C28.3551 33.9866 34.7904 27.5535 34.7936 19.647C34.7951 15.8155 33.3045 12.2127 30.5963 9.50227ZM20.4496 31.5648H20.4447C18.3053 31.564 16.2071 30.9895 14.3766 29.9035L13.9412 29.6452L9.42883 30.8286L10.6333 26.4304L10.3497 25.9795C9.15629 24.0819 8.52598 21.8885 8.52692 19.6366C8.5295 13.0651 13.8779 7.71875 20.4542 7.71875C23.6386 7.71996 26.632 8.96137 28.883 11.2141C31.1339 13.4669 32.3729 16.4615 32.3717 19.6461C32.3691 26.2181 27.0208 31.5648 20.4496 31.5648ZM26.9892 22.6384C26.6307 22.4591 24.8686 21.5923 24.5401 21.4727C24.2116 21.3531 23.9727 21.2933 23.7336 21.6521C23.4948 22.0107 22.8079 22.8178 22.5988 23.0569C22.3897 23.2961 22.1806 23.326 21.8222 23.1466C21.4638 22.9673 20.309 22.5889 18.94 21.3682C17.8746 20.4183 17.1552 19.2448 16.9461 18.8861C16.7371 18.5274 16.9239 18.3335 17.1033 18.1548C17.2645 17.9943 17.4617 17.7364 17.6409 17.5272C17.8201 17.318 17.8799 17.1684 17.9993 16.9293C18.1188 16.6902 18.0591 16.4809 17.9694 16.3016C17.8799 16.1223 17.163 14.3587 16.8644 13.6413C16.5735 12.9426 16.2779 13.0371 16.0579 13.0262C15.8491 13.0158 15.6099 13.0136 15.371 13.0136C15.1321 13.0136 14.7438 13.1032 14.4153 13.462C14.0868 13.8207 13.1609 14.6875 13.1609 16.4511C13.1609 18.2146 14.4451 19.9184 14.6243 20.1575C14.8036 20.3966 17.1516 24.0157 20.747 25.5677C21.6022 25.9369 22.2697 26.1573 22.7903 26.3225C23.6489 26.5951 24.4302 26.5567 25.0478 26.4645C25.7364 26.3616 27.1683 25.5977 27.467 24.7607C27.7657 23.9237 27.7657 23.2064 27.6761 23.057C27.5865 22.9075 27.3476 22.8178 26.9892 22.6384Z" fill="white"/>
</g>
<defs>
<linearGradient id="paint0_linear" x1="20" y1="0.0380859" x2="20" y2="40.0398" gradientUnits="userSpaceOnUse">
<stop stop-color="#61FD7D"/>
<stop offset="1" stop-color="#2BB826"/>
</linearGradient>
<clipPath id="clip0">
<rect width="40" height="40" fill="white"/>
</clipPath>
</defs>
</svg>
